<svg width="42" height="43" viewBox="0 0 42 43" fill="none" xmlns="http://www.w3.org/2000/svg">
<path d="M3 11.25H29C30.5188 11.25 31.75 12.4812 31.75 14V40C31.75 41.5188 30.5188 42.75 29 42.75H3C1.48122 42.75 0.25 41.5188 0.25 40V14C0.25 12.4812 1.48122 11.25 3 11.25Z" fill="white" stroke="#F26966" stroke-width="0.5"/>
<mask id="mask0_7_2" style="mask-type:alpha" maskUnits="userSpaceOnUse" x="6" y="0" width="36" height="34">
<rect x="6" width="35.129" height="33.417" fill="#D9D9D9"/>
</mask>
<g mask="url(#mask0_7_2)">
<path d="M41.112 0.401C41.2 0.378 40.918 0.067 40.881 0C40.8301 0.16 41.182 0.484 41.112 0.401Z" fill="#E45053"/>
<path d="M40.6309 1.99666L40.5439 1.84766L40.6469 2.30066L40.6309 1.99666Z" fill="#E45053"/>
<path d="M39.6289 2.78569C40.1689 3.26469 39.9159 2.40569 40.2539 2.46269L40.3849 2.56669L40.1059 2.05469C39.9469 2.29769 39.9039 2.81669 39.6289 2.78569Z" fill="#E45053"/>
<path d="M38.1289 2.01531C38.3369 2.20431 38.1649 2.29431 38.3079 1.98231C38.2779 1.96631 38.2619 1.95731 38.2409 1.94531C38.2219 1.96631 38.1919 1.99031 38.1289 2.01531Z" fill="#E45053"/>
<path d="M38.2407 1.94671C38.3327 1.84571 38.0247 1.82071 38.2407 1.94671Z" fill="#E45053"/>
<path d="M37.8573 2.46407L37.8393 2.15907C37.7063 2.05507 37.5603 2.12707 37.5303 1.99707C37.4743 2.21807 37.6063 2.32107 37.8573 2.46407Z" fill="#E45053"/>
<path d="M38.0553 2.9744L38.0603 2.8354C38.0043 2.7914 37.9703 2.7884 38.0553 2.9744Z" fill="#E45053"/>
<path d="M38.0716 2.54004L38.0596 2.83504C38.1526 2.90804 38.3006 3.08604 38.0786 2.71704C38.2006 2.89004 38.1016 2.70904 38.0716 2.54004Z" fill="#E45053"/>
<path d="M38.2266 2.55388C38.4016 2.61188 38.5636 2.60588 38.5806 2.90988C38.7826 2.61988 38.4276 2.26188 38.2266 2.55388Z" fill="#E45053"/>
<path d="M40.0421 3.40166L40.2761 3.48066L40.2141 3.22266C40.2451 3.35066 39.8951 3.23266 40.0421 3.40166Z" fill="#E45053"/>
<path d="M36.7617 2.87891C36.8497 3.00291 37.0647 3.15291 37.1987 3.29491L37.1897 3.07691C37.0717 3.03891 36.9117 3.04691 36.7617 2.87891Z" fill="#E45053"/>
<path d="M37.1992 3.29492L37.2142 3.62192C37.3682 3.53292 37.3142 3.41692 37.1992 3.29492Z" fill="#E45053"/>
<path d="M38.5315 3.60847L38.4355 2.98047L38.4885 3.65347L38.5315 3.60847Z" fill="#E45053"/>
<path d="M36.1712 3.34591L36.0332 3.00391L36.2192 3.53991L36.1712 3.34591Z" fill="#E45053"/>
<path d="M35.8272 3.71287C35.7042 3.43587 35.4242 3.40687 35.3772 3.21387C35.3062 3.34087 35.3772 3.60687 35.4412 3.84587C35.4452 3.67887 35.5572 3.62787 35.8272 3.71287Z" fill="#E45053"/>
<path d="M35.5156 4.21066C35.5136 4.12166 35.4766 3.98966 35.4396 3.84766C35.4376 3.93666 35.4556 4.04766 35.5156 4.21066Z" fill="#E45053"/>
<path d="M36.9087 3.77797C36.8387 3.71697 36.6627 3.55097 36.5137 3.54297L36.8457 3.82297C36.8647 3.80897 36.8867 3.79397 36.9087 3.77797Z" fill="#E45053"/>
<path d="M36.8561 3.83127L36.8451 3.82227C36.7731 3.86627 36.7231 3.89727 36.7021 3.91127C36.7211 3.90127 36.7671 3.87727 36.8561 3.83127Z" fill="#E45053"/>
<path d="M36.9252 3.76758L36.9092 3.77858C36.9412 3.80658 36.9542 3.81458 36.9252 3.76758Z" fill="#E45053"/>
<path d="M37.8887 3.63281C37.9507 3.88981 37.9277 4.23881 38.3387 4.37481C38.2167 4.09681 37.9827 4.01981 37.8887 3.63281Z" fill="#E45053"/>
<path d="M37.3393 4.11714L37.5613 4.05914C37.4863 3.97514 37.3533 3.87214 37.3213 3.74414L37.3393 4.11714Z" fill="#E45053"/>
<path d="M37.3468 4.28719L37.3388 4.11719L37.2568 4.13919L37.3468 4.28719Z" fill="#E45053"/>
<path d="M36.0478 4.28661C36.0978 4.48661 36.0318 4.56261 35.9658 4.65661C36.1108 4.64461 36.2348 4.60061 36.3248 4.52461C36.2508 4.41061 36.1368 4.19261 36.0478 4.28661Z" fill="#E45053"/>
<path d="M36.4648 4.0957V4.1277C36.4978 4.1467 36.5128 4.1497 36.4648 4.0957Z" fill="#E45053"/>
<path d="M35.125 5.36061C35.144 5.37561 35.168 5.39261 35.189 5.40861L35.144 5.34961L35.125 5.36061Z" fill="#E45053"/>
<path d="M36.3912 4.57405C36.5132 4.58005 36.4872 4.46605 36.4422 4.33105C36.4182 4.40705 36.3812 4.47405 36.3252 4.52605C36.3582 4.57705 36.3822 4.60805 36.3912 4.57405Z" fill="#E45053"/>
<path d="M35.4088 4.55861C35.5028 4.59661 35.5918 4.62061 35.6798 4.63861C35.5578 4.56461 35.3498 4.46261 35.4088 4.55861Z" fill="#E45053"/>
<path d="M36.3661 4.0548L36.3641 4.0318C36.2831 3.9798 36.3141 4.0118 36.3661 4.0548Z" fill="#E45053"/>
<path d="M36.3662 4.05469C36.3702 4.13169 36.4092 4.23569 36.4412 4.33069C36.4622 4.27069 36.4712 4.20269 36.4652 4.12669C36.4372 4.10969 36.3992 4.08169 36.3662 4.05469Z" fill="#E45053"/>
<path d="M36.6485 7.6662C36.4035 7.3542 36.3445 6.9232 36.7725 7.1172C36.7315 6.7622 35.7925 5.8502 35.1885 5.4082C35.2955 5.5432 35.3985 5.6652 35.3935 5.9772C35.5885 6.0952 36.0665 6.0682 36.1665 6.4542C36.0925 6.7852 35.9075 6.4912 35.6715 6.4172C36.0755 6.7212 35.8745 7.1882 36.3895 7.7022L36.4035 7.3542C36.4805 7.4372 36.5315 7.6302 36.6485 7.6662Z" fill="#E45053"/>
<path d="M35.5126 5.18409L35.5456 5.09209C35.4266 5.10109 35.2726 5.02609 34.9756 4.87109C34.9926 5.11109 35.0656 5.24209 35.1436 5.34909L35.4966 5.12009L35.5126 5.18409Z" fill="#E45053"/>
<path d="M35.8379 4.84667C36.0639 5.21967 36.0259 5.48967 36.4219 5.76667C36.5929 5.58567 36.3239 5.37967 36.3169 5.14167C36.0779 5.48067 36.2519 4.88467 35.8719 4.88267C35.8859 4.77567 35.9259 4.71367 35.9659 4.65667C35.8759 4.66267 35.7809 4.65767 35.6799 4.63867L35.7039 4.65367V4.65067L35.7079 4.65667C35.7559 4.68667 35.7819 4.70767 35.7469 4.69667C35.7489 4.70167 35.7459 4.70867 35.7459 4.70867C35.7819 4.75667 35.8099 4.80167 35.8359 4.84467C35.6899 4.85167 35.7499 4.77067 35.7459 4.70867L35.7079 4.65667L35.7039 4.65367L35.5469 5.09167C35.6509 5.08267 35.7239 5.00567 35.8379 4.84667Z" fill="#E45053"/>
<path d="M38.7635 5.2233C38.7295 5.2013 38.7095 5.1773 38.6895 5.1543C38.7025 5.2113 38.7195 5.2453 38.7635 5.2233Z" fill="#E45053"/>
<path d="M38.4713 5.12827C38.4553 5.06327 38.3642 4.91527 38.4653 4.88927C38.6103 4.93727 38.5963 5.04827 38.6892 5.15527C38.6602 5.03127 38.6472 4.79127 38.3752 4.74127L38.3912 4.80527C38.1742 4.79327 37.6723 4.51127 37.6562 4.44727C37.9392 4.71627 38.1472 4.90327 38.4713 5.12827Z" fill="#E45053"/>
<path d="M37.2186 5.07715L37.0986 5.45315L37.4676 5.63115L37.3176 5.46415C37.5186 5.41115 37.3106 5.22515 37.2186 5.07715Z" fill="#E45053"/>
<path d="M34.9573 5.2217L34.6973 4.8457L34.9653 5.4617L34.9573 5.2217Z" fill="#E45053"/>
<path d="M34.661 5.54638L34.417 5.23438L34.484 5.49137L34.661 5.54638Z" fill="#E45053"/>
<path d="M20.5049 25.8789L20.5219 26.0259C20.5269 25.9689 20.5199 25.9219 20.5049 25.8789Z" fill="#E45053"/>
<path d="M20.9982 25.3862L20.8672 25.2402C20.9242 25.3372 20.9732 25.4012 20.9982 25.3862Z" fill="#E45053"/>
<path d="M26.7213 12.7158C26.3633 12.5448 25.8523 12.2388 26.1703 12.5498L26.5003 12.8348C26.5203 12.7098 26.6093 12.6928 26.7213 12.7158Z" fill="#E45053"/>
<path d="M23.3188 19.6564C23.3578 19.6764 23.3998 19.6984 23.4418 19.7194C23.3608 19.5914 23.2848 19.4714 23.2148 19.3594C23.2468 19.4524 23.2818 19.5514 23.3188 19.6564Z" fill="#E45053"/>
<path d="M24.5263 20.9888L24.1963 20.9238C24.2953 20.9628 24.4043 20.9858 24.5263 20.9888Z" fill="#E45053"/>
<path d="M16.8728 30.5938L16.8418 31.2957C17.0618 31.0448 16.9088 30.8808 16.8728 30.5938Z" fill="#E45053"/>
<path d="M31.3981 8.59222C31.1931 8.54822 31.0721 8.56022 30.9941 8.60222C31.2711 8.68922 31.6091 8.88822 31.3981 8.59222Z" fill="#E45053"/>
<path d="M17.3232 22.5391C17.3402 22.6371 17.3872 22.7161 17.4592 22.7801C17.4472 22.6841 17.4102 22.6021 17.3232 22.5391Z" fill="#E45053"/>
<path d="M30.7279 8.84216C30.7729 8.86016 30.8039 8.86216 30.8449 8.87416C30.8639 8.76016 30.8929 8.65516 30.9939 8.60216C30.7879 8.53716 30.6179 8.53616 30.7279 8.84216Z" fill="#E45053"/>
<path d="M7.04625 20.3215C7.05925 20.3035 7.06225 20.2885 7.07824 20.2695C7.02425 20.2935 7.02825 20.3075 7.04625 20.3215Z" fill="#E45053"/>
<path d="M9.09375 14.709C9.13575 14.732 9.16575 14.79 9.19975 14.843C9.21175 14.802 9.18675 14.759 9.09375 14.709Z" fill="#E45053"/>
<path d="M33.2048 6.54208C33.2558 6.46008 33.1848 6.49608 33.2048 6.54208Z" fill="#E45053"/>
<path d="M34.666 7.54883C34.683 7.59883 34.712 7.65483 34.776 7.73283C34.713 7.64883 34.68 7.58983 34.666 7.54883Z" fill="#E45053"/>
<path d="M31.8498 11.4609L31.8428 11.4649C31.9198 11.5099 31.9058 11.5009 31.8498 11.4609Z" fill="#E45053"/>
<path d="M33.4386 6.5997C33.3776 6.5817 33.3186 6.5747 33.2656 6.5797C33.3016 6.5927 33.3566 6.6007 33.4386 6.5997Z" fill="#E45053"/>
<path d="M33.291 6.45664C33.326 6.44764 33.354 6.44164 33.38 6.43564C33.34 6.37364 33.302 6.34464 33.291 6.45664Z" fill="#E45053"/>
<path d="M33.123 6.64497C33.158 6.60497 33.209 6.58797 33.265 6.58097C33.232 6.56997 33.211 6.55697 33.205 6.54297C33.189 6.56597 33.166 6.59697 33.123 6.64497Z" fill="#E45053"/>
<path d="M11.7761 27.0287L11.7921 26.9688C11.6141 27.0177 11.6581 27.0408 11.7761 27.0287Z" fill="#E45053"/>
<path d="M28.1081 17.6187L28.1011 17.5967L28.0811 17.5947L28.1081 17.6187Z" fill="#E45053"/>
<path d="M28.0988 18.0765C27.8228 17.5925 27.9258 17.5855 28.0808 17.5955L27.1348 16.7695L28.0988 18.0765Z" fill="#E45053"/>
<path d="M19.1746 27.5091C19.3406 27.5191 19.5116 27.5241 19.6876 27.5221C19.7766 28.3781 19.3526 28.5261 19.9756 28.6481C19.1706 27.5061 21.0596 27.2561 19.9636 26.4451L20.2756 26.5291C20.2366 26.5511 20.2906 26.6111 20.2516 26.6331C20.9266 26.8601 19.6776 25.8071 20.0756 25.6621C20.2406 25.6361 20.4476 25.7031 20.5046 25.8781L20.4576 25.4351C20.5346 25.3911 20.6926 25.5671 20.6166 25.6111L20.8396 25.2101L20.8666 25.2401C20.7546 25.0481 20.6136 24.7181 20.5596 24.5711C20.7796 24.6221 20.6256 24.7111 20.7696 24.8051L20.6996 24.4011C21.0246 24.5691 21.1326 24.9511 20.9786 25.0401C22.1256 25.8011 20.8706 24.6571 21.7896 24.8391L21.7546 25.1261C22.4186 25.5461 22.3396 25.2231 22.8686 25.3631C22.6446 25.2351 21.6276 24.9131 21.5656 24.4871C21.6926 24.5021 21.7956 24.4641 21.6966 24.1711C22.0486 24.5021 22.0586 24.3181 22.1606 24.1711L22.6156 24.6211C22.6126 24.3551 22.3666 24.1421 22.2356 23.8611C22.4266 23.7501 22.8156 24.0611 23.1516 24.3131C23.4586 24.1371 22.4166 23.9351 22.6056 23.5591C22.9796 23.5251 22.9286 23.2021 22.8896 22.6921C23.1866 22.7031 23.1466 22.9891 23.3276 23.0651L23.0836 22.5841C23.1226 22.5611 23.2256 22.6811 23.2766 22.7411C23.2386 22.4971 22.8266 22.2871 22.8646 21.9991C22.4036 21.4621 23.9356 22.3721 23.5636 21.6071C23.7436 21.6831 23.8196 21.9051 24.0126 22.0631C23.9126 21.4121 23.9756 21.5521 23.7006 20.8261L24.1956 20.9241C23.7096 20.7311 23.4886 20.1471 23.3186 19.6561C23.1026 19.5441 22.9146 19.4461 22.8156 19.4081L22.8306 18.9051C22.9366 18.9471 23.0666 19.1281 23.2146 19.3591C23.1926 19.3051 23.1716 19.2511 23.1526 19.2031C23.4126 19.2771 23.6266 19.5851 23.8146 19.9031C23.6946 19.8441 23.5676 19.7811 23.4416 19.7191C23.6546 20.0571 23.9006 20.4191 24.1806 20.6691C24.1446 20.6001 24.1316 20.5231 24.1416 20.4621C24.1996 20.5531 24.2566 20.6301 24.3096 20.6671C24.3666 20.7061 24.2926 20.5801 24.2186 20.4221L24.7836 20.8651L24.5966 20.6521L25.2476 20.6291C24.9796 19.8821 24.4386 18.9211 24.6196 18.3291C24.8926 18.7951 25.2016 18.9561 25.6326 19.4001C25.0636 19.0381 25.5316 19.8931 25.2406 19.9981C25.3926 19.9421 25.5786 20.1741 25.6256 20.2741L25.5566 19.4981C25.9056 19.8651 25.9006 19.6931 26.1406 19.7501C25.3646 19.1081 25.9366 19.0151 25.8656 18.6541C26.1116 18.8841 26.3176 19.1631 26.0836 19.2791C26.8086 19.6241 25.5096 18.1941 26.1516 18.4611C26.1146 18.5091 26.0546 18.4951 26.1576 18.6341C26.0486 18.3221 26.4616 18.2471 26.6086 18.5141L26.5706 18.5611C26.9396 18.3631 27.4486 17.7091 26.9026 17.0581C26.9816 17.1341 27.5776 17.8301 27.6796 17.9711L26.2116 15.4131C26.6726 15.9831 28.0546 17.0681 28.1006 17.5961C28.2416 17.6041 28.4106 17.6101 28.3776 17.2851C28.2586 17.2551 27.5276 16.6361 27.5466 16.5261C28.2866 16.9431 27.9706 16.7211 28.6686 17.0131C28.4896 16.9671 27.7756 16.0651 27.9136 15.9831C28.0146 16.1241 28.7036 16.7921 28.7456 16.9171L28.2476 15.8361C28.3176 16.0501 28.8926 16.5381 29.1736 16.7091C28.9926 16.5771 29.4276 16.4941 29.4266 16.3441L29.1276 16.2661C29.5616 16.0931 28.3546 14.8231 28.7116 14.5691C28.8326 14.7741 29.5976 15.6981 29.8546 15.6511C29.5326 15.1631 28.2846 13.3261 28.2656 12.7351L28.5436 12.9251L28.5046 12.4471C28.9586 13.2101 29.8276 14.8961 30.1106 15.6031C30.4076 15.6821 30.4086 15.8551 30.5656 15.6681C30.8396 15.8341 30.7896 16.1001 30.7496 16.1621L31.2966 15.9211C30.8196 15.4471 31.1526 15.1321 30.7556 14.7361L30.7826 15.6671C30.3056 15.1951 29.7396 14.0281 30.1166 13.8381C30.3746 13.9651 30.8736 14.7681 31.0326 14.9261C30.9136 14.7211 31.0136 14.3451 31.1516 14.4401L31.2706 14.8191C31.6066 14.8541 30.9346 13.9171 31.5676 14.2081C31.6656 14.1771 32.3576 14.6581 32.0996 14.3551C31.4706 13.8911 29.8426 12.1641 29.5286 11.6711C29.5876 11.6861 30.3876 11.8771 30.7216 12.0851C31.2406 12.4261 31.5186 13.3001 31.9636 13.5931C31.8436 13.4541 31.7526 13.2291 31.7296 13.1521C31.9076 13.2021 32.0836 13.5991 32.1836 13.3951C31.7506 12.8671 32.5406 13.1461 31.8696 12.9011C31.8916 12.6161 32.1266 12.8551 32.2866 12.6691C31.9326 12.3941 31.4436 11.4111 31.4706 11.1271C31.5776 11.2641 31.7636 11.4001 31.8496 11.4611C32.2096 11.2211 32.5876 11.2991 32.8876 11.0371C33.0256 11.1361 33.3006 11.1571 33.4356 11.4311C33.3976 11.3031 33.2836 11.0951 33.3636 11.0011C33.9316 11.2831 33.2206 11.2521 33.8266 11.6601C33.5746 11.3541 33.6996 11.0411 33.6656 10.7391C33.2196 10.3171 33.2866 10.9211 33.3206 11.2221C32.7586 10.5921 32.3986 9.72807 32.4536 9.15607C32.5656 8.77907 32.9236 9.46907 32.8876 9.34107C33.4556 9.04107 32.3166 7.88307 33.1106 7.99807C33.6196 8.26707 33.8216 8.79707 34.1106 9.05907C34.0416 9.39007 33.5736 9.07607 33.4496 9.21307L33.7866 9.25507C33.8396 9.44607 33.7936 9.66707 33.6166 9.61507C34.0656 9.86507 34.4706 8.99207 35.1246 9.01207C35.0706 8.82007 35.0596 8.58207 34.8656 8.46407L34.8006 8.62107C34.4116 8.38607 34.6246 7.97907 34.3466 7.95307C34.3006 7.58707 34.1636 7.07507 34.5436 7.07307L34.9846 7.50307C34.8626 7.37107 34.6026 7.34907 34.6626 7.54307C34.5776 7.25807 35.5396 7.88507 35.1176 7.19007L34.6866 6.99907C34.6426 6.63207 34.4146 5.97107 34.7356 5.95107C34.2536 5.56607 34.7356 6.04207 34.1366 5.62207C34.8296 6.18907 33.6106 6.02207 34.4076 6.56007C33.7296 6.05807 33.9336 6.50607 33.2896 6.13407C33.4266 6.28207 33.6076 6.37107 33.3786 6.43607C33.4096 6.48707 33.4406 6.55807 33.4586 6.60107L33.4376 6.60007L33.4626 6.61007C33.4756 6.63907 33.4786 6.64407 33.4716 6.61307C33.5676 6.64607 33.6696 6.70007 33.7556 6.77407C33.9776 7.19507 33.7106 7.41007 33.7806 7.66807C33.6216 7.67907 33.6686 7.45707 33.4746 7.34007L33.5806 7.72507C33.2726 7.39707 32.8346 7.38707 32.8886 6.98907L32.6706 7.15307C32.3846 7.06907 32.1526 7.13907 32.1746 7.37107C32.0136 7.38207 32.2586 7.95807 32.1106 7.62007L31.9726 8.11007L31.8956 8.02807C31.5386 8.26107 31.7426 9.15907 30.8446 8.87407C30.8136 9.05307 30.7976 9.25407 30.5356 9.31707L30.2416 9.05907C30.1966 9.28107 29.5736 9.13507 29.7866 9.48807C28.9366 8.84107 28.9786 9.91507 28.6166 9.99407L28.9506 10.3771C28.7686 10.5041 28.7096 10.7541 28.6456 11.0881L28.9616 11.4071C29.0386 11.8371 28.2996 11.5801 28.0576 11.8681C27.9596 11.7251 28.0586 11.6931 28.1786 11.7231C27.1626 11.2861 27.9966 12.9041 27.1986 12.6411C27.2366 12.8291 27.1456 12.8381 27.0176 12.8041C27.0236 12.7971 27.0236 12.7851 27.0196 12.7701C27.0076 12.7731 26.9966 12.7831 26.9856 12.7941C26.9006 12.7681 26.8056 12.7341 26.7196 12.7161C26.8256 12.7661 26.9166 12.8041 26.9706 12.8101C26.9206 12.8701 26.8726 12.9911 26.8656 13.1521L26.4996 12.8351C26.4966 12.8461 26.4906 12.8511 26.4896 12.8631C26.2846 12.8121 26.5796 13.0911 26.8726 13.3131C26.8846 13.4111 26.9116 13.5161 26.9606 13.6291C26.3596 13.1281 26.9206 14.0241 26.2596 13.5101C26.4826 13.8571 26.0516 14.1321 26.5956 14.7891C26.5166 14.7121 26.4556 14.6971 26.4956 14.6491C26.3356 14.6671 26.1766 14.6861 26.2596 14.9391L25.7966 14.5351L26.1656 15.3221C25.7846 15.1711 25.5836 15.0641 25.3786 14.6071C25.5866 15.4121 25.3286 15.0341 25.5786 15.7891L25.3156 15.4931C25.2366 15.5901 25.4626 16.1071 25.1826 15.9251C24.4596 15.5811 24.1336 16.8111 23.1346 16.8131C24.0546 17.5441 22.5296 16.6751 23.1476 17.3361C22.9236 17.1701 22.7436 17.1311 22.6566 16.8791C22.5916 17.3291 21.9606 16.9591 22.3236 17.6751C22.0976 17.5091 22.0916 17.3341 21.9496 17.2451C21.9716 17.3081 22.0376 17.4961 21.8946 17.4071C21.7526 17.3181 21.7686 17.2061 21.7236 17.0801C21.4936 17.3781 22.0706 18.0031 22.6176 18.5841C22.2176 18.4511 22.1886 18.5551 22.4656 19.0191C22.2346 18.8821 21.9626 18.7681 22.0586 18.5381C21.9406 18.6031 21.2276 18.8321 21.6746 19.2901C21.5306 19.2051 21.5156 19.3871 21.5436 19.4631C21.3146 19.6451 21.2556 19.6231 21.1006 19.8701L21.2306 19.8861C21.7046 20.5051 21.1886 20.1761 21.0956 20.4051L21.0426 20.3461C20.2766 20.3371 21.0766 20.6941 20.2576 20.6271L20.6226 20.9391C21.3336 21.6891 19.8626 20.8461 19.9406 21.3401L20.2136 21.4501C20.3556 21.8131 18.8816 20.8161 18.6736 20.8491C18.5836 20.8131 18.6086 20.7081 18.5956 20.6251C17.8546 20.5231 19.0116 21.0991 18.8946 21.4351C18.6076 21.2451 18.3226 20.7861 18.1266 20.9021C17.8516 20.7931 18.4906 22.1171 17.8126 21.8881C18.0486 22.0191 18.2826 22.1501 18.3226 22.3941C18.2316 22.6231 17.1746 22.1751 17.6356 22.8891C17.5636 22.8621 17.5056 22.8241 17.4576 22.7811C17.4936 23.0551 17.3276 23.4411 17.5836 23.8221C16.9256 23.3141 16.8696 23.6701 16.8816 23.9781C16.9446 24.2311 16.9756 24.5411 16.4906 23.9401L16.3506 24.2151L16.2696 24.0731C16.1076 24.1021 16.2526 24.4871 16.3616 24.9121C16.2806 24.8471 16.2426 24.6761 16.2086 24.5951C15.8786 24.5021 15.9536 24.5151 15.9806 25.6181L15.8266 25.0521C15.8426 25.2481 15.7146 25.1011 15.6066 24.9861C15.4936 24.8771 15.4116 24.7881 15.3476 25.2931C15.3456 25.2111 15.3436 25.0701 15.3506 24.9571C15.2766 25.4751 15.1456 25.1111 15.0936 24.8841C15.0316 24.6701 15.0106 24.6381 14.7956 26.2291L14.6746 26.7031C14.6346 26.8491 14.6036 26.9031 14.5656 27.0041C14.5916 27.1081 14.5926 27.2751 14.5916 27.3561C14.5886 27.4701 14.5656 27.6331 14.5326 27.8171C14.4566 28.2601 14.3476 28.5781 14.3536 28.9701C14.2366 28.9741 14.2946 27.6581 14.4086 27.6771L14.3986 27.8551C14.6686 26.3171 14.2896 26.9091 14.4966 25.9071C14.3646 25.7001 14.2856 25.2841 14.2426 24.9161C14.1966 24.5411 14.1876 24.2141 14.1126 24.0251L13.6706 24.7671L13.6106 24.5571C13.7016 24.3601 13.9716 24.0051 13.9976 24.1221C14.2516 23.7091 13.6836 24.2711 13.5616 24.3831C13.6656 23.9351 14.2006 23.7581 14.1766 23.6721L14.1056 23.6541L14.0526 23.7381C13.8116 23.9231 13.5736 24.1531 13.5316 23.9911C13.6006 23.8051 13.8576 23.6381 13.8646 23.5901C13.9046 23.5551 13.9196 23.5311 13.8606 23.5361L13.8346 23.3481C13.6836 23.4771 13.5366 23.6121 13.3936 23.7541C13.1146 23.8341 13.3166 23.5371 12.8216 24.0071C13.6636 23.4371 12.5486 22.6761 12.7526 22.3871C12.2696 22.3671 12.1696 22.1551 12.0826 21.8731C12.0086 21.9921 11.4496 22.3261 11.4066 22.0661C12.6416 21.5381 11.7156 21.3921 12.4816 20.7731C11.9946 21.2261 12.0166 20.2101 11.3376 20.8761C11.3386 20.6411 11.7786 20.6371 11.9876 20.3521C11.2986 20.1451 11.7886 19.2211 11.3516 18.7531C11.1916 18.8241 10.9986 19.0381 10.7056 19.0401L11.3406 18.3501C11.2086 18.2811 10.3856 18.7121 10.8276 18.2371C10.7106 18.3321 10.5336 18.4751 10.4456 18.4281C10.6606 16.9641 8.69956 16.5531 9.57656 14.7301C9.34856 15.0331 9.26756 14.9491 9.19956 14.8421C9.16356 14.9531 8.81156 15.0381 8.60656 15.1611L8.96256 14.4031C8.33156 14.6211 8.67256 13.9341 8.08556 14.1741L8.26056 14.2671C7.49756 14.4151 6.92056 15.2911 6.05256 15.6991C6.91856 15.5281 5.22356 16.8381 6.48556 16.6391C6.35156 16.8061 6.17756 16.7131 6.00056 16.8561C6.41256 16.7581 6.54356 16.8281 6.48156 17.1121L6.37956 17.1351C6.75656 17.6531 6.51956 18.0781 6.60256 18.8331L7.00056 18.5711C7.01356 18.7361 6.89556 18.8321 6.82256 18.9501C7.54156 18.7791 6.66356 18.5501 7.44156 18.3311C6.67556 18.9501 7.91856 19.2961 7.00556 19.9171C7.10656 20.1281 7.46256 19.6061 7.56356 19.8181L7.32756 20.0081L7.69456 19.8871C7.70856 20.0531 7.41356 20.2911 7.19356 20.4101C7.20256 20.3631 7.08256 20.3471 7.04456 20.3221C6.82456 20.6581 7.40756 20.7691 7.33656 20.8811L7.39656 20.5971C7.93556 21.0421 7.94456 21.9161 8.76356 22.1931L8.94056 22.0491C9.52456 22.2821 8.89456 22.4981 9.30156 22.8731L9.24456 22.8811C9.49056 22.8721 9.65356 22.9441 9.69556 23.0821C9.40256 23.0851 9.35456 23.5331 9.01856 23.5121C9.64756 23.7671 9.44456 23.5791 10.3386 23.5031L10.0436 23.7411C10.3946 23.6911 10.5566 23.6191 10.7606 23.8061C10.3806 23.7621 10.3326 24.2111 9.84956 24.1901C9.61156 24.6171 9.88656 24.7041 10.1016 24.7791C10.2106 24.8171 10.3016 24.8491 10.3116 24.9261C10.3326 25.0261 10.2666 25.1611 10.0526 25.3961C10.5816 25.3021 10.6226 25.0701 10.5806 24.8951C10.5326 24.7111 10.4316 24.6441 10.5556 24.6451C10.7996 24.3841 11.3316 24.4761 11.3376 24.7151C11.4016 24.8911 10.3936 25.7541 10.7246 26.3581C10.6986 26.2971 10.6356 26.3451 10.6096 26.2831C10.5256 26.6941 11.0956 26.4561 10.9186 27.0451C11.4406 26.7011 11.0756 27.4301 11.6456 26.8061L11.2656 26.4641C11.5756 26.6151 12.3186 26.0351 12.2196 26.8291C12.1026 26.9491 11.9006 27.0171 11.7756 27.0291C11.6906 27.3751 12.0036 27.1351 11.9196 27.4981C11.3946 28.2121 11.5016 27.0591 10.9116 27.2321C10.7666 27.6831 11.6296 27.3751 10.9606 27.9531C11.3936 27.6001 11.4376 27.7621 11.4816 27.9941C11.5216 28.2201 11.5666 28.5241 11.9116 28.2861L11.6186 28.7541C11.6976 28.7441 11.8946 28.6371 11.9456 28.7641C11.7946 28.9191 11.6396 29.0661 11.4806 29.2061C11.9506 28.9731 11.5796 30.4091 11.9176 30.4431C11.5386 29.7331 12.1296 29.6021 12.1686 28.9171C12.8796 28.9131 11.7746 30.8731 12.4176 31.6331C12.3146 31.5771 12.2816 30.7381 12.4856 30.6561C12.5346 30.9651 12.5826 31.4611 12.5466 31.9361C12.9266 32.4651 12.6856 31.1361 12.9406 30.9951C12.8296 32.0481 13.1866 30.9581 13.3686 30.9081L13.2076 31.6531C13.4676 32.8421 13.6116 30.2351 13.7896 31.4051C13.6896 31.7001 13.5856 31.9851 13.4756 32.2601L13.6886 32.2971L13.5076 33.1501C13.6976 32.9501 13.7696 33.0021 13.8456 33.1861C13.9066 33.1471 13.9696 33.1521 14.0596 33.1361C14.0636 32.6181 14.2606 31.5841 14.4616 31.3331C14.5666 31.6481 14.3146 32.1931 14.6346 31.7261C14.5366 32.2941 14.3936 33.0291 14.3146 32.4461C14.2766 32.7281 14.1936 33.0421 14.1506 33.3251C14.2826 33.6741 14.6056 32.9221 14.7286 32.7771C14.6806 32.8041 14.6236 32.8291 14.6006 32.7511C14.7906 32.1991 14.9636 31.6661 15.1186 31.1541C15.1866 31.3501 15.1296 31.6341 15.0646 31.9231C15.1656 31.7301 15.2346 31.3171 15.3706 31.1001C15.3416 31.7251 15.3646 32.3111 15.1346 32.8521L15.6236 31.6391C15.6626 31.8521 15.9166 32.0141 15.8646 32.2921C16.2086 32.2511 16.4506 30.4751 16.8636 30.4741C16.8636 30.3591 16.8826 30.2271 16.9426 30.0751C17.2846 29.8261 17.7966 29.9751 17.9826 28.9581C18.1586 29.1131 18.3426 29.2591 18.5346 29.3951C18.7816 28.8781 17.8236 28.8611 18.1986 28.0421C18.4226 27.4541 18.6396 28.4491 18.8746 28.4791C18.8946 27.9241 18.7286 27.0261 19.4216 27.1161C19.3996 27.3371 19.2446 27.3541 19.1746 27.5091ZM21.5546 24.4851C21.5826 24.6031 21.7196 24.9131 21.4796 24.7521C21.1296 24.3191 21.3616 24.4581 21.5546 24.4851ZM24.3336 19.9501C24.4116 20.0981 24.3016 20.0961 24.1116 20.0281C24.1276 19.9561 24.1906 19.9191 24.3336 19.9501ZM32.6986 7.50507L32.7086 7.52707C32.4716 7.48507 32.5606 7.50507 32.6986 7.50507ZM33.0716 7.45707C33.0516 7.38607 33.0056 7.33707 32.9516 7.29507C33.0156 7.40107 32.9676 7.45307 32.8856 7.48007C32.9846 7.56107 33.0726 7.60007 33.0716 7.45707ZM13.7186 23.6951L13.6346 23.8081C13.4926 23.8361 13.6006 23.7711 13.7186 23.6951Z" fill="#E45053"/>
<path d="M24.3877 20.8329C24.3167 20.7889 24.2487 20.7289 24.1807 20.6689C24.2207 20.7439 24.2867 20.8099 24.3877 20.8329Z" fill="#E45053"/>
<path d="M16.8773 30.4668C16.8723 30.4668 16.8643 30.4738 16.8643 30.4738C16.8643 30.5168 16.8683 30.5568 16.8733 30.5938L16.8773 30.4668Z" fill="#E45053"/>
<path d="M32.2209 13.6948C32.1279 13.6858 32.0419 13.6448 31.9639 13.5928C32.0409 13.6828 32.1289 13.7368 32.2209 13.6948Z" fill="#E45053"/>
<path d="M33.7898 5.75391L33.7188 5.97891C33.7768 5.89791 33.8717 5.95591 33.9597 5.98191C33.8827 5.89991 33.7467 5.80091 33.7898 5.75391Z" fill="#E45053"/>
<path d="M37.0395 6.90584C37.0235 6.84284 37.0825 6.86184 37.0655 6.79884L36.9155 6.63184C36.8295 6.72184 36.8805 6.91584 37.0395 6.90584Z" fill="#E45053"/>
<path d="M34.9726 6.85167C35.2486 7.14967 35.2536 6.96467 35.3106 6.81667C35.3056 6.82267 35.3016 6.83067 35.2926 6.83267C34.9546 6.37367 34.9636 6.61367 34.9726 6.85167Z" fill="#E45053"/>
<path d="M35.3271 6.78559C35.3471 6.74359 35.3751 6.70659 35.4181 6.69459C35.2831 6.51059 35.3481 6.69159 35.3271 6.78559Z" fill="#E45053"/>
<path d="M33.1942 6.99424C33.3132 7.02924 32.8862 6.57524 33.0222 6.67524C32.7402 6.23624 33.0982 7.43924 33.1942 6.99424Z" fill="#E45053"/>
<path d="M35.9275 7.79431L35.5645 7.44531L35.7675 7.80331L35.9275 7.79431Z" fill="#E45053"/>
<path d="M34.855 8.22653L35.114 8.18753C35.057 8.12553 35.046 8.07053 35.048 8.01953C34.933 8.09553 34.754 8.11753 34.855 8.22653Z" fill="#E45053"/>
<path d="M35.0479 8.01984C35.1089 7.98084 35.1529 7.92884 35.1299 7.83984C35.1039 7.86984 35.0519 7.93684 35.0479 8.01984Z" fill="#E45053"/>
<path d="M35.7952 8.10536L35.6772 8.06836L35.5342 8.14236L35.7952 8.10536Z" fill="#E45053"/>
<path d="M32.9962 9.72461L32.9102 9.99361C33.0062 10.1386 33.1252 10.1726 33.1472 10.0616C33.1102 9.93361 33.1342 9.82461 32.9962 9.72461Z" fill="#E45053"/>
<path d="M34.4521 10.2726C34.3341 10.2376 34.2571 10.1566 34.1221 10.0566L34.5251 10.5276L34.4521 10.2726Z" fill="#E45053"/>
<path d="M34.0195 10.8437C34.1145 10.9877 34.0875 11.4457 34.2875 11.2137C34.1925 11.0697 34.2795 10.8047 34.0195 10.8437Z" fill="#E45053"/>
<path d="M30.7985 12.6895L30.8385 12.6425L30.1445 11.8965L30.7985 12.6895Z" fill="#E45053"/>
<path d="M30.1237 16.6432C30.4977 16.6272 29.7417 16.1402 30.1367 16.1872C30.0207 15.9662 29.8137 16.1492 29.7207 15.9512C29.7707 16.2532 29.6067 16.2102 30.1237 16.6432Z" fill="#E45053"/>
<path d="M29.7207 15.9503C29.7137 15.9023 29.7007 15.8463 29.6787 15.7773C29.6857 15.8583 29.7017 15.9093 29.7207 15.9503Z" fill="#E45053"/>
<path d="M9.27488 13.8596L9.37988 13.5986L9.12988 13.8606L9.27488 13.8596Z" fill="#E45053"/>
<path d="M8.44078 13.8887L8.99878 13.5547L8.42578 13.7237C8.46978 13.7477 8.55678 13.7937 8.44078 13.8887Z" fill="#E45053"/>
<path d="M22.8522 25.0195L22.7482 24.9015C22.6062 24.8055 22.5682 24.8275 22.4902 24.8715L22.8522 25.0195Z" fill="#E45053"/>
<path d="M20.8151 26.4792L20.8531 26.4572L20.3691 26.1162L20.8151 26.4792Z" fill="#E45053"/>
<path d="M19.1113 29.4721C19.2383 29.3661 19.3003 29.0991 19.4253 28.9961C19.2323 29.3731 18.7063 28.8261 19.1113 29.4721Z" fill="#E45053"/>
</g>
</svg>
