<svg width="795" height="208" viewBox="0 0 795 208" fill="none" xmlns="http://www.w3.org/2000/svg">
<path d="M10.9355 11.5482H0V1.43747H10.9355V11.5482ZM17.8665 19.067V22.037H2.52135V13.4563H17.512V16.4262H6.31606V19.067H17.8665ZM7.21136 4.40552H3.74586V8.57828H7.21136V4.40552ZM17.418 12.4905H13.5997V0.164062H17.418V12.4905Z" fill="#1A1311"/>
<path d="M40.6056 11.6423H20.5723V8.69592H40.6056V11.6423ZM22.4588 4.1705C22.4588 1.74323 25.4757 0.422852 30.5889 0.422852C35.704 0.422852 38.7209 1.74323 38.7209 4.1705C38.7209 6.59781 35.704 7.91818 30.5889 7.91818C25.4757 7.91818 22.4588 6.59781 22.4588 4.1705ZM26.5826 19.3492H38.7915V22.1781H22.8114V16.0267H34.4795V15.343H22.7879V12.5612H38.2506V18.6185H26.5826V19.3492ZM26.418 4.1705C26.418 4.9248 27.6208 5.15982 30.5889 5.15982C33.5588 5.15982 34.7616 4.9248 34.7616 4.1705C34.7616 3.43979 33.5588 3.18109 30.5889 3.18109C27.6208 3.18109 26.418 3.43979 26.418 4.1705Z" fill="#1A1311"/>
<path d="M53.4945 12.7962H42.7471V1.86072H53.4945V12.7962ZM49.0866 18.9477H60.4707V21.9411H45.2684V14.6357H49.0866V18.9477ZM49.7468 4.83069H46.4948V9.82635H49.7468V4.83069ZM62.5688 6.33911V9.42657H59.8105V16.2382H55.9923V0.140625H59.8105V6.33911H62.5688Z" fill="#1A1311"/>
<path d="M76.9173 5.20874H63.9072V2.26239H68.5032V0.117188H72.3214V2.26239H76.9173V5.20874ZM70.4132 14.4712C67.2081 14.4712 64.8966 12.6806 64.8966 10.1122C64.8966 7.58902 67.2081 5.77493 70.4132 5.77493C73.6182 5.77493 75.9279 7.58902 75.9279 10.1122C75.9279 12.6806 73.6182 14.4712 70.4132 14.4712ZM70.7659 18.9496H82.1499V21.9431H66.9477V15.4841H70.7659V18.9496ZM70.4132 11.5972C71.4966 11.5972 72.2743 11.1251 72.2743 10.1122C72.2743 9.121 71.4966 8.65079 70.4132 8.65079C69.3279 8.65079 68.5502 9.121 68.5502 10.1122C68.5502 11.1251 69.3279 11.5972 70.4132 11.5972ZM84.248 6.62317V9.73416H81.4897V16.6869H77.6715V0.142578H81.4897V6.62317H84.248Z" fill="#1A1311"/>
<path d="M103.876 13.6208C101.52 12.8901 99.9622 11.4286 99.0199 9.61447C98.054 11.6185 96.428 13.1975 93.8831 14.0224L91.9731 11.0054C95.7443 9.80258 96.9706 7.04608 97.0177 4.47589H92.9625V1.48248H104.913V4.47589H100.906C100.953 6.87973 102.131 9.47339 105.714 10.6509L103.876 13.6208ZM111.372 18.9474V21.9409H96.0265V14.9176H99.8465V18.9474H111.372ZM107.081 5.65524V0.162109H110.9V16.238H107.081V8.69565H104.158V5.65524H107.081Z" fill="#1A1311"/>
<path d="M133.922 10.8883V13.8582H126.145V17.1809H122.327V13.8582H113.889V10.8883H133.922ZM119.9 18.9498H131.732V21.9432H116.081V15.4607H119.9V18.9498ZM131.401 9.47388H116.269V1.0127H131.401V9.47388ZM127.654 3.95911H120.017V6.5275H127.654V3.95911Z" fill="#1A1311"/>
<path d="M152.986 14.0225C153.694 13.9519 154.375 13.8814 155.061 13.7874L155.249 16.5457C150.863 17.3469 145.963 17.4409 142.261 17.4409L141.886 14.4005H144.1V4.99521H142.474V2.00177H154.612V4.99521H152.986V14.0225ZM147.775 14.33C148.271 14.3064 148.815 14.2829 149.307 14.2594V4.99521H147.775V14.33ZM162.65 11.3835H159.68V22.272H155.86V0.164062H159.68V8.27255H162.65V11.3835Z" fill="#1A1311"/>
<path d="M183.906 19.8922H163.871V16.8518H183.906V19.8922ZM181.855 14.2111H166.087V1.62598H181.714V4.61758H169.976V6.43356H181.172V9.33292H169.976V11.2411H181.855V14.2111Z" fill="#1A1311"/>
<path d="M190.43 14.0696C192.952 13.999 195.663 13.7404 198.443 13.2212L198.821 16.3087C195.262 17.0395 191.725 17.2276 188.593 17.2276H186.636V2.45035H190.43V14.0696ZM204.312 0.140625V22.3661H200.494V9.7811H195.026V6.73883H200.494V0.140625H204.312Z" fill="#1A1311"/>
<path d="M227.241 19.7276H207.231V16.6636H227.241V19.7276ZM225.12 13.3627C221.09 12.632 218.498 10.6062 217.105 8.03607C215.693 10.6062 213.122 12.632 209.116 13.3627L207.537 10.2047C213.099 9.26233 215.079 5.70282 215.079 2.85043V1.29492H219.156V2.85043C219.156 5.77332 221.066 9.26233 226.697 10.2047L225.12 13.3627Z" fill="#1A1311"/>
<path d="M248.92 12.5868H228.911V9.87549H248.92V12.5868ZM234.872 19.6317H247.177V22.153H231.101V16.5442H242.84V15.8606H231.078V13.341H246.611V18.8775H234.872V19.6317ZM242.793 2.89749H231.313V0.37793H246.564V5.9379H235.084V6.66861H246.965V9.19177H231.313V3.60464H242.793V2.89749Z" fill="#1A1311"/>
<path d="M277.174 11.3586V14.305H257.118V11.3586H265.25V10.4633H259.521V0.658203H274.982V3.51053H263.316V4.19418H274.512V6.92908H263.316V7.61273H275.196V10.4633H269.068V11.3586H277.174ZM274.865 18.6187C274.865 20.999 271.989 22.3194 267.134 22.3194C262.254 22.3194 259.38 20.999 259.38 18.6187C259.38 16.2384 262.254 14.9417 267.134 14.9417C271.989 14.9417 274.865 16.2384 274.865 18.6187ZM271.023 18.6187C271.023 17.9351 269.916 17.7234 267.134 17.7234C264.331 17.7234 263.222 17.9351 263.222 18.6187C263.222 19.326 264.331 19.5376 267.111 19.5376C269.916 19.5376 271.023 19.326 271.023 18.6187Z" fill="#1A1311"/>
<path d="M285.963 3.22806H289.215V6.22153H278.844V3.22806H282.215V0.704956H285.963V3.22806ZM288.98 12.326C288.98 15.484 286.929 17.6996 284.076 17.6996C281.226 17.6996 279.175 15.484 279.175 12.326C279.175 9.16794 281.226 6.95227 284.076 6.95227C286.929 6.95227 288.98 9.16794 288.98 12.326ZM285.632 12.326C285.632 10.8175 284.997 10.0868 284.076 10.0868C283.158 10.0868 282.521 10.8175 282.521 12.326C282.521 13.8579 283.158 14.5652 284.076 14.5652C284.997 14.5652 285.632 13.8579 285.632 12.326ZM298.005 0.140625V22.2251H294.4V11.9968H293.339V21.4003H289.805V0.493317H293.339V8.95627H294.4V0.140625H298.005Z" fill="#1A1311"/>
<path d="M320.11 4.83115H307.102V1.88651H311.698V0H315.514V1.88651H320.11V4.83115ZM313.608 13.1042C310.375 13.1042 308.091 11.4781 308.091 9.14487C308.091 6.81168 310.375 5.20911 313.608 5.20911C316.836 5.20911 319.121 6.81168 319.121 9.14487C319.121 11.4781 316.836 13.1042 313.608 13.1042ZM320.913 13.929H324.684V22.0375H310.023V13.929H313.794V15.2258H320.913V13.929ZM313.608 10.3459C314.715 10.3459 315.469 9.99323 315.469 9.14487C315.469 8.3201 314.715 7.94214 313.608 7.94214C312.497 7.94214 311.743 8.3201 311.743 9.14487C311.743 9.99323 312.497 10.3459 313.608 10.3459ZM320.913 18.0781H313.794V19.1146H320.913V18.0781ZM327.441 8.36713H324.684V13.1512H320.864V0.141083H324.684V5.27969H327.441V8.36713Z" fill="#1A1311"/>
<path d="M333.849 14.189C337.007 14.1402 339.575 13.9756 342.332 13.4818L342.71 16.544C339.364 17.1572 336.133 17.2766 331.986 17.2766H329.958V7.84772H336.605V4.90131H329.937V1.90787H340.496V10.8176H333.849V14.189ZM347.376 22.3427H343.558V0.117188H347.376V22.3427Z" fill="#1A1311"/>
<path d="M362.128 12.8215C359.77 12.0908 358.238 10.6294 357.295 8.81519C356.328 10.8175 354.678 12.3964 352.157 13.2212L350.249 10.2043C353.736 9.09732 355.056 6.62302 355.27 4.19571H351.238V1.2023H363.186V4.19571H359.203C359.415 6.4566 360.69 8.79172 363.989 9.87509L362.128 12.8215ZM353.902 14.1653H369.175V22.2955H365.357V17.1588H353.902V14.1653ZM369.175 0.164062V13.2917H365.357V8.22552H362.645V5.18509H365.357V0.164062H369.175Z" fill="#1A1311"/>
<path d="M378.551 12.892C375.109 12.892 372.398 10.4647 372.398 7.18732C372.398 3.88828 375.109 1.4845 378.551 1.4845C381.991 1.4845 384.703 3.88828 384.703 7.18732C384.703 10.4647 381.991 12.892 378.551 12.892ZM391.209 18.9494V21.9429H375.652V14.377H379.47V18.9494H391.209ZM378.551 9.61462C379.919 9.61462 380.978 8.78989 380.978 7.18732C380.978 5.56134 379.919 4.76007 378.551 4.76007C377.184 4.76007 376.124 5.56134 376.124 7.18732C376.124 8.78989 377.184 9.61462 378.551 9.61462ZM390.69 15.909H386.873V0.164062H390.69V15.909Z" fill="#1A1311"/>
<path d="M420.475 8.81378V11.7602H400.442V8.81378H408.503V6.7645H412.32V8.81378H420.475ZM418.189 8.10657C414.326 7.65982 411.777 6.4335 410.41 4.66638C409.044 6.4335 406.497 7.65982 402.634 8.10657L401.361 5.23068C407.017 4.71341 408.454 2.59174 408.454 0.564209V0.352539H412.369V0.564209C412.369 2.59174 413.805 4.71341 419.461 5.23068L418.189 8.10657ZM406.452 19.3495H418.661V22.1784H402.681V16.0016H414.347V15.3179H402.656V12.5379H418.118V18.5953H406.452V19.3495Z" fill="#1A1311"/>
<path d="M442.157 16.2871H434.026V22.321H430.206V16.2871H422.145V13.2937H442.157V16.2871ZM436.029 3.72382H424.386V0.753906H439.917V7.77713H428.298V9.05042H440.484V12.0203H424.408V4.97357H436.029V3.72382Z" fill="#1A1311"/>
<path d="M455.116 14.0243C452.902 13.1742 451.437 11.6422 450.544 9.71054C449.601 11.7616 448.02 13.3406 445.618 14.2359L443.567 11.266C447.431 9.96915 448.588 6.90521 448.588 3.84125V1.41391H452.477V3.84125C452.477 6.74063 453.535 9.73401 457.189 11.0779L455.116 14.0243ZM462.964 18.9494V21.9429H447.623V15.0607H451.437V18.9494H462.964ZM458.676 9.92212H455.445V6.92874H458.676V5.81998H455.445V2.82831H458.676V0.164062H462.492V16.4516H458.676V9.92212Z" fill="#1A1311"/>
<path d="M485.517 11.6423H465.483V8.69592H485.517V11.6423ZM467.37 4.1705C467.37 1.74323 470.385 0.422852 475.5 0.422852C480.615 0.422852 483.632 1.74323 483.632 4.1705C483.632 6.59781 480.615 7.91818 475.5 7.91818C470.385 7.91818 467.37 6.59781 467.37 4.1705ZM471.494 19.3492H483.703V22.1781H467.723V16.0267H479.389V15.343H467.697V12.5612H483.16V18.6185H471.494V19.3492ZM471.327 4.1705C471.327 4.9248 472.53 5.15982 475.5 5.15982C478.468 5.15982 479.671 4.9248 479.671 4.1705C479.671 3.43979 478.468 3.18109 475.5 3.18109C472.53 3.18109 471.327 3.43979 471.327 4.1705Z" fill="#1A1311"/>
<path d="M504.793 0.422791H508.327V21.3297H504.793V15.4134L502.93 17.7467C501.114 16.6868 499.96 14.9903 499.206 12.9626C498.498 15.2018 497.297 17.11 495.458 18.2658L493.219 15.5075C496.567 13.3623 497.343 9.42657 497.343 5.79831V5.20865H494.163V2.16821H503.896V5.20865H501.043V5.79831C501.043 9.28549 501.752 12.8216 504.793 14.7768V10.5353H502.411V7.49487H504.793V0.422791ZM512.876 22.2251H509.269V0.140625H512.876V22.2251Z" fill="#1A1311"/>
<path d="M521.594 12.9156C518.175 12.9156 515.464 10.4883 515.464 7.21085C515.464 3.9118 518.175 1.50797 521.594 1.50797C525.034 1.50797 527.743 3.9118 527.743 7.21085C527.743 10.4883 525.034 12.9156 521.594 12.9156ZM522.277 18.9494H533.661V21.9429H518.459V14.471H522.277V18.9494ZM521.594 9.63995C522.961 9.63995 524.021 8.81519 524.021 7.21085C524.021 5.58481 522.961 4.7836 521.594 4.7836C520.25 4.7836 519.19 5.58481 519.19 7.21085C519.19 8.81519 520.25 9.63995 521.594 9.63995ZM535.758 6.29205V9.37949H533.001V16.1206H529.181V0.164062H533.001V6.29205H535.758Z" fill="#1A1311"/>
<path d="M545.347 3.27505H549.824V6.26849H537.027V3.27505H541.527V0.563843H545.347V3.27505ZM549.166 12.5845C549.166 15.7191 546.713 17.9583 543.437 17.9583C540.16 17.9583 537.711 15.7191 537.711 12.5845C537.711 9.45007 540.16 7.21085 543.437 7.21085C546.713 7.21085 549.166 9.45007 549.166 12.5845ZM545.536 12.5845C545.536 11.0526 544.685 10.2748 543.437 10.2748C542.211 10.2748 541.341 11.0526 541.341 12.5845C541.341 14.1166 542.211 14.8943 543.437 14.8943C544.685 14.8943 545.536 14.1166 545.536 12.5845ZM557.603 11.6657H554.68V22.2486H550.86V0.164062H554.68V8.55472H557.603V11.6657Z" fill="#1A1311"/>
<path d="M578.859 13.6685H558.824V10.675H578.859V13.6685ZM564.741 18.8305H576.808V21.8239H560.922V15.1769H564.741V18.8305ZM576.667 8.74332H561.134V0.916992H564.952V5.74991H576.667V8.74332Z" fill="#1A1311"/>
<path d="M607.137 15.131H598.934V22.2954H595.116V15.131H587.102V12.1376H607.137V15.131ZM587.952 8.2254C592.571 7.70636 594.387 5.84515 594.785 4.12323H588.822V1.15332H605.344V4.12323H599.477C599.878 5.84515 601.693 7.70636 606.312 8.2254L604.946 11.1953C600.938 10.6997 598.415 9.19122 597.118 7.1167C595.825 9.19122 593.325 10.6997 589.319 11.1953L587.952 8.2254Z" fill="#1A1311"/>
<path d="M620.615 12.3494C618.162 11.6187 616.583 10.2278 615.594 8.48422C614.603 10.3942 612.931 11.9479 610.361 12.7021L608.498 9.71054C612.412 8.55472 613.637 5.74945 613.637 3.22803V1.12991H617.527V3.22803C617.527 5.72592 618.681 8.29608 622.452 9.35599L620.615 12.3494ZM612.01 14.1653H627.283V22.2955H623.467V17.157H612.01V14.1653ZM627.283 13.2917H623.467V0.164062H627.283V13.2917Z" fill="#1A1311"/>
<path d="M639.467 15.6485C641.117 15.5544 642.766 15.4134 644.345 15.2253L644.628 17.9347C639.844 18.8554 634.823 18.8771 630.981 18.8771L630.532 15.8384C632.088 15.8384 633.857 15.8384 635.671 15.7896V14.2106C633.433 13.6698 631.97 12.1848 631.97 10.2278C631.97 7.75351 634.303 6.03336 637.604 6.03336C640.88 6.03336 643.213 7.75351 643.213 10.2278C643.213 12.1848 641.73 13.6933 639.467 14.2106V15.6485ZM644.204 5.3967H630.957V2.45029H635.671V0.281647H639.489V2.45029H644.204V5.3967ZM635.6 10.2278C635.6 11.1719 636.402 11.5952 637.604 11.5952C638.784 11.5952 639.583 11.1719 639.583 10.2278C639.583 9.30896 638.784 8.88577 637.604 8.88577C636.402 8.88577 635.6 9.30896 635.6 10.2278ZM649.153 22.2486H645.335V0.164062H649.153V22.2486Z" fill="#1A1311"/>
<path d="M660.674 4.54846C660.674 8.57828 661.734 12.5864 665.505 14.424L663.219 17.4409C661.028 16.334 659.612 14.4475 658.742 12.1143C657.822 14.6375 656.243 16.7102 653.862 17.8407L651.6 14.7532C655.584 12.9391 656.832 8.72113 656.832 4.54846V1.7666H660.674V4.54846ZM672.601 11.5482H669.629V22.272H665.812V0.164062H669.629V8.43719H672.601V11.5482Z" fill="#1A1311"/>
<path d="M685.042 14.4241C687.751 14.4005 690.133 14.283 692.819 13.8815L693.15 16.8984C689.828 17.3705 686.762 17.441 683.132 17.441H681.224V1.88605H691.664V4.92474H685.042V8.01218H691.452V10.9586H685.042V14.4241ZM700.881 11.3836H697.909V22.2721H694.093V0.140625H697.909V8.27261H700.881V11.3836Z" fill="#1A1311"/>
<path d="M706.911 13.7169C709.642 13.6463 712.588 13.3859 715.56 12.8216L715.962 15.9561C712.212 16.7338 708.49 16.9454 705.165 16.9454H703.114V2.21524H706.911V13.7169ZM720.791 22.2251H716.973V0.140625H720.791V22.2251Z" fill="#1A1311"/>
<path d="M736.297 6.26849C736.297 9.35599 733.633 11.5717 730.144 11.5717C726.656 11.5717 723.992 9.35599 723.992 6.26849C723.992 3.20453 726.656 0.988831 730.144 0.988831C733.633 0.988831 736.297 3.20453 736.297 6.26849ZM731.088 12.9391V14.6592H738.511V12.9391H742.282V22.037H727.317V12.9391H731.088ZM727.718 6.26849C727.718 7.72995 728.731 8.46066 730.144 8.46066C731.56 8.46066 732.573 7.72995 732.573 6.26849C732.573 4.83063 731.56 4.09982 730.144 4.09982C728.731 4.09982 727.718 4.83063 727.718 6.26849ZM731.088 19.0435H738.511V17.535H731.088V19.0435ZM742.282 12.0672H738.466V0.164062H742.282V12.0672Z" fill="#1A1311"/>
<path d="M750.269 13.7169C753.002 13.6463 755.949 13.3859 758.919 12.8216L759.32 15.9561C755.572 16.7338 751.848 16.9454 748.524 16.9454H746.475V2.21524H750.269V13.7169ZM764.151 22.2251H760.333V0.140625H764.151V22.2251Z" fill="#1A1311"/>
<path d="M771.714 13.9521C774.495 13.9286 776.944 13.7622 779.585 13.3154L779.94 16.4264C776.662 17.0161 773.53 17.1101 769.851 17.1101H767.919V2.11945H778.267V5.15988H771.714V13.9521ZM787.6 11.1233H784.628V22.3192H780.811V0.117188H784.628V8.0123H787.6V11.1233Z" fill="#1A1311"/>
<path d="M789.621 17.7472C789.621 16.2857 790.658 15.1553 792.121 15.1553C793.557 15.1553 794.619 16.2857 794.619 17.7472C794.619 19.2086 793.557 20.3644 792.121 20.3644C790.658 20.3644 789.621 19.2086 789.621 17.7472Z" fill="#1A1311"/>
<path d="M10.7003 57.7718H0.164551V48.0138H10.7003V57.7718ZM17.5825 65.7157V68.1666H2.73293V59.9875H17.2045V62.4636H5.82042V65.7157H17.5825ZM7.65987 50.4664H3.22852V55.3228H7.65987V50.4664ZM17.1122 58.9276H13.9777V46.7188H17.1122V58.9276Z" fill="#1A1311"/>
<path d="M40.3704 57.8894H20.7603V55.462H40.3704V57.8894ZM22.7173 50.7251C22.7173 48.3448 25.6149 47.0244 30.5653 47.0244C35.5393 47.0244 38.4368 48.3448 38.4368 50.7251C38.4368 53.1288 35.5393 54.4257 30.5653 54.4257C25.6149 54.4257 22.7173 53.1288 22.7173 50.7251ZM26.1104 65.9273H38.5562V68.2606H23.023V62.5576H34.9261V61.4019H22.9995V59.1157H37.9901V64.701H26.1104V65.9273ZM25.9458 50.7251C25.9458 51.7379 27.4308 52.1629 30.5653 52.1629C33.7233 52.1629 35.2083 51.7379 35.2083 50.7251C35.2083 49.7592 33.7233 49.3106 30.5653 49.3106C27.4308 49.3106 25.9458 49.7592 25.9458 50.7251Z" fill="#1A1311"/>
<path d="M53.4238 58.9746H43.0762V48.5094H53.4238V58.9746ZM48.6398 65.5728H60.306V68.049H45.5287V61.0022H48.6398V65.5728ZM50.3598 50.9602H46.1166V56.522H50.3598V50.9602ZM62.4041 52.9878V55.5326H59.5282V62.5577H56.4173V46.7188H59.5282V52.9878H62.4041Z" fill="#1A1311"/>
<path d="M76.8937 51.4323H64.1206V49.0068H68.9282V46.6953H72.0627V49.0068H76.9191L76.8937 51.4323ZM70.5072 60.5771C67.3962 60.5771 65.1805 58.8824 65.1805 56.3828C65.1805 53.932 67.3962 52.2119 70.5072 52.2119C73.6182 52.2119 75.8339 53.932 75.8339 56.3828C75.8339 58.8824 73.6182 60.5771 70.5072 60.5771ZM70.3191 65.5747H81.9853V68.049H67.2081V61.7565H70.3191V65.5747ZM70.5072 58.2204C71.8746 58.2204 72.864 57.5856 72.864 56.3828C72.864 55.2035 71.8746 54.5686 70.5072 54.5686C69.1163 54.5686 68.1504 55.2035 68.1504 56.3828C68.1504 57.5856 69.1163 58.2204 70.5072 58.2204ZM84.0834 53.3423V55.9107H81.2076V62.9593H78.0966V46.7188H81.2076V53.3423H84.0834Z" fill="#1A1311"/>
<path d="M103.97 59.7523C101.592 58.9746 99.9872 57.4191 99.0448 55.4639C98.079 57.609 96.3824 59.3291 93.8593 60.1774L92.2803 57.7031C95.8398 56.5491 97.3953 53.695 97.3953 50.962V50.6563H93.1285V48.182H104.797V50.6563H100.577V50.9385C100.577 53.5069 102.062 56.1711 105.478 57.325L103.97 59.7523ZM111.042 65.5746V68.049H96.2413V61.2374H99.3505V65.5746H111.042ZM107.435 52.3294V46.7188H110.546V62.5577H107.435V54.8507H104.042V52.3294H107.435Z" fill="#1A1311"/>
<path d="M133.711 57.4427V59.8936H125.72V63.5942H122.609V59.8936H114.054V57.4427H133.711ZM119.451 65.5747H131.542V68.0491H116.34V61.7566H119.451V65.5747ZM131.213 55.7227H116.483V47.6377H131.213V55.7227ZM128.149 50.0668H119.547V53.2719H128.149V50.0668Z" fill="#1A1311"/>
<path d="M152.75 60.577C153.6 60.5065 154.446 60.4594 155.249 60.3419L155.437 62.6046C151.03 63.3823 146.104 63.4764 142.404 63.4764L142.073 60.9297H144.5V51.2206H142.639V48.7209H154.613V51.2206H152.75V60.577ZM147.517 60.8592C148.248 60.8375 149.002 60.8121 149.756 60.7887V51.2206H147.517V60.8592ZM162.508 57.4896H159.35V68.4503H156.239V46.7422H159.35V54.9212H162.508V57.4896Z" fill="#1A1311"/>
<path d="M183.691 65.9274H164.036V63.4061H183.691V65.9274ZM181.595 60.3656H166.345V48.2979H181.428V50.7957H169.503V53.0837H180.934V55.4875H169.503V57.9148H181.595V60.3656Z" fill="#1A1311"/>
<path d="M189.911 60.7888C192.646 60.7183 195.426 60.5067 198.325 59.9424L198.68 62.4872C195.167 63.1944 191.868 63.3825 188.663 63.3825H186.824V49.0286H189.911V60.7888ZM203.936 46.6953V68.4975H200.823V55.9342H194.979V53.4129H200.823V46.6953H203.936Z" fill="#1A1311"/>
<path d="M227.051 65.7864H207.396V63.265H227.051V65.7864ZM225.049 59.5409C221.278 58.7866 218.498 56.6885 217.105 53.9303C215.716 56.6885 212.958 58.8102 209.187 59.5409L207.868 56.9255C212.746 56.1007 215.456 52.6587 215.456 49.5477V47.9922H218.78V49.5477C218.78 52.7293 221.468 56.1007 226.368 56.9255L225.049 59.5409Z" fill="#1A1311"/>
<path d="M248.73 58.7167H229.075V56.4775H248.73V58.7167ZM234.402 66.1397H246.989V68.2378H231.314V63.0052H243.31V61.8983H231.291V59.8001H246.397V64.9622H234.402V66.1397ZM243.265 49.1938H231.479V47.0957H246.327V52.2107H234.59V53.3412H246.705V55.4393H231.528V50.2537H243.265V49.1938Z" fill="#1A1311"/>
<path d="M276.965 57.915V60.3422H257.33V57.915H265.581V56.5711H259.782V47.2852H274.724V49.6419H262.87V50.7742H274.23V53.0351H262.87V54.2143H274.89V56.5711H268.692V57.915H276.965ZM274.653 64.8677C274.653 67.1774 271.897 68.4272 267.111 68.4272C262.352 68.4272 259.592 67.1774 259.592 64.8677C259.592 62.5345 262.352 61.3099 267.111 61.3099C271.897 61.3099 274.653 62.5345 274.653 64.8677ZM271.519 64.8677C271.519 63.9724 270.128 63.5943 267.111 63.5943C264.118 63.5943 262.729 63.9724 262.729 64.8677C262.729 65.763 264.118 66.1646 267.111 66.1646C270.128 66.1646 271.519 65.763 271.519 64.8677Z" fill="#1A1311"/>
<path d="M285.775 49.9962H289.382V52.4705H279.009V49.9962H282.709V47.3084H285.775V49.9962ZM289.004 58.5984C289.004 61.6154 287.023 63.7606 284.243 63.7606C281.461 63.7606 279.481 61.6154 279.481 58.5984C279.481 55.558 281.461 53.4129 284.243 53.4129C287.023 53.4129 289.004 55.558 289.004 58.5984ZM286.269 58.5984C286.269 56.9724 285.421 56.0048 284.243 56.0048C283.066 56.0048 282.216 56.9724 282.216 58.5984C282.216 60.2245 283.066 61.1668 284.243 61.1668C285.421 61.1668 286.269 60.2245 286.269 58.5984ZM297.653 46.6953V68.4018H294.707V58.0558H293.057V67.5064H290.158V47.1203H293.057V55.558H294.707V46.6953H297.653Z" fill="#1A1311"/>
<path d="M320.087 51.0548H307.288V48.6292H312.121V46.5547H315.255V48.6292H320.11L320.087 51.0548ZM313.7 59.3296C310.566 59.3296 308.373 57.7723 308.373 55.4879C308.373 53.1764 310.566 51.6462 313.7 51.6462C316.836 51.6462 319.027 53.1764 319.027 55.4879C319.027 57.7723 316.836 59.3296 313.7 59.3296ZM321.313 60.2484H324.4V68.1671H310.282V60.2484H313.371V61.898H321.313V60.2484ZM313.7 57.067C315.091 57.067 316.057 56.5243 316.057 55.4879C316.057 54.4497 315.091 53.9089 313.7 53.9089C312.311 53.9089 311.343 54.4497 311.343 55.4879C311.343 56.5243 312.311 57.067 313.7 57.067ZM321.313 64.2313H313.369V65.7632H321.313V64.2313ZM327.276 54.4732H324.4V59.4472H321.289V46.7428H324.4V51.9283H327.276V54.4732Z" fill="#1A1311"/>
<path d="M333.33 60.8592C336.629 60.8376 339.364 60.6711 342.428 60.1538L342.759 62.6752C339.223 63.2883 336.041 63.4294 332.104 63.4294H330.148V54.4961H337.193V51.0324H330.123V48.5582H340.377V56.947H333.33V60.8592ZM347.047 68.4721H343.936V46.6934H347.047V68.4721Z" fill="#1A1311"/>
<path d="M362.246 59.0451C359.865 58.2673 358.238 56.7118 357.321 54.7783C356.353 56.8999 354.656 58.6453 352.133 59.4701L350.554 57.0175C354.043 55.84 355.622 53.0817 355.669 50.3958H351.402V47.9196H363.07V50.3958H358.851C358.9 52.8701 360.408 55.4855 363.754 56.6178L362.246 59.0451ZM354.02 60.6006H368.82V68.4486H365.709V63.0749H354.02V60.6006ZM368.82 46.7422V59.6347H365.709V54.402H362.504V51.9043H365.709V46.7422H368.82Z" fill="#1A1311"/>
<path d="M378.574 59.1175C375.25 59.1175 372.658 56.7825 372.658 53.6245C372.658 50.4194 375.25 48.1097 378.574 48.1097C381.897 48.1097 384.465 50.4194 384.465 53.6245C384.465 56.7825 381.897 59.1175 378.574 59.1175ZM378.574 56.4298C380.2 56.4298 381.425 55.3681 381.425 53.6245C381.425 51.8339 380.2 50.7957 378.574 50.7957C376.972 50.7957 375.699 51.8339 375.699 53.6245C375.699 55.3681 376.972 56.4298 378.574 56.4298ZM390.924 65.5747V68.049H375.934V60.7888H379.045V65.5747H390.924ZM390.384 62.3226H387.249V46.7441H390.384V62.3226Z" fill="#1A1311"/>
<path d="M420.242 55.58V58.0091H400.632V55.58H408.858V53.2702H411.969V55.58H420.242ZM418.167 54.5201C414.443 54.0716 411.779 52.7765 410.412 50.8195C409.023 52.7765 406.335 54.0716 402.634 54.5201L401.598 52.1633C406.595 51.6678 408.809 49.6167 408.809 47.3539V46.9072H411.991V47.3539C411.991 49.6167 414.208 51.6678 419.206 52.1633L418.167 54.5201ZM405.982 65.9277H418.426V68.261H402.895V62.558H414.796V61.4022H402.869V59.1161H417.86V64.7249H405.982V65.9277Z" fill="#1A1311"/>
<path d="M441.967 62.2049H433.647V68.4721H430.538V62.2049H422.312V59.7052H441.967V62.2049ZM436.546 49.8532H424.574V47.4023H439.704V53.8848H427.779V55.6754H440.223V58.1263H424.598V51.5497H436.546V49.8532Z" fill="#1A1311"/>
<path d="M455.234 60.1051C452.971 59.2097 451.439 57.5367 450.544 55.4621C449.625 57.6778 447.975 59.4449 445.501 60.3637L443.873 57.9364C447.456 56.6649 448.941 53.6226 448.941 50.4646V47.9432H452.099V50.4646C452.099 53.4345 453.513 56.4044 456.955 57.7013L455.234 60.1051ZM462.61 65.5728V68.049H447.809V61.3314H450.922V65.5728H462.61ZM459.028 56.2164H455.422V53.7185H459.028V52.0219H455.422V49.5457H459.028V46.7188H462.139V62.7928H459.028V56.2164Z" fill="#1A1311"/>
<path d="M485.282 57.8894H465.672V55.462H485.282V57.8894ZM467.627 50.7251C467.627 48.3448 470.526 47.0244 475.477 47.0244C480.449 47.0244 483.348 48.3448 483.348 50.7251C483.348 53.1288 480.449 54.4257 475.477 54.4257C470.526 54.4257 467.627 53.1288 467.627 50.7251ZM471.022 65.9273H483.466V68.2606H467.935V62.5576H479.836V61.4019H467.909V59.1157H482.9V64.701H471.022V65.9273ZM470.856 50.7251C470.856 51.7379 472.341 52.1629 475.477 52.1629C478.635 52.1629 480.118 51.7379 480.118 50.7251C480.118 49.7592 478.635 49.3106 475.477 49.3106C472.341 49.3106 470.856 49.7592 470.856 50.7251Z" fill="#1A1311"/>
<path d="M500.831 52.4705C500.831 56.1006 501.893 59.7524 505.025 61.5919L503.211 63.8546C501.303 62.6988 500.053 60.8377 499.346 58.5514C498.593 61.0258 497.32 63.1474 495.363 64.3719L493.525 62.0857C496.683 60.0834 497.814 56.1929 497.814 52.4705V51.4088H494.325V48.8875H503.989V51.4088H500.831V52.4705ZM505.239 47.0715H508.138V67.4359H505.239V56.6414H502.48V54.12H505.239V47.0715ZM512.568 68.4018H509.621V46.6953H512.568V68.4018Z" fill="#1A1311"/>
<path d="M521.688 59.1393C518.365 59.1393 515.795 56.806 515.795 53.6244C515.795 50.4194 518.365 48.1096 521.688 48.1096C524.987 48.1096 527.557 50.4194 527.557 53.6244C527.557 56.806 524.987 59.1393 521.688 59.1393ZM521.829 65.5746H533.495V68.049H518.718V60.8847H521.829V65.5746ZM521.688 56.4532C523.29 56.4532 524.54 55.3915 524.54 53.6244C524.54 51.8574 523.29 50.7956 521.688 50.7956C520.06 50.7956 518.835 51.8574 518.835 53.6244C518.835 55.3915 520.06 56.4532 521.688 56.4532ZM535.593 52.9407V55.4874H532.717V62.5107H529.606V46.7188H532.717V52.9407H535.593Z" fill="#1A1311"/>
<path d="M545.112 49.9238H549.823V52.3981H537.191V49.9238H541.999V47.095H545.112V49.9238ZM549.048 58.7865C549.048 61.8487 546.714 63.9938 543.578 63.9938C540.42 63.9938 538.063 61.8487 538.063 58.7865C538.063 55.7696 540.42 53.6244 543.578 53.6244C546.714 53.6244 549.048 55.7696 549.048 58.7865ZM546.101 58.7865C546.101 57.1587 545.041 56.1458 543.578 56.1458C542.118 56.1458 541.033 57.1587 541.033 58.81C541.033 60.4596 542.118 61.4489 543.578 61.4489C545.041 61.4489 546.101 60.4596 546.101 58.7865ZM557.462 57.7718H554.349V68.4252H551.24V46.7188H554.349V55.2034H557.462V57.7718Z" fill="#1A1311"/>
<path d="M578.644 59.7765H558.988V57.2786H578.644V59.7765ZM564.338 65.4811H576.594V67.9555H561.204V61.4983H564.338V65.4811ZM576.477 55.063H561.416V47.4971H564.528V52.5886H576.477V55.063Z" fill="#1A1311"/>
<path d="M606.901 61.1908H598.581V68.4727H595.47V61.1908H587.291V58.7164H606.901V61.1908ZM588.212 55.0393C592.641 54.4967 594.953 52.3751 595.258 50.3004H589.011V47.8262H605.11V50.3004H598.957C599.265 52.3751 601.551 54.4967 605.959 55.0393L604.85 57.4666C601.057 56.9475 598.393 55.3214 597.096 53.1058C595.799 55.3214 593.137 56.9475 589.342 57.4666L588.212 55.0393Z" fill="#1A1311"/>
<path d="M620.733 58.6219C618.304 57.8423 616.633 56.3122 615.665 54.3551C614.674 56.4532 612.932 58.1498 610.386 58.9746L608.854 56.5238C612.484 55.368 614.039 52.541 614.039 49.7827V47.7081H617.197V49.7827C617.197 52.4922 618.729 55.0859 622.242 56.1711L620.733 58.6219ZM612.178 60.6006H626.979V68.4505H623.844V63.075H612.178V60.6006ZM626.979 59.6583H623.844V46.7188H626.979V59.6583Z" fill="#1A1311"/>
<path d="M639.254 62.1327C641.021 62.0152 642.789 61.8976 644.487 61.6625L644.722 63.9252C639.985 64.797 634.964 64.8205 631.122 64.8205L630.746 62.2974C632.372 62.2974 634.21 62.2974 636.143 62.2503V60.4126C633.81 59.9641 632.302 58.5045 632.302 56.4769C632.302 54.0496 634.515 52.4 637.699 52.4C640.857 52.4 643.073 54.0496 643.073 56.4769C643.073 58.5045 641.564 59.9641 639.254 60.4126V62.1327ZM644.205 51.55H631.171V49.1226H636.143V46.7894H639.254V49.1226H644.205V51.55ZM637.699 58.2205C639.16 58.2205 640.126 57.6091 640.126 56.4769C640.126 55.3681 639.16 54.755 637.699 54.755C636.261 54.755 635.272 55.3681 635.272 56.4769C635.272 57.6091 636.261 58.2205 637.699 58.2205ZM648.73 68.4271H645.617V46.7207H648.73V68.4271Z" fill="#1A1311"/>
<path d="M660.297 51.5498C660.297 55.4621 661.831 59.3978 665.32 61.1198L663.433 63.5706C661.171 62.4148 659.639 60.3185 658.743 57.7248C657.801 60.4813 656.173 62.7693 653.722 63.9703L651.859 61.4489C655.515 59.727 657.164 55.5797 657.164 51.5498V48.3918H660.297V51.5498ZM672.461 57.6542H669.303V68.4252H666.19V46.7188H669.303V55.0606H672.461V57.6542Z" fill="#1A1311"/>
<path d="M684.547 61.0239C687.61 61.0022 690.108 60.8828 692.939 60.4596L693.221 62.9339C689.92 63.4295 686.995 63.5235 683.273 63.5235H681.436V48.5094H691.64V51.0325H684.547V54.5668H691.336V56.9941H684.547V61.0239ZM700.74 57.5132H697.582V68.4487H694.469V46.7188H697.582V54.9448H700.74V57.5132Z" fill="#1A1311"/>
<path d="M706.484 60.4126C709.336 60.342 712.424 60.1051 715.605 59.4702L715.936 62.0622C712.236 62.8399 708.631 63.075 705.33 63.075H703.396V48.7699H706.484V60.4126ZM720.391 68.4018H717.28V46.6953H720.391V68.4018Z" fill="#1A1311"/>
<path d="M736.06 52.7291C736.06 55.7225 733.539 57.8677 730.169 57.8677C726.798 57.8677 724.253 55.7225 724.253 52.7291C724.253 49.7592 726.798 47.6141 730.169 47.6141C733.539 47.6141 736.06 49.7592 736.06 52.7291ZM727.293 52.7291C727.293 54.3551 728.518 55.2975 730.169 55.2975C731.819 55.2975 733.02 54.3551 733.02 52.7291C733.02 51.1501 731.819 50.1842 730.169 50.1842C728.518 50.1842 727.293 51.1501 727.293 52.7291ZM730.639 59.3291V61.3549H738.889V59.3291H741.977V68.1666H727.552V59.3291H730.639ZM730.639 65.6922H738.891V63.7351H730.639V65.6922ZM741.977 58.3849H738.842V46.7188H741.977V58.3849Z" fill="#1A1311"/>
<path d="M749.844 60.4126C752.697 60.342 755.784 60.1051 758.966 59.4702L759.297 62.0622C755.596 62.8399 751.99 63.075 748.689 63.075H746.757V48.7699H749.844V60.4126ZM763.75 68.4018H760.639V46.6953H763.75V68.4018Z" fill="#1A1311"/>
<path d="M771.242 60.6712C774.329 60.6241 776.899 60.4596 779.705 59.9875L780.01 62.5577C776.733 63.1455 773.765 63.2649 769.994 63.2649H768.154V48.721H778.267V51.2441H771.242V60.6712ZM787.459 57.3015H784.301V68.4722H781.188V46.7188H784.301V54.7332H787.459V57.3015Z" fill="#1A1311"/>
<path d="M789.645 64.4658C789.645 63.169 790.565 62.2031 791.792 62.2031C793.04 62.2031 793.958 63.169 793.958 64.4658C793.958 65.7409 793.04 66.7285 791.792 66.7285C790.565 66.7285 789.645 65.7409 789.645 64.4658Z" fill="#1A1311"/>
<path d="M10.4417 104.021H0.354492V94.5938H10.4417V104.021ZM8.08316 96.549H2.73296V102.064H8.08316V96.549ZM17.3456 112.364V114.321H2.89934V106.52H16.9458V108.476H5.32666V112.364H17.3456ZM16.8048 105.388H14.3775V93.2969H16.8048V105.388Z" fill="#1A1311"/>
<path d="M40.2037 104.138H20.9229V102.206H40.2037V104.138ZM22.9739 97.3031C22.9739 94.9229 25.7792 93.626 30.5651 93.626C35.3257 93.626 38.1545 94.9229 38.1545 97.3031C38.1545 99.6599 35.3257 100.957 30.5651 100.957C25.7792 100.957 22.9739 99.6599 22.9739 97.3031ZM25.6617 112.529H38.3896V114.39H23.2579V109.04H35.3962V107.51H23.2109V105.67H37.7764V110.762H25.6617V112.529ZM25.4971 97.3031C25.4971 98.5059 27.2642 99.1425 30.5651 99.1425C33.8642 99.1425 35.6313 98.5059 35.6313 97.3031C35.6313 96.0768 33.8642 95.4419 30.5651 95.4419C27.2642 95.4419 25.4971 96.0768 25.4971 97.3031Z" fill="#1A1311"/>
<path d="M53.3298 105.177H43.3584V95.1129H53.3298V105.177ZM50.9478 97.0681H45.764V103.22H50.9478V97.0681ZM48.2148 112.2H60.0926V114.179H45.764V107.369H48.2148V112.2ZM62.2631 99.613V101.617H59.2462V108.877H56.8189V93.2734H59.2462V99.613H62.2631Z" fill="#1A1311"/>
<path d="M76.8954 97.6577H64.332V95.7242H69.4001V93.2969H71.8273V95.7242H76.8954V97.6577ZM70.6028 106.709C67.5606 106.709 65.4408 105.106 65.4408 102.679C65.4408 100.273 67.5606 98.6471 70.6028 98.6471C73.665 98.6471 75.7631 100.273 75.7631 102.679C75.7631 105.106 73.665 106.709 70.6028 106.709ZM69.8938 112.2H81.7734V114.179H67.443V108.029H69.8938V112.2ZM70.6028 104.822C72.2994 104.822 73.4534 104.021 73.4534 102.679C73.4534 101.335 72.2994 100.534 70.6028 100.534C68.928 100.534 67.774 101.335 67.774 102.679C67.774 104.021 68.928 104.822 70.6028 104.822ZM83.9421 100.085V102.089H80.9252V109.253H78.4979V93.2969H80.9252V100.085H83.9421Z" fill="#1A1311"/>
<path d="M104.041 105.858C101.684 105.057 99.962 103.384 99.0667 101.286C98.1243 103.597 96.3337 105.459 93.8105 106.33L92.5625 104.422C95.8616 103.266 97.7951 100.461 97.7951 97.5853V96.8546H93.2932V94.8993H104.677V96.8546H100.246V97.5853C100.246 100.202 102.06 102.865 105.242 103.974L104.041 105.858ZM110.758 112.2V114.178H96.4277V107.531H98.855V112.2H110.758ZM107.788 98.9997V93.3203H110.216V108.875H107.788V101.004H103.923V98.9997H107.788Z" fill="#1A1311"/>
<path d="M133.546 104.021V105.978H125.297V109.961H122.869V105.978H114.242V104.021H133.546ZM119.028 112.2H131.401V114.179H116.598V108.029H119.028V112.2ZM131.048 101.925H116.694V94.2412H131.048V101.925ZM128.666 96.1729H119.073V99.9912H128.666V96.1729Z" fill="#1A1311"/>
<path d="M152.514 107.202C153.504 107.108 154.495 107.012 155.437 106.896L155.578 108.687C151.171 109.418 146.245 109.488 142.545 109.488L142.286 107.484H144.902V97.3971H142.827V95.4418H154.587V97.3971H152.514V107.202ZM147.258 107.461C148.201 107.437 149.192 107.39 150.158 107.345V97.3971H147.258V107.461ZM162.343 103.619H159.02V114.605H156.591V93.2949H159.02V101.619H162.343V103.619Z" fill="#1A1311"/>
<path d="M183.527 111.963H164.224V109.983H183.527V111.963ZM181.358 106.496H166.604V95.0176H181.193V96.9728H169.079V99.7075H180.721V101.618H169.079V104.539H181.358V106.496Z" fill="#1A1311"/>
<path d="M189.439 107.51C192.386 107.486 195.238 107.249 198.23 106.661L198.512 108.664C195.119 109.324 192.01 109.537 188.732 109.537H187.036V95.6301H189.439V107.51ZM203.58 93.2969V114.627H201.153V102.113H194.978V100.132H201.153V93.2969H203.58Z" fill="#1A1311"/>
<path d="M226.864 111.846H207.584V109.844H226.864V111.846ZM224.977 105.694C221.513 104.987 218.52 102.772 217.129 99.8487C215.738 102.772 212.745 104.987 209.279 105.694L208.243 103.69C212.437 102.913 215.856 99.6371 215.856 96.2674V94.6631H218.426V96.2674C218.426 99.6606 221.843 102.936 226.039 103.69L224.977 105.694Z" fill="#1A1311"/>
<path d="M248.544 104.846H229.24V103.055H248.544V104.846ZM233.932 112.672H246.824V114.345H231.528V109.467H243.782V107.959H231.479V106.284H246.186V111.046H233.932V112.672ZM243.711 95.4894H231.669V93.8164H246.115V98.5063H234.096V100.015H246.493V101.711H231.714V96.9274H243.711V95.4894Z" fill="#1A1311"/>
<path d="M276.751 104.422V106.379H257.496V104.422H265.91V102.679H259.97V93.8867H274.463V95.7497H262.397V97.3522H273.946V99.1663H262.397V100.816H274.606V102.679H268.359V104.422H276.751ZM274.442 111.117C274.442 113.379 271.754 114.582 267.111 114.582C262.491 114.582 259.78 113.379 259.78 111.117C259.78 108.877 262.491 107.698 267.111 107.698C271.754 107.698 274.442 108.877 274.442 111.117ZM272.014 111.117C272.014 110.031 270.339 109.49 267.111 109.49C263.906 109.49 262.233 110.031 262.233 111.117C262.233 112.247 263.906 112.766 267.111 112.766C270.339 112.766 272.014 112.247 272.014 111.117Z" fill="#1A1311"/>
<path d="M285.61 96.7624H289.593V98.7176H279.175V96.7624H283.206V93.9101H285.61V96.7624ZM289.027 104.869C289.027 107.792 287.093 109.82 284.407 109.82C281.72 109.82 279.788 107.792 279.788 104.869C279.788 101.925 281.72 99.9204 284.407 99.9204C287.093 99.9204 289.027 101.925 289.027 104.869ZM286.858 104.869C286.858 103.102 285.845 101.925 284.407 101.925C282.97 101.925 281.955 103.102 281.955 104.869C281.955 106.636 282.97 107.792 284.407 107.792C285.845 107.792 286.858 106.636 286.858 104.869ZM297.347 93.2969V114.58H295.037V104.115H292.775V113.591H290.512V93.7455H292.775V102.113H295.037V93.2969H297.347Z" fill="#1A1311"/>
<path d="M320.088 97.2801H307.525V95.3249H312.593V93.1074H315.02V95.3249H320.088V97.2801ZM313.794 105.577C310.732 105.577 308.634 104.068 308.634 101.807C308.634 99.5663 310.732 98.0579 313.794 98.0579C316.881 98.0579 318.958 99.5663 318.958 101.807C318.958 104.068 316.881 105.577 313.794 105.577ZM321.714 106.591H324.118V114.32H310.518V106.591H312.924V108.548H321.714V106.591ZM313.794 103.761C315.492 103.761 316.646 103.03 316.646 101.807C316.646 100.603 315.492 99.872 313.794 99.872C312.099 99.872 310.967 100.603 310.967 101.807C310.967 103.03 312.099 103.761 313.794 103.761ZM321.714 110.433H312.924V112.388H321.714V110.433ZM327.135 100.603H324.118V105.718H321.689V93.2955H324.118V98.6023H327.135V100.603Z" fill="#1A1311"/>
<path d="M332.834 107.557C336.206 107.533 339.15 107.369 342.522 106.826L342.78 108.805C339.128 109.442 335.945 109.559 332.199 109.559H330.383V101.122H337.806V97.1623H330.334V95.1818H340.259V103.079H332.834V107.557ZM346.741 114.627H344.29V93.25H346.741V114.627Z" fill="#1A1311"/>
<path d="M362.316 105.271C359.958 104.446 358.261 102.771 357.342 100.722C356.398 103.008 354.608 104.846 352.086 105.717L350.836 103.809C354.135 102.679 356.069 99.8734 356.069 96.9976V96.5743H351.569V94.6173H362.951V96.5743H358.52V96.9741C358.52 99.613 360.336 102.277 363.517 103.384L362.316 105.271ZM354.135 107.063H368.491V114.58H366.062V109.018H354.135V107.063ZM368.491 93.2734V106.001H366.062V100.628H362.34V98.6236H366.062V93.2734H368.491Z" fill="#1A1311"/>
<path d="M378.598 105.365C375.393 105.365 372.94 103.125 372.94 100.038C372.94 96.927 375.393 94.7113 378.598 94.7113C381.803 94.7113 384.23 96.927 384.23 100.038C384.23 103.125 381.803 105.365 378.598 105.365ZM378.598 103.267C380.459 103.267 381.875 101.97 381.875 100.038C381.875 98.081 380.459 96.8094 378.598 96.8094C376.712 96.8094 375.321 98.081 375.321 100.038C375.321 101.97 376.712 103.267 378.598 103.267ZM390.689 112.2V114.179H376.169V107.202H378.622V112.2H390.689ZM390.076 108.758H387.649V93.2969H390.076V108.758Z" fill="#1A1311"/>
<path d="M420.075 102.301V104.256H400.796V102.301H409.189V99.778H411.614V102.301H420.075ZM418.167 100.91C414.68 100.462 411.779 99.1178 410.411 96.9726C409.022 99.1178 406.147 100.462 402.658 100.91L401.833 99.0943C406.194 98.6005 409.164 96.5964 409.164 94.0751V93.4619H411.663V94.0751C411.663 96.5964 414.655 98.6005 419.016 99.0943L418.167 100.91ZM405.533 112.529H418.261V114.391H403.13V109.111H415.268V107.532H403.084V105.694H417.648V110.833H405.533V112.529Z" fill="#1A1311"/>
<path d="M441.78 108.1H433.317V114.626H430.868V108.1H422.476V106.143H441.78V108.1ZM437.018 96.0068H424.764V94.0498H439.492V99.9661H427.26V102.252H439.965V104.233H424.809V98.1285H437.018V96.0068Z" fill="#1A1311"/>
<path d="M455.375 106.213C453.136 105.271 451.462 103.455 450.567 101.241C449.647 103.645 447.879 105.529 445.452 106.495L444.132 104.587C447.454 103.361 449.294 100.32 449.294 97.1151V94.4744H451.768V97.1151C451.768 100.132 453.537 103.078 456.717 104.303L455.375 106.213ZM462.304 112.2V114.179H447.952V107.604H450.401V112.2H462.304ZM459.381 102.489H455.422V100.532H459.381V98.2456H455.422V96.2668H459.381V93.2969H461.81V109.136H459.381V102.489Z" fill="#1A1311"/>
<path d="M485.115 104.138H465.836V102.206H485.115V104.138ZM467.885 97.3031C467.885 94.9229 470.691 93.626 475.476 93.626C480.237 93.626 483.064 94.9229 483.064 97.3031C483.064 99.6599 480.237 100.957 475.476 100.957C470.691 100.957 467.885 99.6599 467.885 97.3031ZM470.573 112.529H483.301V114.39H468.169V109.04H480.307V107.51H468.122V105.67H482.688V110.762H470.573V112.529ZM470.408 97.3031C470.408 98.5059 472.177 99.1425 475.476 99.1425C478.775 99.1425 480.544 98.5059 480.544 97.3031C480.544 96.0768 478.775 95.4419 475.476 95.4419C472.177 95.4419 470.408 96.0768 470.408 97.3031Z" fill="#1A1311"/>
<path d="M500.597 99.1427C500.597 102.771 501.964 106.448 504.934 108.17L503.518 109.937C501.516 108.758 500.197 106.662 499.443 104.185C498.689 106.873 497.321 109.159 495.27 110.456L493.809 108.664C496.826 106.779 498.238 102.937 498.238 99.1427V97.6107H494.492V95.6067H504.109V97.6107H500.597V99.1427ZM505.688 93.6985H507.973V113.544H505.688V102.749H502.552V100.769H505.688V93.6985ZM512.286 114.557H509.979V93.2734H512.286V114.557Z" fill="#1A1311"/>
<path d="M521.735 105.365C518.53 105.365 516.077 103.149 516.077 100.038C516.077 96.927 518.53 94.7349 521.735 94.7349C524.963 94.7349 527.416 96.927 527.416 100.038C527.416 103.149 524.963 105.365 521.735 105.365ZM521.735 103.267C523.596 103.267 525.034 101.993 525.034 100.038C525.034 98.1045 523.596 96.8311 521.735 96.8311C519.874 96.8311 518.457 98.1045 518.457 100.038C518.457 101.993 519.874 103.267 521.735 103.267ZM521.404 112.2H533.284V114.179H518.953V107.296H521.404V112.2ZM535.452 99.6129V101.617H532.435V108.899H530.006V93.2969H532.435V99.6129H535.452Z" fill="#1A1311"/>
<path d="M544.875 96.5725H549.849V98.553H537.38V96.5725H542.448V93.6279H544.875V96.5725ZM548.976 105.034C548.976 107.957 546.736 110.008 543.696 110.008C540.632 110.008 538.416 107.957 538.416 105.034C538.416 102.136 540.632 100.061 543.696 100.061C546.736 100.061 548.976 102.136 548.976 105.034ZM546.666 105.034C546.666 103.243 545.418 102.066 543.696 102.066C541.976 102.066 540.728 103.243 540.728 105.034C540.728 106.826 541.976 108.004 543.696 108.004C545.418 108.004 546.666 106.826 546.666 105.034ZM557.296 103.88H554.02V114.604H551.569V93.2969H554.02V101.852H557.296V103.88Z" fill="#1A1311"/>
<path d="M578.481 105.884H559.153V103.927H578.481V105.884ZM563.939 112.153H576.381V114.11H561.512V107.84H563.939V112.153ZM576.266 101.382H561.653V94.0518H564.08V99.4019H576.266V101.382Z" fill="#1A1311"/>
<path d="M606.69 107.226H598.229V114.604H595.8V107.226H587.458V105.271H606.714L606.69 107.226ZM588.518 101.805C592.571 101.263 595.565 98.9294 595.708 96.4551H589.225V94.498H604.899V96.4551H598.464C598.605 98.9294 601.599 101.263 605.654 101.805L604.78 103.715C601.269 103.196 598.37 101.453 597.073 99.0941C595.778 101.453 592.902 103.196 589.39 103.715L588.518 101.805Z" fill="#1A1311"/>
<path d="M620.85 104.869C618.399 104.021 616.632 102.348 615.688 100.226C614.722 102.536 612.908 104.375 610.384 105.247L609.182 103.337C612.53 102.183 614.416 99.3073 614.416 96.3374V94.2628H616.89V96.3374C616.89 99.2133 618.775 101.876 622.052 102.961L620.85 104.869ZM612.318 107.061H626.67V114.58H624.245V109.018H612.318V107.061ZM626.67 106.048H624.243V93.2734H626.67V106.048Z" fill="#1A1311"/>
<path d="M639.017 108.617C640.927 108.499 642.86 108.382 644.674 108.123L644.839 109.89C640.149 110.691 635.105 110.762 631.241 110.762L630.934 108.758C632.63 108.758 634.587 108.758 636.591 108.687V106.615C634.188 106.237 632.609 104.775 632.609 102.724C632.609 100.344 634.728 98.7647 637.816 98.7647C640.88 98.7647 643.001 100.344 643.001 102.724C643.001 104.799 641.422 106.237 639.017 106.615V108.617ZM644.226 97.7283H631.357V95.7713H636.591V93.344H639.017V95.7713H644.226V97.7283ZM637.816 104.846C639.512 104.846 640.692 104.044 640.692 102.724C640.692 101.429 639.512 100.628 637.816 100.628C636.096 100.628 634.916 101.429 634.916 102.724C634.916 104.044 636.096 104.846 637.816 104.846ZM648.328 114.58H645.877V93.2734H648.328V114.58Z" fill="#1A1311"/>
<path d="M659.944 98.553C659.944 102.348 661.924 106.189 665.129 107.768L663.644 109.702C661.358 108.523 659.661 106.213 658.743 103.433C657.822 106.378 656.031 108.854 653.604 110.102L652.119 108.147C655.444 106.52 657.516 102.489 657.516 98.553V95.0658H659.944V98.553ZM672.294 103.739H668.971V114.58H666.542V93.2969H668.971V101.735H672.294V103.739Z" fill="#1A1311"/>
<path d="M684.076 107.627C687.469 107.604 690.061 107.486 693.056 106.993L693.291 108.971C690.014 109.489 687.187 109.608 683.367 109.608H681.646V95.1364H691.593V97.1387H684.076V101.1H691.191V103.055H684.076V107.627ZM700.573 103.645H697.25V114.605H694.821V93.2734H697.25V101.642H700.573V103.645Z" fill="#1A1311"/>
<path d="M706.108 107.132C709.125 107.108 712.306 106.85 715.654 106.166L715.913 108.194C712.261 108.948 708.817 109.206 705.518 109.206H703.704V95.3715H706.108V107.132ZM720.037 114.58H717.609V93.2969H720.037V114.58Z" fill="#1A1311"/>
<path d="M735.825 99.2132C735.825 102.136 733.445 104.162 730.193 104.162C726.939 104.162 724.535 102.136 724.535 99.2132C724.535 96.2903 726.939 94.2627 730.193 94.2627C733.445 94.2627 735.825 96.2903 735.825 99.2132ZM726.915 99.2132C726.915 101.004 728.259 102.16 730.193 102.16C732.101 102.16 733.468 101.004 733.468 99.2132C733.468 97.4443 732.101 96.2668 730.193 96.2668C728.259 96.2668 726.915 97.4443 726.915 99.2132ZM730.169 105.717V108.074H739.265V105.717H741.669V114.321H727.764V105.717H730.169ZM730.169 112.364H739.265V109.961H730.169V112.364ZM741.669 104.728H739.242V93.2969H741.669V104.728Z" fill="#1A1311"/>
<path d="M749.468 107.132C752.485 107.108 755.667 106.85 759.013 106.166L759.273 108.194C755.62 108.948 752.178 109.206 748.879 109.206H747.064V95.3715H749.468V107.132ZM763.397 114.58H760.97V93.2969H763.397V114.58Z" fill="#1A1311"/>
<path d="M770.769 107.343C774.211 107.32 776.803 107.179 779.775 106.66L780.031 108.664C776.803 109.253 773.927 109.371 770.085 109.371H768.342V95.3008H778.241V97.2795H770.769V107.343ZM787.292 103.478H783.969V114.603H781.54V93.2715H783.969V101.476H787.292V103.478Z" fill="#1A1311"/>
<path d="M789.668 111.188C789.668 110.057 790.468 109.256 791.482 109.256C792.495 109.256 793.298 110.057 793.298 111.188C793.298 112.295 792.495 113.072 791.482 113.072C790.468 113.072 789.668 112.295 789.668 111.188Z" fill="#1A1311"/>
<path d="M10.2989 150.268H0.42334V141.076H10.2989V150.268ZM8.41425 142.608H2.30983V148.736H8.41425V142.608ZM17.2046 159.037V160.593H2.99352V153.05H16.7814V154.606H4.92523V159.037H17.2046ZM16.6638 151.849H14.7321V139.734H16.6638V151.849Z" fill="#1A1311"/>
<path d="M40.1116 150.411H20.9736V148.856H40.1116V150.411ZM23.1169 143.764C23.1169 141.384 25.8987 140.087 30.5417 140.087C35.1847 140.087 37.9665 141.384 37.9665 143.764C37.9665 146.144 35.1847 147.418 30.5417 147.418C25.8987 147.418 23.1169 146.144 23.1169 143.764ZM25.2386 159.131H38.2957V160.639H23.3539V155.571H35.7508V153.687H23.2834V152.225H37.659V156.986H25.2386V159.131ZM25.0975 143.764C25.0975 145.178 27.078 145.98 30.5417 145.98C34.0072 145.98 35.9878 145.178 35.9878 143.764C35.9878 142.35 34.0072 141.548 30.5417 141.548C27.078 141.548 25.0975 142.35 25.0975 143.764Z" fill="#1A1311"/>
<path d="M53.2574 151.401H43.5464V141.619H53.2574V151.401ZM51.3727 143.174H45.4329V149.869H51.3727V143.174ZM47.8602 158.825H60.022V160.404H45.9267V153.757H47.8602V158.825ZM62.1906 146.168V147.794H59.0796V155.195H57.1461V139.709H59.0796V146.168H62.1906Z" fill="#1A1311"/>
<path d="M76.8956 143.882H64.4263V142.326H69.6824V139.734H71.6159V142.326H76.8956V143.882ZM70.6482 152.909C67.6566 152.909 65.6055 151.354 65.6055 148.973C65.6055 146.617 67.6566 145.061 70.6482 145.061C73.6417 145.061 75.7163 146.617 75.7163 148.973C75.7163 151.354 73.6417 152.909 70.6482 152.909ZM70.6482 151.401C72.5582 151.401 73.8786 150.458 73.8786 148.973C73.8786 147.512 72.5582 146.57 70.6482 146.57C68.7401 146.57 67.4432 147.512 67.4432 148.973C67.4432 150.458 68.7401 151.401 70.6482 151.401ZM69.5413 158.825H81.7031V160.404H67.6078V154.347H69.5413V158.825ZM83.8717 146.711V148.337H80.7608V155.597H78.8272V139.734H80.7608V146.711H83.8717Z" fill="#1A1311"/>
<path d="M104.135 152.059C101.778 151.211 99.962 149.443 99.0432 147.275C98.1243 149.678 96.1908 151.635 93.7165 152.531L92.7036 151.022C95.8381 149.892 98.0303 147.087 98.0303 144.093V143.031H93.3168V141.452H104.607V143.031H99.962V144.07C99.962 146.826 102.037 149.467 105.101 150.552L104.135 152.059ZM110.641 158.823V160.402H96.5218V153.875H98.4789V158.823H110.641ZM108.094 145.578V139.756H110.051V155.242H108.094V147.157H103.853V145.578H108.094Z" fill="#1A1311"/>
<path d="M133.476 150.552V152.108H124.991V156.374H123.058V152.108H114.266V150.552H133.476ZM118.65 158.825H131.331V160.404H116.718V154.37H118.65V158.825ZM130.978 148.148H116.765V140.724H130.978V148.148ZM129.068 142.279H118.65V146.593H129.068V142.279Z" fill="#1A1311"/>
<path d="M152.373 153.734C153.48 153.663 154.565 153.569 155.602 153.428L155.743 154.866C151.311 155.571 146.29 155.642 142.568 155.642L142.333 154.018C143.203 154.018 144.147 154.018 145.136 153.992V143.576H142.874V142.021H154.636V143.576H152.373V153.734ZM147.023 153.969C148.153 153.945 149.333 153.898 150.487 153.851V143.576H147.023V153.969ZM162.343 149.798H158.854V160.876H156.92V139.758H158.854V148.195H162.343V149.798Z" fill="#1A1311"/>
<path d="M183.434 158.139H164.249V156.56H183.434V158.139ZM181.242 152.695H166.723V141.571H181.03V143.125H168.679V146.261H180.558V147.793H168.679V151.139H181.242V152.695Z" fill="#1A1311"/>
<path d="M189.038 154.18C192.174 154.157 195.048 153.945 198.159 153.309L198.419 154.958C195.072 155.595 192.102 155.806 188.755 155.806H187.106V142.089H189.038V154.18ZM203.368 139.732V160.922H201.436V148.311H194.956V146.709H201.436V139.732H203.368Z" fill="#1A1311"/>
<path d="M226.793 158.045H207.629V156.443H226.793V158.045ZM224.977 151.964C221.772 151.233 218.471 148.971 217.129 145.86C215.785 148.947 212.486 151.21 209.304 151.964L208.432 150.362C212.131 149.631 216.116 146.449 216.116 142.843V141.217H218.143V142.843C218.143 146.449 222.15 149.654 225.849 150.362L224.977 151.964Z" fill="#1A1311"/>
<path d="M248.472 151.023H229.309V149.561H248.472V151.023ZM233.552 159.202H246.752V160.592H231.642V155.902H244.182V154.134H231.597V152.744H246.092V157.245H233.552V159.202ZM244.111 141.713H231.714V140.346H246.021V144.754H233.671V146.569H246.397V147.959H231.761V143.433H244.111V141.713Z" fill="#1A1311"/>
<path d="M276.704 150.93V152.484H257.566V150.93H266.169V148.856H260.09V140.348H274.349V141.856H262.021V143.811H273.781V145.273H262.021V147.347H274.465V148.856H268.104V150.93H276.704ZM274.371 157.458C274.371 159.674 271.73 160.851 267.135 160.851C262.539 160.851 259.9 159.674 259.9 157.458C259.9 155.266 262.539 154.089 267.135 154.089C271.73 154.089 274.371 155.266 274.371 157.458ZM272.439 157.458C272.439 156.21 270.553 155.526 267.135 155.526C263.741 155.526 261.833 156.21 261.833 157.458C261.833 158.731 263.741 159.392 267.135 159.392C270.553 159.392 272.439 158.731 272.439 157.458Z" fill="#1A1311"/>
<path d="M285.444 143.339H289.734V144.918H279.246V143.339H283.534V140.346H285.444V143.339ZM289.027 151.14C289.027 154.016 287.119 155.973 284.502 155.973C281.885 155.973 279.976 154.016 279.976 151.14C279.976 148.311 281.885 146.333 284.502 146.333C287.119 146.333 289.027 148.311 289.027 151.14ZM287.305 151.14C287.305 149.302 286.128 147.959 284.502 147.959C282.85 147.959 281.696 149.302 281.696 151.14C281.696 153.027 282.85 154.369 284.502 154.369C286.128 154.369 287.305 153.027 287.305 151.14ZM297.181 139.709V160.851H295.32V150.221H292.61V159.838H290.794V140.205H292.61V148.642H295.32V139.709H297.181Z" fill="#1A1311"/>
<path d="M320.086 143.456H307.617V141.901H312.875V139.521H314.807V141.901H320.086V143.456ZM313.841 151.847C310.824 151.847 308.797 150.409 308.797 148.146C308.797 145.907 310.824 144.469 313.841 144.469C316.858 144.469 318.909 145.907 318.909 148.146C318.909 150.409 316.858 151.847 313.841 151.847ZM313.841 150.386C315.773 150.386 317.07 149.537 317.07 148.146C317.07 146.779 315.773 145.907 313.841 145.907C311.907 145.907 310.634 146.779 310.634 148.146C310.634 149.537 311.907 150.386 313.841 150.386ZM322.044 152.954H323.952V160.592H310.659V152.954H312.568V155.193H322.044V152.954ZM322.044 156.702H312.568V159.035H322.044V156.702ZM327.086 146.732H323.952V152.012H322.018V139.732H323.952V145.106H327.086V146.732Z" fill="#1A1311"/>
<path d="M332.385 154.182C335.851 154.182 338.962 154.016 342.663 153.428L342.851 155.007C339.033 155.642 335.828 155.783 332.199 155.783H330.454V147.676H338.233V143.269H330.383V141.69H340.188V149.232H332.385V154.182ZM346.575 160.898H344.643V139.709H346.575V160.898Z" fill="#1A1311"/>
<path d="M362.409 151.565C360.054 150.717 358.238 148.971 357.294 146.779C356.398 149.208 354.467 151.14 351.992 152.059L350.978 150.527C354.114 149.42 356.304 146.591 356.304 143.598V142.749H351.591V141.17H362.881V142.749H358.238V143.598C358.238 146.309 360.311 148.971 363.376 150.057L362.409 151.565ZM354.184 153.544H368.325V160.898H366.37V155.099H354.184V153.544ZM368.325 139.732V152.39H366.37V146.826H362.246V145.247H366.37V139.732H368.325Z" fill="#1A1311"/>
<path d="M378.575 151.636C375.44 151.636 373.082 149.467 373.082 146.403C373.082 143.363 375.44 141.217 378.575 141.217C381.733 141.217 384.113 143.363 384.113 146.403C384.113 149.467 381.733 151.636 378.575 151.636ZM378.575 149.963C380.671 149.963 382.228 148.501 382.228 146.403C382.228 144.354 380.671 142.891 378.575 142.891C376.525 142.891 374.968 144.354 374.968 146.403C374.968 148.501 376.525 149.963 378.575 149.963ZM390.572 158.825V160.404H376.335V153.616H378.267V158.825H390.572ZM389.935 155.195H388.003V139.758H389.935V155.195Z" fill="#1A1311"/>
<path d="M419.982 148.949V150.503H400.844V148.949H409.444V146.214H411.38V148.949H419.982ZM418.238 147.323C414.89 146.875 411.756 145.413 410.412 143.151C409.091 145.413 405.933 146.875 402.586 147.323L401.927 145.815C405.816 145.39 409.422 143.386 409.422 140.676V139.898H411.401V140.676C411.401 143.386 415.008 145.39 418.897 145.815L418.238 147.323ZM405.109 159.131H418.168V160.639H403.224V155.665H415.621V153.71H403.153V152.248H417.529V157.079H405.109V159.131Z" fill="#1A1311"/>
<path d="M441.708 154.135H433.059V160.899H431.125V154.135H422.523V152.554H441.708V154.135ZM437.441 142.114H424.809V140.582H439.398V146.097H426.811V148.808H439.87V150.387H424.88V144.612H437.441V142.114Z" fill="#1A1311"/>
<path d="M455.494 152.366C453.206 151.401 451.415 149.49 450.496 147.134C449.625 149.679 447.762 151.706 445.287 152.719L444.251 151.187C447.409 149.963 449.531 146.946 449.531 143.621V140.912H451.462V143.621C451.462 146.732 453.513 149.632 456.554 150.834L455.494 152.366ZM462.137 158.823V160.402H448.046V153.922H449.977V158.823H462.137ZM459.688 148.783H455.422V147.204H459.688V144.422H455.422V142.867H459.688V139.732H461.644V155.524H459.688V148.783Z" fill="#1A1311"/>
<path d="M485.021 150.411H465.883V148.856H485.021V150.411ZM468.026 143.764C468.026 141.384 470.808 140.087 475.451 140.087C480.094 140.087 482.876 141.384 482.876 143.764C482.876 146.144 480.094 147.418 475.451 147.418C470.808 147.418 468.026 146.144 468.026 143.764ZM470.148 159.131H483.207V160.639H468.263V155.571H480.66V153.687H468.193V152.225H482.568V156.986H470.148V159.131ZM470.007 143.764C470.007 145.178 471.987 145.98 475.451 145.98C478.916 145.98 480.897 145.178 480.897 143.764C480.897 142.35 478.916 141.548 475.451 141.548C471.987 141.548 470.007 142.35 470.007 143.764Z" fill="#1A1311"/>
<path d="M500.385 145.696C500.385 149.373 501.964 153.05 504.885 154.7L503.707 156.114C501.656 154.888 500.197 152.625 499.464 149.939C498.735 152.837 497.201 155.313 495.105 156.633L493.926 155.195C496.872 153.428 498.522 149.586 498.522 145.696V143.788H494.515V142.207H504.156V143.788H500.385V145.696ZM506.041 140.205H507.88V159.768H506.041V148.903H502.552V147.324H506.041V140.205ZM512.145 160.851H510.284V139.709H512.145V160.851Z" fill="#1A1311"/>
<path d="M521.781 151.636C518.622 151.636 516.267 149.49 516.267 146.426C516.267 143.363 518.622 141.217 521.781 141.217C524.941 141.217 527.296 143.363 527.296 146.426C527.296 149.49 524.941 151.636 521.781 151.636ZM521.781 149.963C523.856 149.963 525.41 148.501 525.41 146.426C525.41 144.354 523.856 142.89 521.781 142.89C519.707 142.89 518.153 144.354 518.153 146.426C518.153 148.501 519.707 149.963 521.781 149.963ZM521.051 158.825H533.212V160.404H519.119V153.71H521.051V158.825ZM535.381 146.168V147.77H532.268V155.289H530.337V139.732H532.268V146.168H535.381Z" fill="#1A1311"/>
<path d="M544.685 143.127H549.894V144.683H537.429V143.127H542.754V139.993H544.685V143.127ZM548.905 151.306C548.905 154.182 546.762 156.161 543.745 156.161C540.773 156.161 538.63 154.182 538.63 151.306C538.63 148.454 540.773 146.427 543.745 146.427C546.762 146.427 548.905 148.454 548.905 151.306ZM547.067 151.306C547.067 149.396 545.676 148.029 543.745 148.029C541.835 148.029 540.446 149.396 540.446 151.306C540.446 153.191 541.835 154.559 543.745 154.559C545.676 154.559 547.067 153.191 547.067 151.306ZM557.296 150.057H553.832V160.875H551.9V139.758H553.832V148.431H557.296V150.057Z" fill="#1A1311"/>
<path d="M578.362 152.06H559.2V150.505H578.362V152.06ZM563.585 158.778H576.287V160.357H561.653V154.182H563.585V158.778ZM576.17 147.676H561.794V140.512H563.726V146.097H576.17V147.676Z" fill="#1A1311"/>
<path d="M606.641 153.358H597.992V160.875H596.06V153.358H587.528V151.777H606.619L606.641 153.358ZM588.659 148.478C592.336 147.935 595.989 145.508 595.989 142.726V142.608H589.319V141.055H604.756V142.608H598.133V142.726C598.133 145.508 601.788 147.935 605.511 148.478L604.756 150.01C601.481 149.444 598.344 147.676 597.073 145.179C595.778 147.676 592.665 149.444 589.389 150.01L588.659 148.478Z" fill="#1A1311"/>
<path d="M620.968 151.212C618.54 150.341 616.632 148.525 615.688 146.191C614.769 148.689 612.836 150.646 610.361 151.589L609.372 150.057C612.554 148.903 614.699 145.956 614.699 142.798V140.724H616.632V142.798C616.632 145.837 618.799 148.595 621.934 149.679L620.968 151.212ZM612.389 153.546H626.53V160.898H624.598V155.099H612.389V153.546ZM626.53 152.46H624.598V139.758H626.53V152.46Z" fill="#1A1311"/>
<path d="M638.828 155.078C640.833 154.982 642.884 154.841 644.817 154.582L644.958 156.02C640.243 156.798 635.153 156.868 631.263 156.868L630.98 155.242C632.771 155.242 634.799 155.219 636.897 155.148V152.885C634.399 152.578 632.771 151.116 632.771 148.995C632.771 146.616 634.846 145.083 637.863 145.083C640.88 145.083 642.931 146.616 642.931 148.995C642.931 151.095 641.328 152.554 638.828 152.862V155.078ZM644.274 143.882H631.427V142.326H636.897V139.732H638.828V142.326H644.274V143.882ZM637.863 151.401C639.771 151.401 641.091 150.458 641.091 148.995C641.091 147.512 639.771 146.569 637.863 146.569C635.929 146.569 634.611 147.512 634.611 148.995C634.611 150.458 635.929 151.401 637.863 151.401ZM648.091 160.875H646.159V139.732H648.091V160.875Z" fill="#1A1311"/>
<path d="M659.638 145.367C659.638 149.091 662.042 152.932 665.012 154.417L663.811 155.949C661.57 154.747 659.662 152.272 658.694 149.373C657.777 152.46 655.82 155.101 653.438 156.375L652.284 154.817C655.325 153.264 657.728 149.208 657.728 145.367V141.572H659.638V145.367ZM672.294 149.916H668.805V160.876H666.873V139.758H668.805V148.313H672.294V149.916Z" fill="#1A1311"/>
<path d="M683.674 154.206C687.422 154.206 690.06 154.04 693.171 153.522L693.361 155.078C690.109 155.644 687.375 155.785 683.392 155.785H681.742V141.643H691.592V143.222H683.674V147.582H691.12V149.138H683.674V154.206ZM700.573 149.845H697.084V160.851H695.152V139.734H697.084V148.219H700.573V149.845Z" fill="#1A1311"/>
<path d="M705.755 153.757C708.936 153.757 712.212 153.475 715.725 152.766L715.936 154.417C712.261 155.172 708.936 155.407 705.565 155.407H703.821V141.784H705.755V153.757ZM719.825 160.851H717.893V139.732H719.825V160.851Z" fill="#1A1311"/>
<path d="M735.707 145.602C735.707 148.525 733.372 150.482 730.169 150.482C726.986 150.482 724.676 148.525 724.676 145.602C724.676 142.726 726.986 140.747 730.169 140.747C733.372 140.747 735.707 142.726 735.707 145.602ZM726.562 145.602C726.562 147.535 728.071 148.877 730.169 148.877C732.314 148.877 733.823 147.535 733.823 145.602C733.823 143.694 732.314 142.35 730.169 142.35C728.071 142.35 726.562 143.694 726.562 145.602ZM729.814 152.131V154.723H739.62V152.131H741.528V160.592H727.906V152.131H729.814ZM729.814 159.037H739.62V156.232H729.814V159.037ZM741.528 151.095H739.596V139.758H741.528V151.095Z" fill="#1A1311"/>
<path d="M749.115 153.757C752.295 153.757 755.572 153.475 759.083 152.766L759.296 154.417C755.619 155.172 752.295 155.407 748.925 155.407H747.18V141.784H749.115V153.757ZM763.185 160.851H761.253V139.732H763.185V160.851Z" fill="#1A1311"/>
<path d="M770.369 153.992C774.117 153.992 776.828 153.826 779.89 153.285L780.102 154.888C776.873 155.501 774.093 155.642 770.11 155.642H768.436V141.76H778.266V143.363H770.369V153.992ZM787.292 149.679H783.802V160.922H781.871V139.732H783.802V148.076H787.292V149.679Z" fill="#1A1311"/>
<path d="M789.691 157.811C789.691 156.821 790.399 156.138 791.247 156.138C792.095 156.138 792.802 156.821 792.802 157.811C792.802 158.778 792.095 159.437 791.247 159.437C790.399 159.437 789.691 158.778 789.691 157.811Z" fill="#1A1311"/>
<path d="M10.0401 196.494H0.519043V187.584H10.0401V196.494ZM8.83731 188.622H1.74352V195.458H8.83731V188.622ZM17.0633 205.756V206.818H3.13441V199.605H16.5931V200.665H4.38426V205.756H17.0633ZM16.4285 198.308H15.1787V186.217H16.4285V198.308Z" fill="#1A1311"/>
<path d="M39.9923 196.635H21.0659V195.575H39.9923V196.635ZM23.3051 190.248C23.3051 187.892 25.9929 186.595 30.5418 186.595C35.0907 186.595 37.7766 187.892 37.7766 190.248C37.7766 192.629 35.0907 193.925 30.5418 193.925C25.9929 193.925 23.3051 192.629 23.3051 190.248ZM24.7195 205.805H38.1782V206.842H23.4932V202.152H36.2682V199.818H23.448V198.804H37.4945V203.117H24.7195V205.805ZM24.5784 190.248C24.5784 191.921 26.8882 192.936 30.5418 192.936C34.1936 192.936 36.5051 191.921 36.5051 190.248C36.5051 188.599 34.1936 187.584 30.5418 187.584C26.8882 187.584 24.5784 188.599 24.5784 190.248Z" fill="#1A1311"/>
<path d="M53.1867 197.6H43.7832V188.173H53.1867V197.6ZM51.9857 189.209H45.0095V196.562H51.9857V189.209ZM47.3645 205.567H59.9278V206.627H46.1165V200.147H47.3645V205.567ZM62.167 192.769V193.829H58.8896V201.585H57.6416V186.169H58.8896V192.769H62.167Z" fill="#1A1311"/>
<path d="M76.9193 190.036H64.5205V188.998H70.1076V186.241H71.3575V188.998H76.9193V190.036ZM70.7208 199.087C67.7509 199.087 65.7703 197.578 65.7703 195.268C65.7703 192.935 67.7509 191.427 70.7208 191.427C73.6907 191.427 75.6459 192.935 75.6459 195.268C75.6459 197.578 73.6907 199.087 70.7208 199.087ZM70.7208 198.072C72.9582 198.072 74.4667 196.894 74.4667 195.268C74.4667 193.594 72.9582 192.44 70.7208 192.44C68.4816 192.44 66.9496 193.594 66.9496 195.268C66.9496 196.894 68.4816 198.072 70.7208 198.072ZM69.0459 205.567H81.6093V206.629H67.7979V200.666H69.0459V205.567ZM83.8484 193.406V194.465H80.571V201.961H79.323V186.241H80.571V193.406H83.8484Z" fill="#1A1311"/>
<path d="M104.252 198.19C101.895 197.272 99.8914 195.385 99.0214 193.052C98.1713 195.669 96.0262 197.744 93.5753 198.733L92.917 197.718C95.8145 196.635 98.3829 193.83 98.3829 190.672V189.14H93.3872V188.08H104.513V189.14H99.6092V190.648C99.6092 193.501 102.038 196.139 104.889 197.178L104.252 198.19ZM110.404 205.568V206.628H96.6863V200.218H97.9362V205.568H110.404ZM108.519 192.204V186.217H109.767V201.631H108.519V193.264H103.782V192.204H108.519Z" fill="#1A1311"/>
<path d="M133.382 197.107V198.167H124.566V202.833H123.316V198.167H114.361V197.107H133.382ZM130.859 194.325H116.881V187.255H130.859V194.325ZM118.156 205.568H131.26V206.628H116.906V200.665H118.156V205.568ZM129.658 188.291H118.109V193.289H129.658V188.291Z" fill="#1A1311"/>
<path d="M152.113 200.335C153.386 200.264 154.66 200.17 155.862 200.006L155.933 200.971C151.455 201.655 146.387 201.702 142.615 201.702L142.427 200.593C143.393 200.593 144.406 200.593 145.491 200.57V189.705H142.968V188.643H154.636V189.705H152.113V200.335ZM146.718 200.57C148.06 200.523 149.498 200.499 150.888 200.405V189.705H146.718V200.57ZM162.249 195.903H158.595V207.123H157.347V186.192H158.595V194.82H162.249V195.903Z" fill="#1A1311"/>
<path d="M183.338 204.271H164.341V203.211H183.338V204.271ZM181.076 198.85H166.91V188.149H180.864V189.209H168.185V192.886H180.415V193.923H168.185V197.79H181.076V198.85Z" fill="#1A1311"/>
<path d="M188.734 200.923C192.151 200.923 194.932 200.735 198.09 200.075L198.302 201.159C195.003 201.795 192.221 202.007 188.734 202.007H187.2V188.597H188.452V200.923H188.734ZM203.11 186.217V207.169H201.862V194.419H194.932V193.358H201.862V186.217H203.11Z" fill="#1A1311"/>
<path d="M226.697 204.153H207.7V203.093H226.697V204.153ZM224.977 198.143C222.221 197.436 218.426 195.102 217.129 191.827C215.832 195.102 212.085 197.412 209.305 198.143L208.715 197.083C211.708 196.47 216.469 193.359 216.469 189.47V187.797H217.766V189.47C217.766 193.335 222.599 196.493 225.567 197.083L224.977 198.143Z" fill="#1A1311"/>
<path d="M248.378 197.128H229.357V196.139H248.378V197.128ZM232.989 205.803H246.658V206.793H231.785V202.432H244.726V200.216H231.714V199.25H245.929V203.374H232.989V205.803ZM244.632 187.913H231.834V186.947H245.858V190.954H233.107V193.216H246.235V194.182H231.881V190.035H244.632V187.913Z" fill="#1A1311"/>
<path d="M276.585 197.482V198.542H257.684V197.482H266.498V194.936H260.252V186.853H274.159V187.865H261.502V190.316H273.568V191.331H261.502V193.923H274.251V194.936H267.747V197.482H276.585ZM274.251 203.775C274.251 205.944 271.685 207.074 267.134 207.074C262.585 207.074 260.017 205.944 260.017 203.775C260.017 201.63 262.585 200.497 267.134 200.497C271.685 200.497 274.251 201.63 274.251 203.775ZM273.003 203.775C273.003 202.337 270.788 201.465 267.134 201.465C263.481 201.465 261.267 202.337 261.267 203.775C261.267 205.26 263.481 206.085 267.134 206.085C270.788 206.085 273.003 205.26 273.003 203.775Z" fill="#1A1311"/>
<path d="M285.232 190.059H289.924V191.118H279.318V190.059H283.984V186.828H285.232V190.059ZM289.051 197.436C289.051 200.193 287.189 202.103 284.597 202.103C282.051 202.103 280.164 200.193 280.164 197.436C280.164 194.701 282.051 192.791 284.597 192.791C287.189 192.791 289.051 194.701 289.051 197.436ZM287.918 197.436C287.918 195.432 286.529 193.853 284.597 193.853C282.688 193.853 281.297 195.432 281.297 197.436C281.297 199.462 282.688 201.018 284.597 201.018C286.529 201.018 287.918 199.462 287.918 197.436ZM296.924 186.217V207.145H295.698V196.28H292.373V206.039H291.149V186.736H292.373V195.221H295.698V186.217H296.924Z" fill="#1A1311"/>
<path d="M320.11 189.588H307.713V188.552H313.298V185.958H314.548V188.552H320.11V189.588ZM313.911 198.12C310.918 198.12 308.963 196.729 308.963 194.49C308.963 192.227 310.918 190.836 313.911 190.836C316.881 190.836 318.838 192.227 318.838 194.49C318.838 196.729 316.881 198.12 313.911 198.12ZM313.911 197.13C316.151 197.13 317.659 196.045 317.659 194.49C317.659 192.911 316.151 191.827 313.911 191.827C311.672 191.827 310.14 192.911 310.14 194.49C310.14 196.045 311.672 197.13 313.911 197.13ZM322.515 199.276H323.763V206.818H310.847V199.276H312.097V201.891H322.515V199.276ZM322.515 202.927H312.097V205.78H322.515V202.927ZM327.041 192.817H323.763V198.308H322.515V186.218H323.763V191.733H327.041V192.817Z" fill="#1A1311"/>
<path d="M332.245 200.924C335.614 200.924 338.845 200.76 342.804 200.147L342.921 201.207C338.915 201.843 335.685 201.984 332.245 201.984H330.572V194.277H338.845V189.327H330.501V188.244H340.069V195.337H331.821V200.924H332.245ZM346.315 207.17H345.067V186.218H346.315V207.17Z" fill="#1A1311"/>
<path d="M362.528 197.812C360.169 196.894 358.167 195.007 357.295 192.697C356.447 195.315 354.325 197.366 351.851 198.332L351.191 197.34C354.09 196.257 356.659 193.452 356.659 190.294V188.879H351.661V187.819H362.787V188.879H357.885V190.27C357.885 193.146 360.312 195.787 363.165 196.823L362.528 197.812ZM354.231 200.005H368.043V207.122H366.795V201.064H354.231V200.005ZM368.043 186.217V198.755H366.795V193.005H362.079V191.945H366.795V186.217H368.043Z" fill="#1A1311"/>
<path d="M378.575 197.885C375.511 197.885 373.271 195.787 373.271 192.793C373.271 189.823 375.511 187.749 378.575 187.749C381.639 187.749 383.878 189.823 383.878 192.793C383.878 195.787 381.639 197.885 378.575 197.885ZM378.575 196.776C380.908 196.776 382.675 195.056 382.675 192.793C382.675 190.554 380.908 188.857 378.575 188.857C376.24 188.857 374.474 190.554 374.474 192.793C374.474 195.056 376.24 196.776 378.575 196.776ZM390.405 205.568V206.628H376.547V200.052H377.797V205.568H390.405ZM389.7 201.679H388.452V186.24H389.7V201.679Z" fill="#1A1311"/>
<path d="M419.862 195.692V196.729H400.936V195.692H409.775V192.675H411.025V195.692H419.862ZM418.283 193.688C415.292 193.218 411.662 191.733 410.412 189.233C409.162 191.733 405.51 193.218 402.517 193.688L402.068 192.699C405.346 192.297 409.775 190.295 409.775 187.349V186.334H411.049V187.349C411.049 190.295 415.48 192.297 418.732 192.699L418.283 193.688ZM404.592 205.803H418.048V206.839H403.365V202.267H416.14V199.84H403.318V198.85H417.365V203.258H404.592V205.803Z" fill="#1A1311"/>
<path d="M441.614 200.051H432.704V207.17H431.456V200.051H422.595V199.014H441.614V200.051ZM438.009 188.173H424.928V187.135H439.235V192.156H426.247V195.384H439.682V196.446H424.999V191.119H438.009V188.173Z" fill="#1A1311"/>
<path d="M455.633 198.449C453.347 197.46 451.343 195.385 450.497 192.864C449.646 195.622 447.572 197.789 445.121 198.851L444.438 197.859C447.36 196.658 449.835 193.641 449.835 190.225V187.372H451.061V190.225C451.061 193.383 453.488 196.306 456.364 197.46L455.633 198.449ZM461.881 205.568V206.628H448.163V200.242H449.411V205.568H461.881ZM460.112 195.032H455.445V193.973H460.112V190.601H455.445V189.541H460.112V186.24H461.36V201.915H460.112V195.032Z" fill="#1A1311"/>
<path d="M484.902 196.635H465.976V195.575H484.902V196.635ZM468.217 190.248C468.217 187.892 470.903 186.595 475.451 186.595C480 186.595 482.688 187.892 482.688 190.248C482.688 192.629 480 193.925 475.451 193.925C470.903 193.925 468.217 192.629 468.217 190.248ZM469.631 205.805H483.09V206.842H468.405V202.152H481.18V199.818H468.358V198.804H482.406V203.117H469.631V205.805ZM469.488 190.248C469.488 191.921 471.798 192.936 475.451 192.936C479.105 192.936 481.415 191.921 481.415 190.248C481.415 188.599 479.105 187.584 475.451 187.584C471.798 187.584 469.488 188.599 469.488 190.248Z" fill="#1A1311"/>
<path d="M500.102 192.344C500.102 196.045 502.034 199.769 504.792 201.348L503.989 202.292C501.867 200.995 500.243 198.542 499.513 195.668C498.78 198.756 497.085 201.442 494.917 202.786L494.092 201.843C496.895 200.17 498.899 196.329 498.899 192.344V189.917H494.562V188.857H504.271V189.917H500.102V192.344ZM506.512 186.782H507.715V205.991H506.512V195.008H502.622V193.923H506.512V186.782ZM511.933 207.146H510.707V186.218H511.933V207.146Z" fill="#1A1311"/>
<path d="M521.828 197.884C518.739 197.884 516.5 195.786 516.5 192.816C516.5 189.823 518.739 187.748 521.828 187.748C524.869 187.748 527.132 189.823 527.132 192.816C527.132 195.786 524.869 197.884 521.828 197.884ZM521.828 196.775C524.138 196.775 525.905 195.079 525.905 192.816C525.905 190.553 524.138 188.857 521.828 188.857C519.472 188.857 517.703 190.553 517.703 192.816C517.703 195.079 519.472 196.775 521.828 196.775ZM520.555 205.567H533.119V206.627H519.305V200.147H520.555V205.567ZM535.358 192.769V193.852H532.08V201.726H530.832V186.192H532.08V192.769H535.358Z" fill="#1A1311"/>
<path d="M544.451 189.681H549.942V190.741H537.498V189.681H543.203V186.404H544.451V189.681ZM548.835 197.529C548.835 200.311 546.762 202.219 543.861 202.219C540.962 202.219 538.889 200.311 538.889 197.529C538.889 194.771 540.962 192.816 543.861 192.816C546.762 192.816 548.835 194.771 548.835 197.529ZM547.658 197.529C547.658 195.455 546.053 193.899 543.861 193.899C541.645 193.899 540.066 195.455 540.066 197.529C540.066 199.579 541.645 201.158 543.861 201.158C546.053 201.158 547.658 199.579 547.658 197.529ZM557.202 196.139H553.549V207.121H552.299V186.192H553.549V195.079H557.202V196.139Z" fill="#1A1311"/>
<path d="M578.292 198.19H559.295V197.13H578.292V198.19ZM563.137 205.543H576.17V206.604H561.889V200.547H563.137V205.543ZM576.054 193.947H561.983V186.971H563.233V192.887H576.054V193.947Z" fill="#1A1311"/>
<path d="M606.501 199.393H597.638V207.1H596.39V199.393H587.574V198.355H606.524L606.501 199.393ZM588.822 195.22C591.937 194.701 596.366 192.297 596.366 189.163V188.693H589.412V187.631H604.638V188.693H597.708V189.163C597.708 192.297 602.142 194.701 605.253 195.22L604.757 196.258C601.858 195.669 598.253 193.806 597.05 191.096C595.824 193.806 592.219 195.669 589.318 196.258L588.822 195.22Z" fill="#1A1311"/>
<path d="M621.134 197.459C618.705 196.493 616.584 194.513 615.688 191.921C614.816 194.655 612.695 196.846 610.268 197.884L609.607 196.869C612.53 195.715 615.052 192.675 615.052 189.256V187.184H616.278V189.256C616.278 192.534 618.87 195.361 621.769 196.47L621.134 197.459ZM612.483 200.006H626.295V207.123H625.047V201.065H612.483V200.006ZM626.295 198.873H625.047V186.192H626.295V198.873Z" fill="#1A1311"/>
<path d="M638.594 201.585C640.763 201.489 642.978 201.324 645.029 201.066L645.122 202.008C640.408 202.762 635.224 202.833 631.287 202.833L631.075 201.749C632.962 201.749 635.105 201.726 637.321 201.63V199.038C634.705 198.85 633.032 197.435 633.032 195.243C633.032 192.887 634.987 191.402 637.934 191.402C640.88 191.402 642.861 192.887 642.861 195.243C642.861 197.412 641.188 198.826 638.594 199.038V201.585ZM644.322 189.964H631.571V188.927H637.321V186.169H638.57V188.927H644.322V189.964ZM637.934 198.072C640.15 198.072 641.681 196.893 641.681 195.243C641.681 193.57 640.15 192.414 637.934 192.414C635.718 192.414 634.21 193.57 634.21 195.243C634.21 196.893 635.718 198.072 637.934 198.072ZM647.739 207.123H646.491V186.218H647.739V207.123Z" fill="#1A1311"/>
<path d="M659.211 192.32C659.211 195.95 662.112 199.745 664.847 201.16L664.068 202.125C661.805 200.899 659.567 198.26 658.647 195.196C657.728 198.425 655.489 201.277 653.203 202.574L652.425 201.559C655.183 200.1 658.01 196.091 658.01 192.32V188.124H659.211V192.32ZM672.199 195.997H668.546V207.146H667.296V186.192H668.546V194.938H672.199V195.997Z" fill="#1A1311"/>
<path d="M683.437 200.852C687.491 200.852 690.155 200.711 693.313 200.121L693.479 201.183C690.202 201.771 687.54 201.912 683.437 201.912H681.858V188.195H691.569V189.256H683.108V194.111H691.005V195.173H683.108V200.852H683.437ZM700.479 195.95H696.826V207.145H695.576V186.192H696.826V194.891H700.479V195.95Z" fill="#1A1311"/>
<path d="M705.685 200.499C708.958 200.499 712.212 200.241 715.772 199.487L715.962 200.57C712.283 201.324 709.078 201.608 705.685 201.608H704.057V188.267H705.283V200.499H705.685ZM719.518 207.146H718.27V186.218H719.518V207.146Z" fill="#1A1311"/>
<path d="M735.472 192.039C735.472 194.868 733.28 196.776 730.144 196.776C727.056 196.776 724.864 194.868 724.864 192.039C724.864 189.21 727.056 187.302 730.144 187.302C733.28 187.302 735.472 189.21 735.472 192.039ZM726.067 192.039C726.067 194.161 727.789 195.716 730.144 195.716C732.548 195.716 734.27 194.161 734.27 192.039C734.27 189.894 732.548 188.362 730.144 188.362C727.789 188.362 726.067 189.894 726.067 192.039ZM729.319 198.543V201.466H740.068V198.543H741.293V206.818H728.071V198.543H729.319ZM729.319 205.78H740.066V202.504H729.319V205.78ZM741.293 197.436H740.045V186.217H741.293V197.436Z" fill="#1A1311"/>
<path d="M749.045 200.499C752.319 200.499 755.573 200.241 759.132 199.487L759.32 200.57C755.643 201.324 752.438 201.608 749.045 201.608H747.417V188.267H748.643V200.499H749.045ZM762.878 207.146H761.63V186.218H762.878V207.146Z" fill="#1A1311"/>
<path d="M770.156 200.735C774.21 200.735 776.899 200.571 780.032 199.981L780.198 201.066C776.944 201.68 774.258 201.821 770.156 201.821H768.577V188.291H778.267V189.351H769.827V200.735H770.156ZM787.198 195.857H783.544V207.171H782.295V186.217H783.544V194.797H787.198V195.857Z" fill="#1A1311"/>
<path d="M789.715 204.529C789.715 203.728 790.281 203.232 790.918 203.232C791.554 203.232 792.121 203.728 792.121 204.529C792.121 205.307 791.554 205.803 790.918 205.803C790.281 205.803 789.715 205.307 789.715 204.529Z" fill="#1A1311"/>
</svg>
