<svg width="675" height="110" viewBox="0 0 675 110" fill="none" xmlns="http://www.w3.org/2000/svg">
<path d="M23.4717 8.20015C23.4717 6.20514 24.0034 4.64062 25.0706 3.50655C26.1359 2.37067 27.5793 1.80273 29.4025 1.80273C31.2257 1.80273 32.669 2.37067 33.7362 3.50655C34.8015 4.64062 35.3351 6.20514 35.3351 8.20015V33.8894C35.3351 35.8844 34.8015 37.4471 33.7362 38.583C32.669 39.7171 31.2257 40.285 29.4025 40.285C27.5793 40.285 26.1359 39.7171 25.0706 38.583C24.0034 37.4471 23.4717 35.8844 23.4717 33.8894V25.222H11.8652V33.8894C11.8652 35.8844 11.3316 37.4471 10.2663 38.583C9.19911 39.7171 7.75578 40.285 5.93259 40.285C4.10941 40.285 2.66603 39.7171 1.60072 38.583C0.533554 37.4471 0 35.8844 0 33.8894V8.20015C0 6.20514 0.533554 4.64062 1.60072 3.50655C2.66603 2.37067 4.10941 1.80273 5.93259 1.80273C7.75578 1.80273 9.19911 2.37067 10.2663 3.50655C11.3316 4.64062 11.8652 6.20514 11.8652 8.20015V15.2144H23.4717V8.20015Z" fill="#1A1311"/>
<path d="M69.4581 36.5463C68.9589 37.2499 68.1594 37.8866 67.0597 38.4545C65.9582 39.0206 64.513 39.4692 62.7261 39.7948C60.9372 40.1221 58.8065 40.2849 56.3304 40.2849C54.1636 40.2849 52.1686 40.001 50.3454 39.4348C48.524 38.8669 46.9233 37.9987 45.5505 36.8285C44.1741 35.66 43.1069 34.1805 42.3509 32.3935C41.5948 30.6047 41.2168 28.5066 41.2168 26.0992C41.2168 23.7279 41.5948 21.6461 42.3509 19.8573C43.1069 18.0702 44.1741 16.5907 45.5505 15.4223C46.9233 14.2539 48.524 13.3839 50.3454 12.8159C52.1686 12.2498 54.1636 11.9658 56.3304 11.9658C59.1158 11.9658 61.5142 12.3782 63.5255 13.203C65.5368 14.0296 67.1447 15.0859 68.3493 16.3755C69.5521 17.6669 70.4294 18.9981 70.9792 20.3745C71.529 21.7492 71.8058 23.0045 71.8058 24.1403C71.8058 25.7211 71.4187 26.8389 70.6446 27.4918C69.8705 28.1466 68.6243 28.4722 66.9042 28.4722H51.843C51.9787 30.1923 52.5394 31.5597 53.5179 32.5725C54.4982 33.5873 55.8312 34.0955 57.5169 34.0955C58.4104 34.0955 59.228 33.949 59.9659 33.656C60.7057 33.3648 61.592 32.927 62.6229 32.341C63.5164 31.8256 64.2833 31.4385 64.9182 31.1798C65.5549 30.923 66.2168 30.7928 66.9042 30.7928C67.7977 30.7928 68.5718 31.1545 69.2265 31.878C69.8795 32.5997 70.2051 33.4082 70.2051 34.3017C70.2051 35.0921 69.9555 35.8409 69.4581 36.5463ZM61.7982 23.2106C61.7982 21.458 61.3333 20.1756 60.4055 19.3671C59.4776 18.5604 58.2911 18.1571 56.8459 18.1571C55.5056 18.1571 54.3517 18.5604 53.3895 19.3671C52.4272 20.1756 51.9117 21.458 51.843 23.2106H61.7982Z" fill="#1A1311"/>
<path d="M76.2915 7.06622C76.2915 5.34616 76.7726 4.04028 77.7349 3.14674C78.6989 2.25145 79.9867 1.80469 81.6055 1.80469C83.2207 1.80469 84.5103 2.25145 85.4744 3.14674C86.4348 4.04028 86.9177 5.34616 86.9177 7.06622V35.0254C86.9177 36.7437 86.4348 38.0514 85.4744 38.9449C84.5103 39.8384 83.2207 40.2852 81.6055 40.2852C79.9867 40.2852 78.6989 39.8384 77.7349 38.9449C76.7726 38.0514 76.2915 36.7437 76.2915 35.0254V7.06622Z" fill="#1A1311"/>
<path d="M107.654 16.7645C108.067 15.0788 108.617 13.8597 109.306 13.1018C109.991 12.3458 111.127 11.9678 112.71 11.9678C114.119 11.9678 115.289 12.3801 116.217 13.2049C117.147 14.0297 117.61 15.1131 117.61 16.4552C117.61 17.1425 117.532 17.8569 117.378 18.5949C117.222 19.3347 116.957 20.2209 116.579 21.2519L111.058 36.6224C110.474 38.2412 109.7 39.2541 108.738 39.6664C107.774 40.0807 106.209 40.285 104.042 40.285C101.98 40.285 100.467 40.0807 99.5043 39.6664C98.5403 39.2541 97.768 38.2412 97.1819 36.6224L91.6636 21.2519L91.6111 21.0981C91.1987 19.8936 90.9075 18.9747 90.7357 18.3381C90.562 17.7014 90.4771 17.0738 90.4771 16.4552C90.4771 15.1131 90.9419 14.0297 91.8697 13.2049C92.7976 12.3801 93.9678 11.9678 95.3769 11.9678C97.0282 11.9678 98.1894 12.2933 98.8586 12.9463C99.5296 13.601 100.105 14.8744 100.588 16.7645L104.147 30.4854H104.25L107.654 16.7645Z" fill="#1A1311"/>
<path d="M148.687 36.5463C148.188 37.2499 147.388 37.8866 146.289 38.4545C145.187 39.0206 143.742 39.4692 141.955 39.7948C140.166 40.1221 138.036 40.2849 135.559 40.2849C133.393 40.2849 131.398 40.001 129.574 39.4348C127.753 38.8669 126.152 37.9987 124.779 36.8285C123.403 35.66 122.336 34.1805 121.58 32.3935C120.824 30.6047 120.446 28.5066 120.446 26.0992C120.446 23.7279 120.824 21.6461 121.58 19.8573C122.336 18.0702 123.403 16.5907 124.779 15.4223C126.152 14.2539 127.753 13.3839 129.574 12.8159C131.398 12.2498 133.393 11.9658 135.559 11.9658C138.345 11.9658 140.743 12.3782 142.754 13.203C144.766 14.0296 146.374 15.0859 147.578 16.3755C148.781 17.6669 149.658 18.9981 150.208 20.3745C150.758 21.7492 151.035 23.0045 151.035 24.1403C151.035 25.7211 150.648 26.8389 149.874 27.4918C149.099 28.1466 147.853 28.4722 146.133 28.4722H131.072C131.208 30.1923 131.768 31.5597 132.747 32.5725C133.727 33.5873 135.06 34.0955 136.746 34.0955C137.639 34.0955 138.457 33.949 139.195 33.656C139.935 33.3648 140.821 32.927 141.852 32.341C142.745 31.8256 143.512 31.4385 144.147 31.1798C144.784 30.923 145.446 30.7928 146.133 30.7928C147.027 30.7928 147.801 31.1545 148.456 31.878C149.108 32.5997 149.434 33.4082 149.434 34.3017C149.434 35.0921 149.184 35.8409 148.687 36.5463ZM141.027 23.2106C141.027 21.458 140.562 20.1756 139.634 19.3671C138.707 18.5604 137.52 18.1571 136.075 18.1571C134.735 18.1571 133.581 18.5604 132.618 19.3671C131.656 20.1756 131.141 21.458 131.072 23.2106H141.027Z" fill="#1A1311"/>
<path d="M157.998 9.23296C157.998 7.44594 158.436 6.1111 159.313 5.23569C160.191 4.35846 161.471 3.91895 163.157 3.91895C164.841 3.91895 166.123 4.35846 167 5.23569C167.876 6.1111 168.315 7.44594 168.315 9.23296V12.637H171.41C173.609 12.637 174.711 13.6697 174.711 15.7317C174.711 17.7954 173.609 18.8282 171.41 18.8282H168.315V30.5361V31.3102C168.315 32.1367 168.71 32.5491 169.5 32.5491C171.461 32.5491 172.819 32.8403 173.577 33.4246C174.333 34.0106 174.711 34.9565 174.711 36.2625C174.711 37.4996 174.177 38.4799 173.112 39.2034C172.047 39.9251 170.102 40.285 167.283 40.285C164.257 40.285 161.952 39.529 160.371 38.0169C158.789 36.503 157.998 34.2511 157.998 31.2595V18.8282H156.038C153.836 18.8282 152.737 17.7954 152.737 15.7317C152.737 13.6697 153.836 12.637 156.038 12.637H157.998V9.23296Z" fill="#1A1311"/>
<path d="M177.496 17.2298C177.496 15.5097 177.977 14.2039 178.941 13.3086C179.904 12.415 181.193 11.9683 182.81 11.9683C184.425 11.9683 185.715 12.415 186.679 13.3086C187.641 14.2039 188.122 15.5097 188.122 17.2298V35.0258C188.122 36.7459 187.641 38.0518 186.679 38.9453C185.715 39.8406 184.425 40.2874 182.81 40.2874C181.193 40.2874 179.904 39.8406 178.941 38.9453C177.977 38.0518 177.496 36.7459 177.496 35.0258V17.2298ZM179.251 1.44519C180.213 0.482941 181.399 0 182.81 0C184.219 0 185.406 0.482941 186.37 1.44519C187.332 2.40741 187.813 3.59393 187.813 5.0047C187.813 6.41553 187.332 7.60025 186.37 8.5643C185.406 9.52652 184.219 10.0076 182.81 10.0076C181.399 10.0076 180.213 9.52652 179.251 8.5643C178.287 7.60025 177.805 6.41553 177.805 5.0047C177.805 3.59393 178.287 2.40741 179.251 1.44519Z" fill="#1A1311"/>
<path d="M194.106 19.8592C194.862 18.0722 195.929 16.5927 197.305 15.4224C198.678 14.254 200.279 13.3858 202.1 12.8178C203.923 12.2499 205.918 11.9678 208.085 11.9678C209.872 11.9678 211.533 12.1649 213.063 12.5592C214.593 12.9553 215.908 13.4979 217.01 14.1852C218.109 14.8744 218.952 15.6557 219.536 16.533C220.121 17.4102 220.414 18.3127 220.414 19.2406C220.414 20.409 220.052 21.355 219.33 22.0767C218.608 22.7983 217.697 23.1601 216.597 23.1601C216.045 23.1601 215.539 23.0244 215.074 22.7477C214.609 22.4728 214.05 22.0604 213.399 21.5105C212.607 20.8232 211.885 20.2969 211.232 19.937C210.578 19.5752 209.804 19.3943 208.91 19.3943C207.879 19.3943 207.009 19.5843 206.306 19.9623C205.6 20.3421 205.05 20.8486 204.656 21.4834C204.258 22.1201 203.983 22.8164 203.829 23.5725C203.676 24.3303 203.598 25.1026 203.598 25.8949C203.598 27.8881 203.976 29.5485 204.732 30.8724C205.488 32.1964 206.727 32.8584 208.447 32.8584C209.272 32.8584 210.01 32.6866 210.665 32.343C211.318 31.9993 212.057 31.5001 212.882 30.8472C213.638 30.2611 214.284 29.8234 214.817 29.5304C215.349 29.2392 215.926 29.0927 216.545 29.0927C217.747 29.0927 218.711 29.4978 219.433 30.3045C220.155 31.113 220.517 32.0156 220.517 33.0122C220.517 33.6326 220.292 34.3452 219.846 35.1537C219.399 35.9622 218.684 36.7616 217.706 37.5521C216.726 38.3443 215.427 38.9972 213.812 39.5127C212.193 40.0282 210.285 40.285 208.085 40.285C205.918 40.285 203.923 40.0029 202.1 39.435C200.279 38.867 198.678 37.9988 197.305 36.8304C195.929 35.662 194.862 34.1824 194.106 32.3936C193.35 30.6066 192.972 28.5085 192.972 26.101C192.972 23.728 193.35 21.648 194.106 19.8592Z" fill="#1A1311"/>
<path d="M254.148 31.7225C254.148 32.3754 254.199 33.3214 254.303 34.5585C254.407 35.4538 254.457 36.1068 254.457 36.5192C254.457 37.7563 253.974 38.6951 253.014 39.3299C252.05 39.9666 250.88 40.2849 249.505 40.2849C247.785 40.2849 246.513 39.9051 245.689 39.1491C244.862 38.393 244.346 37.3439 244.14 36.0037C243.178 37.4814 241.845 38.5666 240.143 39.2522C238.441 39.9413 236.609 40.2849 234.65 40.2849C231.553 40.2849 229.104 39.6067 227.298 38.2465C225.492 36.8882 224.59 34.7828 224.59 31.9286C224.59 30.7602 224.814 29.7021 225.261 28.7561C225.708 27.8102 226.456 26.9601 227.506 26.2022C228.553 25.4462 229.964 24.8349 231.736 24.3718C233.507 23.907 235.681 23.5887 238.26 23.4168C240.324 23.2794 241.767 23.0225 242.592 22.6427C243.419 22.2646 243.831 21.6461 243.831 20.7852C243.831 19.0325 242.404 18.1553 239.55 18.1553C238.483 18.1553 237.58 18.3199 236.842 18.6454C236.102 18.9728 235.25 19.4792 234.288 20.1666C233.498 20.7182 232.818 21.1306 232.252 21.4055C231.684 21.6805 231.02 21.8179 230.266 21.8179C228.028 21.8179 226.912 20.7182 226.912 18.517C226.912 16.5564 228.131 14.9755 230.573 13.7709C233.017 12.5681 236.11 11.9658 239.859 11.9658C241.474 11.9658 243.091 12.078 244.708 12.3004C246.323 12.5247 247.855 12.9281 249.299 13.5123C250.744 14.0983 251.912 14.914 252.806 15.9631C253.701 17.0122 254.148 18.3289 254.148 19.9097V31.7225ZM243.831 27.4918C243.419 27.9404 242.878 28.2569 242.207 28.4469C241.536 28.635 240.666 28.8159 239.602 28.9877C238.293 29.1939 237.417 29.3838 236.971 29.5556C236.007 29.9336 235.525 30.6734 235.525 31.7731C235.525 32.531 235.844 33.1586 236.48 33.656C237.117 34.1552 237.88 34.4048 238.776 34.4048C240.253 34.4048 241.465 34.0177 242.413 33.2436C243.357 32.4695 243.831 31.5669 243.831 30.536V27.4918Z" fill="#1A1311"/>
<path d="M260.339 9.54224C260.339 7.06609 260.914 5.27003 262.066 4.15227C263.218 3.03448 265.067 2.47559 267.612 2.47559H280.767C285.062 2.47559 288.331 3.474 290.566 5.46719C292.802 7.4622 293.918 9.97273 293.918 12.9987C293.918 15.3717 293.247 17.3306 291.908 18.8788C290.566 20.4253 288.725 21.4237 286.386 21.8705V21.9735C288.414 22.111 290.007 22.5921 291.159 23.4187C292.312 24.2435 293.008 25.5838 293.247 27.4413L293.661 30.536C293.835 31.6375 293.961 32.5998 294.05 33.4245C294.135 34.2511 294.176 35.0253 294.176 35.7451C294.176 37.0872 293.636 38.1797 292.552 39.0207C291.467 39.8636 290.237 40.285 288.864 40.285C287.041 40.285 285.547 39.8726 284.377 39.0479C283.208 38.2231 282.519 36.9335 282.313 35.179L281.745 30.2792C281.571 28.8684 281.038 27.8718 280.144 27.2876C279.251 26.7015 278.048 26.4103 276.536 26.4103H271.893V34.0956C271.893 36.0906 271.394 37.6208 270.397 38.6861C269.399 39.7514 267.972 40.285 266.116 40.285C264.258 40.285 262.831 39.7514 261.835 38.6861C260.836 37.6208 260.339 36.0906 260.339 34.0956V9.54224ZM277.824 18.6727C279.544 18.6727 280.781 18.3887 281.541 17.8207C282.297 17.2528 282.675 16.334 282.675 15.0606C282.675 13.7891 282.297 12.8703 281.541 12.3023C280.781 11.7344 279.544 11.4504 277.824 11.4504H271.893V18.6727H277.824Z" fill="#1A1311"/>
<path d="M300.109 19.8591C300.865 18.0702 301.929 16.5925 303.305 15.4223C304.681 14.2539 306.28 13.3857 308.104 12.8177C309.925 12.2498 311.92 11.9658 314.087 11.9658C316.252 11.9658 318.247 12.2498 320.07 12.8177C321.893 13.3857 323.49 14.2539 324.867 15.4223C326.243 16.5925 327.31 18.0702 328.066 19.8591C328.822 21.6461 329.202 23.7279 329.202 26.0992C329.202 28.5066 328.822 30.6065 328.066 32.3935C327.31 34.1823 326.243 35.6619 324.867 36.8303C323.49 37.9987 321.893 38.8669 320.07 39.4348C318.247 40.001 316.252 40.2849 314.087 40.2849C311.92 40.2849 309.925 40.001 308.104 39.4348C306.28 38.8669 304.681 37.9987 303.305 36.8303C301.929 35.6619 300.865 34.1823 300.109 32.3935C299.351 30.6065 298.973 28.5066 298.973 26.0992C298.973 23.7279 299.351 21.6461 300.109 19.8591ZM317.413 20.89C316.639 19.6873 315.532 19.0849 314.087 19.0849C312.642 19.0849 311.533 19.6873 310.759 20.89C309.986 22.0947 309.599 23.9341 309.599 26.4102C309.599 30.914 311.095 33.1676 314.087 33.1676C317.078 33.1676 318.576 30.914 318.576 26.4102C318.576 23.9341 318.189 22.0947 317.413 20.89Z" fill="#1A1311"/>
<path d="M352.361 17.2274C352.361 15.5091 352.844 14.2014 353.806 13.3079C354.768 12.4126 356.058 11.9658 357.675 11.9658C359.29 11.9658 360.58 12.4126 361.544 13.3079C362.504 14.2014 362.987 15.5091 362.987 17.2274V35.2296C362.987 38.601 361.287 40.2849 357.881 40.2849C356.367 40.2849 355.251 39.8725 354.528 39.0478C353.806 38.2212 353.341 36.9677 353.135 35.282H353.032C351.209 38.6173 348.286 40.2849 344.262 40.2849C340.755 40.2849 338.152 39.3317 336.448 37.4235C334.746 35.5135 333.894 32.9958 333.894 29.8649V17.2274C333.894 15.5091 334.377 14.2014 335.339 13.3079C336.301 12.4126 337.591 11.9658 339.208 11.9658C340.823 11.9658 342.113 12.4126 343.077 13.3079C344.037 14.2014 344.52 15.5091 344.52 17.2274V27.3888C344.52 30.4165 345.828 31.9286 348.442 31.9286C349.713 31.9286 350.684 31.4566 351.355 30.5106C352.025 29.5647 352.361 28.2841 352.361 26.6671V17.2274Z" fill="#1A1311"/>
<path d="M386.714 24.8621C386.714 21.8379 385.406 20.324 382.795 20.324C381.521 20.324 380.55 20.787 379.881 21.7167C379.21 22.6446 378.873 23.9342 378.873 25.5838V35.0253C378.873 36.7436 378.39 38.0513 377.43 38.9448C376.466 39.8383 375.176 40.285 373.561 40.285C371.944 40.285 370.654 39.8383 369.692 38.9448C368.73 38.0513 368.247 36.7436 368.247 35.0253V17.0231C368.247 13.6516 369.949 11.9678 373.355 11.9678C374.867 11.9678 375.994 12.3801 376.732 13.2049C377.473 14.0297 377.929 15.2868 378.099 16.9707H378.204C380.025 13.6354 382.948 11.9678 386.973 11.9678C390.48 11.9678 393.084 12.9209 394.788 14.8291C396.488 16.7373 397.34 19.2569 397.34 22.386V35.0253C397.34 36.7436 396.857 38.0513 395.897 38.9448C394.933 39.8383 393.643 40.285 392.028 40.285C390.411 40.285 389.121 39.8383 388.159 38.9448C387.197 38.0513 386.714 36.7436 386.714 35.0253V24.8621Z" fill="#1A1311"/>
<path d="M421.378 7.11688C421.378 5.32988 421.816 3.99687 422.693 3.11964C423.57 2.2424 424.851 1.80469 426.536 1.80469C428.22 1.80469 429.501 2.2424 430.38 3.11964C431.255 3.99687 431.693 5.32988 431.693 7.11688V35.1285C431.693 38.5668 430.112 40.2852 426.949 40.2852C425.469 40.2852 424.326 39.8293 423.518 38.9196C422.709 38.008 422.306 36.8468 422.306 35.436H422.203C421.79 37.0186 420.776 38.2232 419.159 39.048C417.542 39.8728 415.858 40.2852 414.105 40.2852C410.39 40.2852 407.451 39.0046 405.284 36.4435C403.115 33.8823 402.034 30.4168 402.034 26.0488C402.034 24.6036 402.24 23.0825 402.652 21.4836C403.065 19.8846 403.743 18.3545 404.689 16.893C405.635 15.4316 406.865 14.245 408.377 13.3335C409.891 12.4218 411.696 11.966 413.796 11.966C415.478 11.966 416.941 12.3278 418.178 13.0495C419.417 13.7712 420.448 14.7859 421.273 16.0936H421.378V7.11688ZM420.398 21.8706C419.64 20.8396 418.659 20.3241 417.457 20.3241C415.771 20.3241 414.552 20.8993 413.796 22.0515C413.038 23.2037 412.66 24.656 412.66 26.4105C412.66 27.2009 412.738 27.9497 412.893 28.6533C413.047 29.3587 413.295 30.0116 413.64 30.614C413.982 31.2162 414.456 31.6883 415.058 32.032C415.659 32.3774 416.39 32.5475 417.25 32.5475C418.728 32.5475 419.812 31.9814 420.501 30.8454C421.188 29.7114 421.532 28.1468 421.532 26.1518C421.532 24.3287 421.154 22.9016 420.398 21.8706Z" fill="#1A1311"/>
<path d="M464.63 36.5463C464.133 37.2499 463.333 37.8866 462.232 38.4545C461.132 39.0206 459.687 39.4692 457.9 39.7948C456.111 40.1221 453.98 40.2849 451.504 40.2849C449.336 40.2849 447.342 40.001 445.519 39.4348C443.696 38.8669 442.097 37.9987 440.722 36.8285C439.346 35.66 438.281 34.1805 437.525 32.3935C436.767 30.6047 436.389 28.5066 436.389 26.0992C436.389 23.7279 436.767 21.6461 437.525 19.8573C438.281 18.0702 439.346 16.5907 440.722 15.4223C442.097 14.2539 443.696 13.3839 445.519 12.8159C447.342 12.2498 449.336 11.9658 451.504 11.9658C454.29 11.9658 456.688 12.3782 458.699 13.203C460.711 14.0296 462.318 15.0859 463.521 16.3755C464.726 17.6669 465.601 18.9981 466.153 20.3745C466.703 21.7492 466.978 23.0045 466.978 24.1403C466.978 25.7211 466.591 26.8389 465.818 27.4918C465.044 28.1466 463.796 28.4722 462.078 28.4722H447.015C447.152 30.1923 447.711 31.5597 448.692 32.5725C449.672 33.5873 451.003 34.0955 452.691 34.0955C453.584 34.0955 454.4 33.949 455.14 33.656C455.878 33.3648 456.766 32.927 457.797 32.341C458.69 31.8256 459.455 31.4385 460.092 31.1798C460.727 30.923 461.389 30.7928 462.078 30.7928C462.971 30.7928 463.746 31.1545 464.398 31.878C465.051 32.5997 465.379 33.4082 465.379 34.3017C465.379 35.0921 465.129 35.8409 464.63 36.5463ZM456.97 23.2106C456.97 21.458 456.507 20.1756 455.577 19.3671C454.649 18.5604 453.465 18.1571 452.02 18.1571C450.678 18.1571 449.525 18.5604 448.563 19.3671C447.599 20.1756 447.084 21.458 447.015 23.2106H456.97Z" fill="#1A1311"/>
<path d="M490.085 7.11688C490.085 5.32988 490.523 3.99687 491.4 3.11964C492.278 2.2424 493.558 1.80469 495.244 1.80469C496.928 1.80469 498.208 2.2424 499.087 3.11964C499.963 3.99687 500.401 5.32988 500.401 7.11688V35.1285C500.401 38.5668 498.82 40.2852 495.656 40.2852C494.177 40.2852 493.034 39.8293 492.225 38.9196C491.417 38.008 491.013 36.8468 491.013 35.436H490.91C490.498 37.0186 489.483 38.2232 487.866 39.048C486.249 39.8728 484.565 40.2852 482.813 40.2852C479.097 40.2852 476.158 39.0046 473.991 36.4435C471.823 33.8823 470.741 30.4168 470.741 26.0488C470.741 24.6036 470.947 23.0825 471.36 21.4836C471.772 19.8846 472.45 18.3545 473.396 16.893C474.342 15.4316 475.572 14.245 477.084 13.3335C478.598 12.4218 480.403 11.966 482.503 11.966C484.185 11.966 485.649 12.3278 486.886 13.0495C488.125 13.7712 489.156 14.7859 489.98 16.0936H490.085V7.11688ZM489.105 21.8706C488.347 20.8396 487.367 20.3241 486.164 20.3241C484.478 20.3241 483.259 20.8993 482.503 22.0515C481.745 23.2037 481.367 24.656 481.367 26.4105C481.367 27.2009 481.445 27.9497 481.601 28.6533C481.754 29.3587 482.002 30.0116 482.348 30.614C482.69 31.2162 483.163 31.6883 483.766 32.032C484.366 32.3774 485.097 32.5475 485.958 32.5475C487.436 32.5475 488.519 31.9814 489.208 30.8454C489.895 29.7114 490.239 28.1468 490.239 26.1518C490.239 24.3287 489.861 22.9016 489.105 21.8706Z" fill="#1A1311"/>
<path d="M517.269 20.1689C518.886 20.1689 520.094 20.5994 520.904 21.4585C521.713 22.3177 522.118 23.506 522.118 25.0181C522.118 26.532 521.713 27.7185 520.904 28.5777C520.094 29.4386 518.886 29.8673 517.269 29.8673H508.86C507.245 29.8673 506.029 29.4386 505.224 28.5777C504.416 27.7185 504.011 26.532 504.011 25.0181C504.011 23.506 504.416 22.3177 505.224 21.4585C506.029 20.5994 507.245 20.1689 508.86 20.1689H517.269Z" fill="#1A1311"/>
<path d="M527.172 9.54034C527.172 7.10037 527.722 5.31152 528.823 4.17746C529.923 3.04163 531.625 2.47363 533.929 2.47363H546.257C548.699 2.47363 550.763 2.7269 552.449 3.22247C554.133 3.71988 555.491 4.39996 556.524 5.26089C557.555 6.12186 558.293 7.1076 558.741 8.2272C559.188 9.345 559.41 10.555 559.41 11.8645C559.41 13.8921 559.007 15.5597 558.199 16.8656C557.39 18.1751 556.041 19.0668 554.151 19.5479V19.6528C556.35 20.0652 558.045 21.0799 559.231 22.697C560.418 24.3139 561.011 26.3053 561.011 28.6802C561.011 31.8762 559.825 34.5006 557.452 36.5463C555.079 38.5919 551.624 39.6139 547.084 39.6139H533.929C531.625 39.6139 529.923 39.0495 528.823 37.9119C527.722 36.7778 527.172 34.9908 527.172 32.5472V9.54034ZM544.555 17.5873C545.657 17.5873 546.532 17.2545 547.185 16.5816C547.84 15.9143 548.166 15.131 548.166 14.2376C548.166 13.1704 547.873 12.3366 547.29 11.7343C546.704 11.132 545.794 10.8317 544.555 10.8317H538.728V17.5873H544.555ZM544.659 31.2576C546.136 31.2576 547.307 30.9483 548.166 30.3297C549.025 29.713 549.455 28.8159 549.455 27.6474C549.455 26.4772 549.025 25.5927 548.166 24.9922C547.307 24.3917 546.136 24.0879 544.659 24.0879H538.728V31.2576H544.659Z" fill="#1A1311"/>
<path d="M566.016 7.06622C566.016 5.34616 566.497 4.04028 567.461 3.14674C568.423 2.25145 569.713 1.80469 571.33 1.80469C572.945 1.80469 574.234 2.25145 575.197 3.14674C576.159 4.04028 576.642 5.34616 576.642 7.06622V35.0254C576.642 36.7437 576.159 38.0514 575.197 38.9449C574.234 39.8384 572.945 40.2852 571.33 40.2852C569.713 40.2852 568.423 39.8384 567.461 38.9449C566.497 38.0514 566.016 36.7437 566.016 35.0254V7.06622Z" fill="#1A1311"/>
<path d="M611.148 31.7225C611.148 32.3754 611.199 33.3214 611.303 34.5585C611.407 35.4538 611.457 36.1068 611.457 36.5192C611.457 37.7563 610.976 38.6951 610.014 39.3299C609.052 39.9666 607.88 40.2849 606.507 40.2849C604.787 40.2849 603.513 39.9051 602.689 39.1491C601.864 38.393 601.348 37.3439 601.142 36.0037C600.178 37.4814 598.845 38.5666 597.143 39.2522C595.443 39.9413 593.611 40.2849 591.65 40.2849C588.555 40.2849 586.104 39.6067 584.299 38.2465C582.494 36.8882 581.592 34.7828 581.592 31.9286C581.592 30.7602 581.814 29.7021 582.261 28.7561C582.708 27.8102 583.457 26.9601 584.507 26.2022C585.555 25.4462 586.964 24.8349 588.736 24.3718C590.507 23.907 592.681 23.5887 595.262 23.4168C597.326 23.2794 598.767 23.0225 599.594 22.6427C600.419 22.2646 600.833 21.6461 600.833 20.7852C600.833 19.0325 599.404 18.1553 596.552 18.1553C595.484 18.1553 594.582 18.3199 593.842 18.6454C593.104 18.9728 592.252 19.4792 591.29 20.1666C590.498 20.7182 589.82 21.1306 589.252 21.4055C588.684 21.6805 588.022 21.8179 587.266 21.8179C585.03 21.8179 583.914 20.7182 583.914 18.517C583.914 16.5564 585.133 14.9755 587.575 13.7709C590.017 12.5681 593.111 11.9658 596.861 11.9658C598.476 11.9658 600.093 12.078 601.708 12.3004C603.325 12.5247 604.855 12.9281 606.299 13.5123C607.744 14.0983 608.912 14.914 609.808 15.9631C610.701 17.0122 611.148 18.3289 611.148 19.9097V31.7225ZM600.833 27.4918C600.419 27.9404 599.878 28.2569 599.209 28.4469C598.536 28.635 597.668 28.8159 596.602 28.9877C595.295 29.1939 594.417 29.3838 593.971 29.5556C593.008 29.9336 592.527 30.6734 592.527 31.7731C592.527 32.531 592.846 33.1586 593.482 33.656C594.117 34.1552 594.882 34.4048 595.777 34.4048C597.253 34.4048 598.467 34.0177 599.413 33.2436C600.359 32.4695 600.833 31.5669 600.833 30.536V27.4918Z" fill="#1A1311"/>
<path d="M616.978 19.8592C617.734 18.0722 618.799 16.5927 620.176 15.4224C621.55 14.254 623.149 13.3858 624.972 12.8178C626.795 12.2499 628.789 11.9678 630.957 11.9678C632.744 11.9678 634.403 12.1649 635.933 12.5592C637.463 12.9553 638.78 13.4979 639.88 14.1852C640.981 14.8744 641.822 15.6557 642.408 16.533C642.993 17.4102 643.286 18.3127 643.286 19.2406C643.286 20.409 642.924 21.355 642.2 22.0767C641.478 22.7983 640.567 23.1601 639.467 23.1601C638.918 23.1601 638.411 23.0244 637.946 22.7477C637.481 22.4728 636.921 22.0604 636.27 21.5105C635.479 20.8232 634.756 20.2969 634.103 19.937C633.448 19.5752 632.676 19.3943 631.782 19.3943C630.749 19.3943 629.881 19.5843 629.176 19.9623C628.47 20.3421 627.92 20.8486 627.526 21.4834C627.13 22.1201 626.855 22.8164 626.701 23.5725C626.546 24.3303 626.468 25.1026 626.468 25.8949C626.468 27.8881 626.846 29.5485 627.604 30.8724C628.36 32.1964 629.597 32.8584 631.317 32.8584C632.144 32.8584 632.882 32.6866 633.535 32.343C634.189 31.9993 634.929 31.5001 635.754 30.8472C636.51 30.2611 637.154 29.8234 637.688 29.5304C638.221 29.2392 638.796 29.0927 639.415 29.0927C640.619 29.0927 641.584 29.4978 642.305 30.3045C643.025 31.113 643.389 32.0156 643.389 33.0122C643.389 33.6326 643.164 34.3452 642.716 35.1537C642.269 35.9622 641.556 36.7616 640.576 37.5521C639.596 38.3443 638.297 38.9972 636.682 39.5127C635.065 40.0282 633.157 40.285 630.957 40.285C628.789 40.285 626.795 40.0029 624.972 39.435C623.149 38.867 621.55 37.9988 620.176 36.8304C618.799 35.662 617.734 34.1824 616.978 32.3936C616.22 30.6066 615.842 28.5085 615.842 26.101C615.842 23.728 616.22 21.648 616.978 19.8592Z" fill="#1A1311"/>
<path d="M664.33 14.1834C665.017 13.3604 665.67 12.7834 666.291 12.4561C666.909 12.1287 667.613 11.9659 668.405 11.9659C669.644 11.9659 670.735 12.3783 671.681 13.2031C672.627 14.0297 673.1 15.095 673.1 16.4045C673.1 16.9544 672.911 17.5711 672.532 18.2603C672.153 18.9476 671.688 19.5661 671.14 20.116L667.683 23.4169L672.842 30.7929C673.493 31.7243 673.994 32.5726 674.338 33.3467C674.681 34.1209 674.853 34.8516 674.853 35.5407C674.853 36.9515 674.338 38.0928 673.307 38.9701C672.276 39.8455 671.019 40.285 669.541 40.285C668.199 40.285 667.143 39.9685 666.368 39.33C665.594 38.6951 664.621 37.3621 663.455 35.3327L660.564 30.3804L658.244 32.6016V34.971C658.244 36.7598 657.806 38.0928 656.927 38.9701C656.051 39.8455 654.769 40.285 653.085 40.285C651.401 40.285 650.121 39.8455 649.242 38.9701C648.366 38.0928 647.927 36.7598 647.927 34.971V7.11671C647.927 5.32791 648.366 3.9967 649.242 3.11949C650.121 2.24225 651.401 1.80273 653.085 1.80273C654.769 1.80273 656.051 2.24225 656.927 3.11949C657.806 3.9967 658.244 5.32791 658.244 7.11671V21.5087H658.347L664.33 14.1834Z" fill="#1A1311"/>
<path d="M0.10498 75.17C0.10498 73.8985 0.492065 72.8748 1.26617 72.1006C2.03848 71.3265 3.06226 70.9395 4.33377 70.9395C5.64148 70.9395 6.67245 71.3265 7.4303 72.1006C8.18633 72.8748 8.56433 73.8985 8.56433 75.17V85.6931H23.9366V75.17C23.9366 73.8985 24.3237 72.8748 25.096 72.1006C25.8701 71.3265 26.8939 70.9395 28.1672 70.9395C29.4731 70.9395 30.5041 71.3265 31.2619 72.1006C32.018 72.8748 32.396 73.8985 32.396 75.17V105.191C32.396 106.464 32.018 107.486 31.2619 108.261C30.5041 109.035 29.4731 109.422 28.1672 109.422C26.8939 109.422 25.8701 109.035 25.096 108.261C24.3237 107.486 23.9366 106.464 23.9366 105.191V92.8105H8.56433V105.191C8.56433 106.464 8.18633 107.486 7.4303 108.261C6.67245 109.035 5.64148 109.422 4.33377 109.422C3.06226 109.422 2.03848 109.035 1.26617 108.261C0.492065 107.486 0.10498 106.464 0.10498 105.191V75.17Z" fill="#1A1311"/>
<path d="M45.7043 96.6791C45.7043 98.7084 46.3247 100.36 47.5601 101.631C48.7991 102.903 50.5029 103.54 52.6661 103.54C54.113 103.54 55.2381 103.342 56.0466 102.946C56.8533 102.552 57.6708 101.991 58.4974 101.27C59.0129 100.788 59.4759 100.427 59.8901 100.186C60.3025 99.9456 60.7981 99.8262 61.3859 99.8262C62.2433 99.8262 62.9758 100.136 63.5763 100.754C64.1804 101.373 64.4806 102.044 64.4806 102.765C64.4806 103.833 64.1026 104.786 63.3466 105.629C62.5905 106.471 61.6011 107.177 60.3803 107.743C59.1594 108.311 57.8698 108.732 56.5096 109.007C55.153 109.282 53.8707 109.42 52.6661 109.42C50.1556 109.42 47.9725 109.033 46.1167 108.258C44.261 107.486 42.7453 106.446 41.5769 105.138C40.4066 103.833 39.5493 102.371 38.9994 100.754C38.446 99.1371 38.1729 97.4695 38.1729 95.7494C38.1729 91.3144 39.4444 87.7639 41.9892 85.0979C44.5341 82.4336 48.0086 81.1006 52.4092 81.1006C54.5056 81.1006 56.4083 81.4352 58.1085 82.1062C59.8141 82.7773 61.2575 83.7051 62.4422 84.8916C63.6305 86.0782 64.524 87.4021 65.1245 88.8636C65.725 90.3251 66.0289 91.848 66.0289 93.4288C66.0289 94.7021 65.7955 95.5613 65.3307 96.008C64.8677 96.4548 63.9977 96.6791 62.728 96.6791H45.7043ZM58.9098 92.3454C58.7036 90.5927 58.0072 89.1566 56.8207 88.0388C55.6324 86.921 54.2143 86.3622 52.5648 86.3622C50.7398 86.3622 49.244 86.8867 48.0774 87.9357C46.9089 88.9848 46.1167 90.4553 45.7043 92.3454H58.9098Z" fill="#1A1311"/>
<path d="M71.2886 74.7052C71.2886 73.5024 71.625 72.5727 72.2942 71.9198C72.9653 71.2668 73.8841 70.9395 75.0543 70.9395C76.2227 70.9395 77.1434 71.2668 77.8126 71.9198C78.4855 72.5727 78.8201 73.5024 78.8201 74.7052V105.656C78.8201 106.859 78.4855 107.788 77.8126 108.441C77.1434 109.094 76.2227 109.42 75.0543 109.42C73.8841 109.42 72.9653 109.094 72.2942 108.441C71.625 107.788 71.2886 106.859 71.2886 105.656V74.7052Z" fill="#1A1311"/>
<path d="M83.0508 86.9301C82.9115 86.552 82.8012 86.1903 82.7144 85.8466C82.6293 85.503 82.5859 85.2281 82.5859 85.0219C82.5859 83.7486 82.9477 82.7773 83.6694 82.1062C84.3911 81.4352 85.2502 81.1006 86.2486 81.1006C86.9016 81.1006 87.4677 81.2218 87.9506 81.4623C88.4317 81.7029 88.8097 81.9869 89.0847 82.3124C89.3596 82.6398 89.5676 82.9744 89.705 83.3181C89.8407 83.6635 89.9456 83.9728 90.0143 84.2478L95.0697 101.27H95.1728L100.228 84.2478C100.297 83.9728 100.4 83.6726 100.537 83.3452C100.675 83.0178 100.888 82.6832 101.181 82.3378C101.474 81.9959 101.852 81.7029 102.317 81.4623C102.78 81.2218 103.339 81.1006 103.994 81.1006C104.991 81.1006 105.85 81.4352 106.571 82.1062C107.295 82.7773 107.657 83.7486 107.657 85.0219C107.657 85.2281 107.613 85.503 107.526 85.8466C107.439 86.1903 107.327 86.552 107.192 86.9301L100.073 106.737C99.6946 107.839 99.2207 108.561 98.6546 108.904C98.0867 109.248 96.9092 109.42 95.1203 109.42C93.3333 109.42 92.1541 109.248 91.588 108.904C91.02 108.561 90.5479 107.839 90.1699 106.737L83.0508 86.9301Z" fill="#1A1311"/>
<path d="M117.404 96.6791C117.404 98.7084 118.024 100.36 119.261 101.631C120.5 102.903 122.202 103.54 124.367 103.54C125.812 103.54 126.937 103.342 127.746 102.946C128.554 102.552 129.372 101.991 130.197 101.27C130.712 100.788 131.177 100.427 131.589 100.186C132.002 99.9456 132.499 99.8262 133.085 99.8262C133.944 99.8262 134.677 100.136 135.277 100.754C135.88 101.373 136.18 102.044 136.18 102.765C136.18 103.833 135.802 104.786 135.046 105.629C134.29 106.471 133.3 107.177 132.08 107.743C130.859 108.311 129.569 108.732 128.211 109.007C126.852 109.282 125.572 109.42 124.367 109.42C121.857 109.42 119.674 109.033 117.816 108.258C115.96 107.486 114.446 106.446 113.278 105.138C112.108 103.833 111.249 102.371 110.699 100.754C110.147 99.1371 109.874 97.4695 109.874 95.7494C109.874 91.3144 111.146 87.7639 113.69 85.0979C116.235 82.4336 119.708 81.1006 124.11 81.1006C126.207 81.1006 128.108 81.4352 129.81 82.1062C131.513 82.7773 132.957 83.7051 134.143 84.8916C135.33 86.0782 136.223 87.4021 136.826 88.8636C137.426 90.3251 137.728 91.848 137.728 93.4288C137.728 94.7021 137.497 95.5613 137.032 96.008C136.567 96.4548 135.699 96.6791 134.427 96.6791H117.404ZM130.609 92.3454C130.403 90.5927 129.707 89.1566 128.52 88.0388C127.334 86.921 125.915 86.3622 124.264 86.3622C122.441 86.3622 120.945 86.8867 119.777 87.9357C118.608 88.9848 117.816 90.4553 117.404 92.3454H130.609Z" fill="#1A1311"/>
<path d="M144.536 86.7236H143.246C141.251 86.7236 140.255 85.8988 140.255 84.2475C140.255 82.5961 141.251 81.7713 143.246 81.7713H144.536V77.1808C144.536 75.978 144.873 75.0483 145.542 74.3954C146.213 73.7424 147.133 73.415 148.302 73.415C149.47 73.415 150.391 73.7424 151.062 74.3954C151.733 75.0483 152.068 75.978 152.068 77.1808V81.7713H154.338C156.606 81.7713 157.742 82.5961 157.742 84.2475C157.742 85.8988 156.606 86.7236 154.338 86.7236H152.068V101.787C152.068 102.955 152.721 103.539 154.028 103.539H155.112C156.864 103.539 157.742 104.382 157.742 106.068C157.742 108.303 155.918 109.419 152.274 109.419C149.591 109.419 147.631 108.86 146.394 107.745C145.155 106.627 144.536 104.95 144.536 102.714V86.7236Z" fill="#1A1311"/>
<path d="M163.055 71.8675C163.812 71.1132 164.739 70.7334 165.841 70.7334C166.941 70.7334 167.87 71.1132 168.626 71.8675C169.382 72.6253 169.762 73.5532 169.762 74.6547C169.762 75.7544 169.382 76.6841 168.626 77.4401C167.87 78.1962 166.941 78.5742 165.841 78.5742C164.739 78.5742 163.812 78.1962 163.055 77.4401C162.299 76.6841 161.921 75.7544 161.921 74.6547C161.921 73.5532 162.299 72.6253 163.055 71.8675ZM162.075 84.8667C162.075 83.7327 162.359 82.8211 162.927 82.1337C163.493 81.4446 164.464 81.101 165.841 81.101C167.216 81.101 168.187 81.4446 168.755 82.1337C169.323 82.8211 169.607 83.7327 169.607 84.8667V105.656C169.607 106.79 169.323 107.702 168.755 108.389C168.187 109.076 167.216 109.42 165.841 109.42C164.464 109.42 163.493 109.076 162.927 108.389C162.359 107.702 162.075 106.79 162.075 105.656V84.8667Z" fill="#1A1311"/>
<path d="M178.245 85.1252C180.703 82.4428 184.185 81.1025 188.69 81.1025C190.204 81.1025 191.639 81.2997 193.001 81.6958C194.357 82.0901 195.535 82.6237 196.531 83.2947C197.53 83.9639 198.302 84.7309 198.855 85.59C199.403 86.4491 199.678 87.3101 199.678 88.1692C199.678 89.2002 199.344 89.9996 198.673 90.5676C198.002 91.1355 197.168 91.4177 196.171 91.4177C195.448 91.4177 194.898 91.2639 194.52 90.9547C194.142 90.6453 193.73 90.1805 193.281 89.5619C192.697 88.7028 192.087 88.0589 191.451 87.6266C190.814 87.1979 189.826 86.9827 188.484 86.9827C187.694 86.9827 186.929 87.1292 186.189 87.4222C185.449 87.7134 184.771 88.2036 184.152 88.8909C183.532 89.58 183.033 90.4898 182.655 91.6257C182.277 92.7598 182.089 94.1525 182.089 95.8038C182.089 98.1751 182.638 100.058 183.74 101.451C184.84 102.843 186.404 103.542 188.434 103.542C189.671 103.542 190.617 103.308 191.27 102.843C191.924 102.38 192.541 101.718 193.127 100.859C193.643 100.136 194.133 99.5949 194.598 99.2331C195.061 98.8732 195.706 98.6923 196.531 98.6923C197.461 98.6923 198.217 98.9763 198.801 99.5424C199.385 100.11 199.678 100.79 199.678 101.581C199.678 102.44 199.438 103.326 198.957 104.236C198.474 105.149 197.752 106 196.79 106.792C195.826 107.582 194.614 108.219 193.153 108.7C191.691 109.179 190.049 109.422 188.229 109.422C183.756 109.422 180.36 108.184 178.039 105.707C175.718 103.23 174.557 99.9295 174.557 95.8038C174.557 91.367 175.787 87.8075 178.245 85.1252Z" fill="#1A1311"/>
<path d="M228.721 101.478C228.721 102.337 228.772 103.042 228.875 103.592C228.978 104.142 229.099 104.692 229.237 105.242C229.408 105.793 229.493 106.222 229.493 106.531C229.493 107.358 229.159 108.045 228.488 108.595C227.819 109.145 227.019 109.42 226.089 109.42C224.577 109.42 223.476 109.016 222.789 108.208C222.099 107.401 221.721 106.343 221.653 105.035C220.244 106.584 218.695 107.701 217.011 108.389C215.326 109.076 213.434 109.42 211.337 109.42C209.068 109.42 207.082 108.707 205.38 107.28C203.676 105.853 202.826 104.004 202.826 101.734C202.826 100.222 203.092 98.94 203.625 97.8909C204.157 96.8437 204.897 96.0008 205.844 95.3641C206.789 94.7275 207.888 94.2283 209.145 93.8683C210.401 93.5066 211.802 93.2407 213.349 93.0689L217.939 92.5534C219.005 92.4159 219.813 92.1663 220.363 91.8046C220.915 91.4428 221.19 90.7646 221.19 89.7679C221.19 88.7352 220.741 87.9611 219.848 87.4456C218.954 86.9301 217.818 86.6732 216.444 86.6732C215.033 86.6732 213.917 86.8957 213.09 87.3425C212.265 87.7892 211.441 88.4096 210.614 89.2C210.064 89.7499 209.583 90.1532 209.171 90.4119C208.758 90.6705 208.275 90.7989 207.726 90.7989C206.798 90.7989 206.033 90.515 205.43 89.9488C204.83 89.3809 204.528 88.7026 204.528 87.9104C204.528 87.1544 204.794 86.3712 205.327 85.5627C205.861 84.756 206.644 84.0162 207.675 83.3452C208.706 82.6742 209.97 82.1334 211.466 81.721C212.962 81.3068 214.638 81.1006 216.496 81.1006C220.278 81.1006 223.261 81.739 225.445 83.0106C227.629 84.2821 228.721 86.2265 228.721 88.8383V101.478ZM221.19 96.0605C220.846 96.3698 220.406 96.6103 219.873 96.7822C219.341 96.9558 218.713 97.1095 217.99 97.247H217.939L215.205 97.6594C213.555 97.9 212.334 98.3051 211.544 98.8712C210.751 99.4391 210.357 100.273 210.357 101.374C210.357 102.234 210.735 102.964 211.491 103.565C212.247 104.167 213.262 104.467 214.535 104.467C216.529 104.467 218.138 103.927 219.357 102.843C220.578 101.76 221.19 100.479 221.19 98.9997V96.0605Z" fill="#1A1311"/>
<path d="M236.147 76.5626C236.147 74.7756 236.567 73.5023 237.41 72.7444C238.253 71.9884 239.483 71.6104 241.1 71.6104H255.181C257.588 71.6104 259.625 71.9124 261.294 72.5129C262.962 73.1152 264.277 73.9056 265.241 74.8859C266.201 75.8663 266.89 76.9587 267.303 78.1615C267.715 79.3661 267.923 80.6196 267.923 81.9273C267.923 84.0254 267.346 85.9245 266.194 87.6266C265.042 89.3286 263.486 90.4047 261.526 90.8515V90.9528C263.521 91.2295 264.87 92.0109 265.575 93.3005C266.279 94.5901 266.633 96.3192 266.633 98.4843C266.633 99.6545 266.7 100.644 266.84 101.451C266.975 102.259 267.165 103.093 267.406 103.952C267.646 104.916 267.767 105.638 267.767 106.119C267.767 107.049 267.364 107.83 266.556 108.467C265.747 109.103 264.826 109.42 263.796 109.42C262.73 109.42 261.853 109.197 261.166 108.751C260.477 108.304 259.961 107.752 259.617 107.099C259.274 106.446 259.049 105.81 258.946 105.191C258.843 104.572 258.793 103.986 258.793 103.437C258.793 100.067 258.387 97.7029 257.579 96.3445C256.772 94.9862 255.233 94.3061 252.963 94.3061H244.607V105.191C244.607 106.464 244.229 107.486 243.473 108.26C242.715 109.033 241.684 109.42 240.376 109.42C239.105 109.42 238.081 109.033 237.307 108.26C236.535 107.486 236.147 106.464 236.147 105.191V76.5626ZM244.607 88.1167H253.066C253.96 88.1167 254.777 88.048 255.517 87.9105C256.255 87.7731 256.926 87.5234 257.528 87.1635C258.131 86.8018 258.603 86.2863 258.946 85.6152C259.29 84.9442 259.462 84.1104 259.462 83.1138C259.462 81.2219 258.946 79.9142 257.915 79.1925C256.884 78.4708 255.352 78.1091 253.325 78.1091H244.607V88.1167Z" fill="#1A1311"/>
<path d="M273.21 89.6397C273.812 87.9377 274.697 86.4491 275.867 85.1776C278.376 82.4609 281.834 81.1025 286.235 81.1025C290.637 81.1025 294.092 82.4609 296.604 85.1776C297.772 86.4491 298.657 87.9377 299.261 89.6397C299.862 91.3417 300.162 93.2065 300.162 95.2359C300.162 97.1965 299.903 99.0269 299.388 100.729C298.872 102.431 298.073 103.927 296.989 105.216C295.908 106.506 294.463 107.53 292.657 108.286C290.852 109.042 288.711 109.422 286.235 109.422C283.759 109.422 281.626 109.051 279.837 108.313C278.05 107.573 276.607 106.551 275.505 105.243C274.404 103.936 273.597 102.431 273.082 100.729C272.566 99.0269 272.308 97.1965 272.308 95.2359C272.308 93.2065 272.608 91.3417 273.21 89.6397ZM281.438 101.4C282.505 103.033 284.102 103.849 286.235 103.849C288.365 103.849 289.966 103.033 291.033 101.4C292.1 99.7667 292.632 97.712 292.632 95.2359C292.632 92.6566 292.09 90.5857 291.008 89.0193C289.923 87.4566 288.335 86.6734 286.235 86.6734C284.137 86.6734 282.547 87.4566 281.463 89.0193C280.382 90.5857 279.837 92.6566 279.837 95.2359C279.837 97.712 280.371 99.7667 281.438 101.4Z" fill="#1A1311"/>
<path d="M330.544 105.656C330.544 106.824 330.26 107.745 329.692 108.414C329.126 109.085 328.274 109.422 327.139 109.422C326.004 109.422 325.154 109.085 324.586 108.414C324.019 107.745 323.735 106.824 323.735 105.656V104.676H323.631C322.497 106.189 321.19 107.358 319.712 108.183C318.232 109.009 316.494 109.422 314.501 109.422C313.298 109.422 312.135 109.257 311.019 108.931C309.902 108.604 308.887 108.054 307.975 107.28C307.065 106.506 306.342 105.475 305.808 104.185C305.275 102.896 305.011 101.34 305.011 99.5171V84.8665C305.011 83.7324 305.293 82.8209 305.863 82.1335C306.429 81.4462 307.4 81.1025 308.777 81.1025C310.151 81.1025 311.122 81.4462 311.69 82.1335C312.258 82.8209 312.542 83.7324 312.542 84.8665V98.0213C312.542 99.6039 312.937 100.868 313.727 101.812C314.519 102.758 315.706 103.23 317.286 103.23C318.732 103.23 320.047 102.69 321.233 101.606C322.42 100.523 323.013 99.0884 323.013 97.2996V84.8665C323.013 83.7324 323.297 82.8209 323.865 82.1335C324.431 81.4462 325.402 81.1025 326.779 81.1025C328.153 81.1025 329.126 81.4462 329.692 82.1335C330.26 82.8209 330.544 83.7324 330.544 84.8665V105.656Z" fill="#1A1311"/>
<path d="M336.527 84.8663C336.527 83.6979 336.81 82.7773 337.379 82.108C337.945 81.437 338.797 81.1006 339.931 81.1006C341.067 81.1006 341.917 81.437 342.485 82.108C343.051 82.7773 343.337 83.6979 343.337 84.8663V85.8466H343.438C344.609 84.3345 345.922 83.1643 347.385 82.3395C348.846 81.513 350.576 81.1006 352.569 81.1006C353.772 81.1006 354.935 81.2652 356.051 81.5907C357.168 81.9181 358.183 82.468 359.095 83.2421C360.004 84.0162 360.728 85.0472 361.262 86.3368C361.795 87.6264 362.061 89.1819 362.061 91.0051V105.656C362.061 106.79 361.777 107.701 361.209 108.389C360.643 109.076 359.67 109.42 358.295 109.42C356.919 109.42 355.947 109.076 355.381 108.389C354.813 107.701 354.529 106.79 354.529 105.656V92.5009C354.529 90.9201 354.133 89.6558 353.343 88.7099C352.551 87.7639 351.364 87.2918 349.783 87.2918C348.338 87.2918 347.025 87.8326 345.837 88.916C344.65 89.9995 344.059 91.4356 344.059 93.2226V105.656C344.059 106.79 343.775 107.701 343.207 108.389C342.639 109.076 341.668 109.42 340.293 109.42C338.917 109.42 337.945 109.076 337.379 108.389C336.81 107.701 336.527 106.79 336.527 105.656V84.8663Z" fill="#1A1311"/>
<path d="M393.58 105.86C393.58 108.233 392.444 109.42 390.174 109.42C387.904 109.42 386.77 108.233 386.77 105.86V104.674H386.665C386.081 106.222 385.084 107.4 383.675 108.208C382.265 109.015 380.613 109.42 378.723 109.42C377.106 109.42 375.592 109.127 374.183 108.543C372.774 107.958 371.517 107.065 370.418 105.86C369.318 104.658 368.457 103.153 367.838 101.348C367.22 99.5425 366.909 97.4534 366.909 95.0804C366.909 93.2228 367.149 91.4612 367.632 89.7917C368.113 88.1259 368.835 86.6373 369.799 85.3314C370.761 84.0237 371.973 82.9928 373.436 82.2367C374.896 81.4807 376.591 81.1008 378.515 81.1008C380.168 81.1008 381.628 81.4282 382.9 82.0811C384.173 82.7359 385.188 83.6801 385.944 84.919H386.048V74.7052C386.048 73.5024 386.383 72.5727 387.052 71.9198C387.723 71.2668 388.644 70.9395 389.814 70.9395C390.981 70.9395 391.903 71.2668 392.573 71.9198C393.244 72.5727 393.58 73.5024 393.58 74.7052V105.86ZM375.988 101.167C377.019 102.713 378.499 103.505 380.425 103.54C382.489 103.54 384.01 102.766 384.99 101.219C385.971 99.6709 386.461 97.7103 386.461 95.3372C386.461 94.3062 386.356 93.3006 386.15 92.3203C385.944 91.34 385.609 90.4465 385.144 89.638C384.681 88.8313 384.053 88.1855 383.261 87.7044C382.471 87.2233 381.527 86.9809 380.425 86.9809C379.289 86.9809 378.327 87.2396 377.535 87.7551C376.744 88.2706 376.126 88.9416 375.679 89.7664C375.232 90.593 374.912 91.4865 374.726 92.4487C374.534 93.4128 374.442 94.375 374.442 95.3372C374.442 97.6759 374.957 99.6203 375.988 101.167Z" fill="#1A1311"/>
<path d="M405.957 96.6791C405.957 98.7084 406.577 100.36 407.814 101.631C409.051 102.903 410.755 103.54 412.922 103.54C414.365 103.54 415.492 103.342 416.299 102.946C417.108 102.552 417.923 101.991 418.75 101.27C419.267 100.788 419.728 100.427 420.143 100.186C420.557 99.9456 421.054 99.8262 421.638 99.8262C422.497 99.8262 423.228 100.136 423.83 100.754C424.433 101.373 424.733 102.044 424.733 102.765C424.733 103.833 424.355 104.786 423.599 105.629C422.841 106.471 421.852 107.177 420.633 107.743C419.412 108.311 418.122 108.732 416.764 109.007C415.406 109.282 414.125 109.42 412.922 109.42C410.41 109.42 408.227 109.033 406.371 108.258C404.512 107.486 402.998 106.446 401.831 105.138C400.661 103.833 399.802 102.371 399.252 100.754C398.7 99.1371 398.425 97.4695 398.425 95.7494C398.425 91.3144 399.697 87.7639 402.243 85.0979C404.788 82.4336 408.261 81.1006 412.664 81.1006C414.76 81.1006 416.661 81.4352 418.365 82.1062C420.065 82.7773 421.51 83.7051 422.696 84.8916C423.881 86.0782 424.776 87.4021 425.379 88.8636C425.981 90.3251 426.281 91.848 426.281 93.4288C426.281 94.7021 426.05 95.5613 425.585 96.008C425.12 96.4548 424.25 96.6791 422.979 96.6791H405.957ZM419.162 92.3454C418.956 90.5927 418.26 89.1566 417.073 88.0388C415.887 86.921 414.469 86.3622 412.817 86.3622C410.994 86.3622 409.498 86.8867 408.33 87.9357C407.16 88.9848 406.371 90.4553 405.957 92.3454H419.162Z" fill="#1A1311"/>
<path d="M456.665 105.86C456.665 108.233 455.53 109.42 453.26 109.42C450.99 109.42 449.856 108.233 449.856 105.86V104.674H449.751C449.166 106.222 448.17 107.4 446.761 108.208C445.35 109.015 443.699 109.42 441.809 109.42C440.192 109.42 438.678 109.127 437.269 108.543C435.86 107.958 434.603 107.065 433.503 105.86C432.403 104.658 431.542 103.153 430.924 101.348C430.305 99.5425 429.994 97.4534 429.994 95.0804C429.994 93.2228 430.235 91.4612 430.718 89.7917C431.199 88.1259 431.92 86.6373 432.884 85.3314C433.847 84.0237 435.059 82.9928 436.522 82.2367C437.981 81.4807 439.676 81.1008 441.601 81.1008C443.254 81.1008 444.713 81.4282 445.985 82.0811C447.258 82.7359 448.273 83.6801 449.029 84.919H449.134V74.7052C449.134 73.5024 449.469 72.5727 450.138 71.9198C450.809 71.2668 451.729 70.9395 452.9 70.9395C454.066 70.9395 454.989 71.2668 455.658 71.9198C456.329 72.5727 456.665 73.5024 456.665 74.7052V105.86ZM439.074 101.167C440.105 102.713 441.584 103.505 443.511 103.54C445.574 103.54 447.096 102.766 448.076 101.219C449.056 99.6709 449.546 97.7103 449.546 95.3372C449.546 94.3062 449.441 93.3006 449.235 92.3203C449.029 91.34 448.694 90.4465 448.23 89.638C447.767 88.8313 447.139 88.1855 446.347 87.7044C445.556 87.2233 444.612 86.9809 443.511 86.9809C442.375 86.9809 441.413 87.2396 440.62 87.7551C439.83 88.2706 439.211 88.9416 438.765 89.7664C438.318 90.593 437.998 91.4865 437.811 92.4487C437.62 93.4128 437.527 94.375 437.527 95.3372C437.527 97.6759 438.043 99.6203 439.074 101.167Z" fill="#1A1311"/>
<path d="M474.408 90.9531C475.679 90.9531 476.696 91.2371 477.452 91.805C478.208 92.3729 478.588 93.2755 478.588 94.5126C478.588 95.7498 478.208 96.6524 477.452 97.2203C476.696 97.7882 475.679 98.0722 474.408 98.0722H465.898C464.624 98.0722 463.61 97.7882 462.854 97.2203C462.096 96.6524 461.718 95.7498 461.718 94.5126C461.718 93.2755 462.096 92.3729 462.854 91.805C463.61 91.2371 464.624 90.9531 465.898 90.9531H474.408Z" fill="#1A1311"/>
<path d="M484.568 76.5608C484.568 74.7756 484.992 73.5005 485.833 72.7444C486.676 71.9884 487.905 71.6104 489.522 71.6104H500.765C502.52 71.6104 504.171 71.7388 505.719 71.9956C507.266 72.2542 508.693 72.7263 510.001 73.4154C511.307 74.1046 512.356 75.0831 513.146 76.3546C513.938 77.628 514.333 79.2431 514.333 81.2038C514.333 82.8533 513.886 84.3528 512.992 85.6912C512.097 87.0315 510.807 88.048 509.122 88.7353V88.8402C511.187 89.39 512.786 90.3957 513.92 91.8572C515.056 93.3186 515.622 95.2865 515.622 97.7626C515.622 99.6527 515.27 101.295 514.564 102.69C513.861 104.08 512.871 105.227 511.6 106.121C510.326 107.012 508.874 107.674 507.241 108.105C505.607 108.537 503.844 108.749 501.954 108.749H489.522C487.905 108.749 486.676 108.373 485.833 107.617C484.992 106.86 484.568 105.585 484.568 103.797V76.5608ZM493.03 86.8795H499.993C503.914 86.8795 505.875 85.3657 505.875 82.3379C505.875 80.6883 505.305 79.5199 504.171 78.8307C503.035 78.1435 501.558 77.7998 499.734 77.7998H493.03V86.8795ZM493.03 102.25H500.149C501.077 102.25 501.945 102.183 502.753 102.044C503.56 101.906 504.3 101.666 504.972 101.32C505.642 100.978 506.175 100.479 506.57 99.8281C506.964 99.1734 507.163 98.3305 507.163 97.2978C507.163 96.2342 506.948 95.357 506.519 94.6679C506.088 93.9788 505.502 93.4633 504.764 93.1196C504.025 92.776 503.191 92.5463 502.261 92.4233C501.335 92.3021 500.286 92.2424 499.116 92.2424H493.03V102.25Z" fill="#1A1311"/>
<path d="M521.295 74.7052C521.295 73.5024 521.631 72.5727 522.302 71.9198C522.973 71.2668 523.892 70.9395 525.061 70.9395C526.231 70.9395 527.15 71.2668 527.821 71.9198C528.492 72.5727 528.826 73.5024 528.826 74.7052V105.656C528.826 106.859 528.492 107.788 527.821 108.441C527.15 109.094 526.231 109.42 525.061 109.42C523.892 109.42 522.973 109.094 522.302 108.441C521.631 107.788 521.295 106.859 521.295 105.656V74.7052Z" fill="#1A1311"/>
<path d="M560.242 101.478C560.242 102.337 560.293 103.042 560.396 103.592C560.501 104.142 560.62 104.692 560.758 105.242C560.929 105.793 561.016 106.222 561.016 106.531C561.016 107.358 560.68 108.045 560.009 108.595C559.34 109.145 558.54 109.42 557.61 109.42C556.096 109.42 554.997 109.016 554.309 108.208C553.62 107.401 553.242 106.343 553.175 105.035C551.765 106.584 550.216 107.701 548.531 108.389C546.847 109.076 544.955 109.42 542.858 109.42C540.589 109.42 538.603 108.707 536.901 107.28C535.197 105.853 534.347 104.004 534.347 101.734C534.347 100.222 534.612 98.94 535.146 97.8909C535.68 96.8437 536.418 96.0008 537.365 95.3641C538.31 94.7275 539.409 94.2283 540.666 93.8683C541.92 93.5066 543.323 93.2407 544.87 93.0689L549.46 92.5534C550.526 92.4159 551.334 92.1663 551.886 91.8046C552.436 91.4428 552.711 90.7646 552.711 89.7679C552.711 88.7352 552.264 87.9611 551.37 87.4456C550.475 86.9301 549.341 86.6732 547.964 86.6732C546.556 86.6732 545.438 86.8957 544.611 87.3425C543.786 87.7892 542.96 88.4096 542.135 89.2C541.585 89.7499 541.104 90.1532 540.69 90.4119C540.279 90.6705 539.796 90.7989 539.248 90.7989C538.319 90.7989 537.553 90.515 536.951 89.9488C536.349 89.3809 536.049 88.7026 536.049 87.9104C536.049 87.1544 536.316 86.3712 536.848 85.5627C537.38 84.756 538.163 84.0162 539.194 83.3452C540.229 82.6742 541.491 82.1334 542.987 81.721C544.483 81.3068 546.159 81.1006 548.015 81.1006C551.799 81.1006 554.783 81.739 556.966 83.0106C559.15 84.2821 560.242 86.2265 560.242 88.8383V101.478ZM552.711 96.0605C552.367 96.3698 551.927 96.6103 551.394 96.7822C550.862 96.9558 550.234 97.1095 549.511 97.247H549.46L546.725 97.6594C545.076 97.9 543.855 98.3051 543.065 98.8712C542.272 99.4391 541.878 100.273 541.878 101.374C541.878 102.234 542.256 102.964 543.014 103.565C543.77 104.167 544.783 104.467 546.056 104.467C548.049 104.467 549.659 103.927 550.878 102.843C552.099 101.76 552.711 100.479 552.711 98.9997V96.0605Z" fill="#1A1311"/>
<path d="M568.984 85.1252C571.442 82.4428 574.924 81.1025 579.429 81.1025C580.941 81.1025 582.377 81.2997 583.736 81.6958C585.094 82.0901 586.273 82.6237 587.27 83.2947C588.267 83.9639 589.041 84.7309 589.592 85.59C590.14 86.4491 590.417 87.3101 590.417 88.1692C590.417 89.2002 590.081 89.9996 589.412 90.5676C588.74 91.1355 587.907 91.4177 586.908 91.4177C586.188 91.4177 585.637 91.2639 585.259 90.9547C584.879 90.6453 584.468 90.1805 584.02 89.5619C583.435 88.7028 582.824 88.0589 582.189 87.6266C581.553 87.1979 580.563 86.9827 579.223 86.9827C578.433 86.9827 577.667 87.1292 576.93 87.4222C576.188 87.7134 575.508 88.2036 574.891 88.8909C574.273 89.58 573.772 90.4898 573.393 91.6257C573.016 92.7598 572.827 94.1525 572.827 95.8038C572.827 98.1751 573.377 100.058 574.477 101.451C575.578 102.843 577.143 103.542 579.172 103.542C580.409 103.542 581.355 103.308 582.008 102.843C582.661 102.38 583.28 101.718 583.866 100.859C584.381 100.136 584.872 99.5949 585.336 99.2331C585.801 98.8732 586.445 98.6923 587.27 98.6923C588.2 98.6923 588.956 98.9763 589.54 99.5424C590.124 100.11 590.417 100.79 590.417 101.581C590.417 102.44 590.177 103.326 589.694 104.236C589.214 105.149 588.491 106 587.529 106.792C586.566 107.582 585.353 108.219 583.891 108.7C582.43 109.179 580.788 109.422 578.966 109.422C574.495 109.422 571.1 108.184 568.778 105.707C566.457 103.23 565.296 99.9295 565.296 95.8038C565.296 91.367 566.526 87.8075 568.984 85.1252Z" fill="#1A1311"/>
<path d="M594.441 74.7052C594.441 73.5024 594.778 72.5727 595.445 71.9198C596.118 71.2668 597.039 70.9395 598.207 70.9395C599.374 70.9395 600.293 71.2668 600.964 71.9198C601.638 72.5727 601.973 73.5024 601.973 74.7052V91.8301L610.327 82.546C611.223 81.5837 612.187 81.1026 613.218 81.1026C614.111 81.1026 614.925 81.4373 615.665 82.1082C616.406 82.7775 616.775 83.577 616.775 84.5066C616.775 85.0908 616.698 85.5304 616.546 85.8216C616.39 86.1146 616.121 86.4655 615.744 86.8779C615.71 86.914 615.674 86.9484 615.641 86.9828L610.071 92.8105L617.911 103.334C618.116 103.608 618.298 103.945 618.45 104.339C618.606 104.735 618.684 105.209 618.684 105.757C618.684 106.721 618.34 107.573 617.653 108.313C616.965 109.051 616.121 109.42 615.126 109.42C614.299 109.42 613.614 109.257 613.062 108.93C612.511 108.604 612.064 108.183 611.72 107.667L604.603 97.609L601.973 99.9296V105.656C601.973 106.859 601.638 107.788 600.964 108.441C600.293 109.094 599.374 109.42 598.207 109.42C597.039 109.42 596.118 109.094 595.445 108.441C594.778 107.788 594.441 106.859 594.441 105.656V74.7052Z" fill="#1A1311"/>
</svg>
