<svg width="73" height="21" viewBox="0 0 73 21" fill="none" xmlns="http://www.w3.org/2000/svg">
<mask id="mask0_205_2945" style="mask-type:alpha" maskUnits="userSpaceOnUse" x="0" y="0" width="73" height="21">
<rect width="72.915" height="20.7623" fill="#D9D9D9"/>
</mask>
<g mask="url(#mask0_205_2945)">
<path d="M36.7441 18.3574H37.6301C37.8083 18.3574 37.9597 18.3885 38.0853 18.451C38.2103 18.5135 38.3053 18.6015 38.3693 18.7153C38.4332 18.8291 38.4652 18.9621 38.4652 19.115C38.4652 19.2669 38.4332 19.3985 38.3693 19.51C38.3053 19.6214 38.2099 19.707 38.0838 19.7672C37.9578 19.8274 37.8045 19.8575 37.624 19.8575H36.9905V19.5034H37.5675C37.6733 19.5034 37.7603 19.4888 37.829 19.4587C37.8976 19.4291 37.9484 19.3858 37.9809 19.3285C38.0138 19.2706 38.0302 19.1996 38.0302 19.115C38.0302 19.0294 38.0138 18.9565 37.9809 18.8968C37.9484 18.8371 37.8972 18.7915 37.828 18.7604C37.7584 18.7294 37.671 18.7134 37.5652 18.7134H37.1683V20.726H36.7441V18.3574ZM38.5517 20.726H38.0754L37.5003 19.6529H37.9653L38.5517 20.726Z" fill="white"/>
<path d="M38.9678 18.3574H40.5059V18.7162H39.3924V19.3614H40.425V19.7188H39.3924V20.3677H40.5139V20.726H38.9678V18.3574Z" fill="white"/>
<path d="M40.8926 20.7265L41.7272 18.3574H42.2525L43.0876 20.7265H42.6329L41.9995 18.8408H41.9807L41.3482 20.7265H40.8926ZM42.6136 20.1401H41.3656V19.7978H42.6136V20.1401Z" fill="white"/>
<path d="M43.5068 18.3574H43.9315V20.3677H44.9768V20.726H43.5068V18.3574Z" fill="white"/>
<path d="M45.4541 18.3574H45.8787V20.3677H46.9241V20.726H45.4541V18.3574Z" fill="white"/>
<path d="M47.4811 18.3574L48.0618 19.4065H48.0858L48.6665 18.3574H49.1476L48.2861 19.8401V20.726H47.8615V19.8401L47 18.3574H47.4811Z" fill="white"/>
<path d="M51.7077 18.8354C51.6696 18.7875 51.6179 18.7508 51.5535 18.7254C51.4886 18.7005 51.4133 18.6878 51.3278 18.6878C51.2398 18.6878 51.1637 18.701 51.0988 18.7273C51.0339 18.7536 50.9845 18.7903 50.9497 18.8378C50.9149 18.8853 50.8975 18.9384 50.8975 18.9977C50.8961 19.0875 50.9323 19.1571 51.0075 19.2069C51.0823 19.2563 51.1801 19.2958 51.301 19.3254L51.5234 19.3809C51.6565 19.4129 51.7745 19.4561 51.8765 19.5098C51.9786 19.5634 52.0613 19.6362 52.1239 19.7279C52.1869 19.8196 52.2184 19.9311 52.2184 20.0618C52.2184 20.201 52.1826 20.3228 52.1112 20.4286C52.0402 20.5344 51.9372 20.6162 51.8027 20.675C51.6682 20.7338 51.5074 20.7629 51.3207 20.7629C51.1373 20.7629 50.9784 20.7342 50.843 20.6773C50.708 20.6204 50.6027 20.5367 50.5265 20.4267C50.4498 20.3171 50.4085 20.1845 50.4023 20.0294H50.8213C50.8274 20.1098 50.8524 20.1775 50.897 20.2325C50.9412 20.2875 50.9995 20.3294 51.0724 20.3571C51.1448 20.3849 51.2262 20.3985 51.3174 20.3985C51.4101 20.3985 51.4923 20.3844 51.5648 20.3557C51.6372 20.327 51.6931 20.2875 51.7326 20.2363C51.7717 20.185 51.7919 20.1258 51.7928 20.0585C51.7919 19.9997 51.7745 19.9499 51.7406 19.9085C51.7068 19.8676 51.6593 19.8333 51.5986 19.8065C51.5375 19.7792 51.4599 19.7538 51.3659 19.7289L51.0964 19.6598C50.8928 19.6071 50.7367 19.529 50.6281 19.4261C50.5194 19.3226 50.4654 19.1886 50.4663 19.0235C50.4654 18.8867 50.503 18.7658 50.5782 18.66C50.6539 18.5547 50.7574 18.4724 50.8886 18.4136C51.0202 18.3553 51.1684 18.3262 51.3334 18.3262C51.4994 18.3262 51.6466 18.3549 51.775 18.4127C51.9033 18.4705 52.0035 18.5514 52.075 18.6549C52.1464 18.7588 52.1836 18.8768 52.1859 19.0094H51.7754C51.7684 18.9417 51.7458 18.8834 51.7077 18.8354Z" fill="white"/>
<path d="M52.708 18.3574H53.1326V19.3614H54.2349V18.3574H54.6614V20.726H54.2349V19.7188H53.1326V20.726H52.708V18.3574Z" fill="white"/>
<rect x="55.2373" y="18.3584" width="1" height="2.36857" fill="white"/>
<path d="M58.1817 20.726H57.8037L56.6817 19.1079H56.6619V20.726H56.2373V18.3574H56.6201L57.7374 19.9764H57.7585V18.3574H58.1817V20.726Z" fill="white"/>
<path d="M59.0738 18.3574L59.6546 19.4065H59.6786L60.2593 18.3574H60.7403L59.8789 19.8401V20.726H59.4542V19.8401L58.5928 18.3574H59.0738Z" fill="white"/>
<path d="M62.1896 20.7168C62.15 20.6938 62.119 20.6632 62.0964 20.6251C62.0739 20.5866 62.0626 20.5447 62.0635 20.4982C62.0626 20.4526 62.0739 20.4107 62.0964 20.3717C62.119 20.3327 62.15 20.3021 62.1896 20.28C62.229 20.2584 62.2714 20.2471 62.317 20.2471C62.3617 20.2471 62.4035 20.2584 62.443 20.28C62.4825 20.3021 62.5131 20.3327 62.5361 20.3722C62.5587 20.4117 62.57 20.4535 62.57 20.4982C62.57 20.5438 62.5587 20.5856 62.5361 20.6242C62.5131 20.6628 62.4825 20.6938 62.443 20.7168C62.4035 20.7399 62.3617 20.7516 62.317 20.7516C62.2714 20.7516 62.229 20.7399 62.1896 20.7168Z" fill="white"/>
<path d="M63.8809 18.3574H65.7674V18.7162H65.0362V20.726H64.613V18.7162H63.8809V18.3574Z" fill="white"/>
<path d="M65.793 20.7265L66.6281 18.3574H67.1534L67.988 20.7265H67.5338L66.8999 18.8408H66.8816L66.2486 20.7265H65.793ZM67.514 20.1401H66.266V19.7978H67.514V20.1401Z" fill="white"/>
<path d="M70.3517 20.726H69.9736L68.8516 19.1079H68.8318V20.726H68.4072V18.3574H68.79L69.9073 19.9764H69.9284V18.3574H70.3517V20.726Z" fill="white"/>
<path d="M71.2428 18.3574L71.8235 19.4065H71.8475L72.4282 18.3574H72.9093L72.0478 19.8401V20.726H71.6232V19.8401L70.7617 18.3574H71.2428Z" fill="white"/>
<rect x="7.93164" width="6.82028" height="20.7261" fill="white"/>
<rect x="16.0713" width="6.82028" height="20.7261" fill="white"/>
<path d="M31.0322 20.7261H24.2119V0C27.9785 0 31.0322 3.0537 31.0322 6.82028V20.7261Z" fill="white"/>
<path d="M6.61197 6.61197V0H0L6.61197 6.61197Z" fill="white"/>
<path d="M44.9676 5.77321C44.9676 5.08855 44.4123 4.5332 43.7276 4.5332H37.0183C36.3332 4.5332 35.7783 5.08855 35.7783 5.77321C35.7783 6.45787 36.3332 7.01322 37.0183 7.01322H38.8546V12.9523C38.8546 13.7907 39.5346 14.4707 40.373 14.4707C41.2114 14.4707 41.8914 13.7907 41.8914 12.9523V7.01322H43.7276C44.4123 7.01322 44.9676 6.45787 44.9676 5.77321Z" fill="white"/>
<path d="M72.1971 4.7113C71.5284 4.34593 70.69 4.59139 70.3246 5.26007L68.8269 7.99871L67.3283 5.25819C66.9639 4.59186 66.1282 4.34687 65.4619 4.7113C64.7951 5.07574 64.5506 5.91134 64.9151 6.57813L67.4266 11.1714C67.4393 11.1944 67.4538 11.2156 67.4675 11.2377V13.0993C67.4675 13.8569 68.0816 14.471 68.8392 14.471C69.5962 14.471 70.2104 13.8569 70.2104 13.0993V11.2081C70.232 11.1756 70.2531 11.1427 70.272 11.1079L72.7459 6.58378C73.1112 5.91558 72.8658 5.07715 72.1971 4.7113Z" fill="white"/>
<path d="M62.0275 4.5332C61.2333 4.5332 60.59 5.17695 60.59 5.97071V10.136L57.5819 5.07209C57.3886 4.74716 57.0548 4.55766 56.704 4.53555L56.7068 4.5332H55.9394H55.8627L55.867 4.53697C55.1061 4.57505 54.5 5.20188 54.5 5.97259V13.0313C54.5 13.826 55.1447 14.4707 55.9394 14.4707C56.7341 14.4707 57.3788 13.826 57.3788 13.0313V9.04275L60.2759 13.92C60.4814 14.2661 60.8463 14.457 61.2215 14.458L61.2201 14.4594L62.0059 14.4693C62.0129 14.4693 62.02 14.4707 62.0275 14.4707L62.0407 14.4697L62.0614 14.4702L62.06 14.4688C62.8387 14.4514 63.465 13.8156 63.465 13.0327V5.97071C63.465 5.17695 62.8217 4.5332 62.0275 4.5332Z" fill="white"/>
<path d="M50.7085 5.50565C50.495 4.91268 49.9382 4.54402 49.3429 4.53932L49.3499 4.5332H48.5063L48.5129 4.53932C47.9275 4.5553 47.3839 4.92209 47.1737 5.50659L44.6542 12.506C44.3805 13.2673 44.7755 14.1067 45.5368 14.3804C46.2977 14.6545 47.137 14.2595 47.4112 13.4982L47.6298 12.8907H50.2551L50.4743 13.4992C50.7479 14.2595 51.5864 14.6545 52.3472 14.3804C53.1076 14.1067 53.5026 13.2683 53.2284 12.5079L50.7085 5.50565ZM48.2604 11.1386L48.9427 9.24354L49.6246 11.1386H48.2604Z" fill="white"/>
</g>
</svg>
