<svg width="1028" height="1301" viewBox="0 0 1028 1301" fill="none" xmlns="http://www.w3.org/2000/svg">
<line x1="244.9" y1="25" x2="244.9" y2="1283.5" stroke="#8D8D8D" stroke-width="0.8"/>
<line x1="130.487" y1="24.1" x2="320.5" y2="24.1" stroke="#8D8D8D" stroke-width="0.8"/>
<path d="M2.8608 37V34.571L11.983 24.5852C13.0535 23.4157 13.9351 22.3991 14.6278 21.5355C15.3205 20.6629 15.8333 19.8442 16.1662 19.0795C16.508 18.3059 16.679 17.4962 16.679 16.6506C16.679 15.679 16.4451 14.8378 15.9773 14.1271C15.5185 13.4164 14.8887 12.8677 14.0881 12.4808C13.2874 12.094 12.3878 11.9006 11.3892 11.9006C10.3277 11.9006 9.40104 12.121 8.60938 12.5618C7.8267 12.9936 7.21946 13.6009 6.78764 14.3835C6.36482 15.1662 6.15341 16.0838 6.15341 17.1364H2.96875C2.96875 15.517 3.34209 14.0956 4.08878 12.8722C4.83546 11.6487 5.85204 10.6951 7.13849 10.0114C8.43395 9.32765 9.88684 8.98579 11.4972 8.98579C13.1165 8.98579 14.5514 9.32765 15.8018 10.0114C17.0523 10.6951 18.0329 11.6172 18.7436 12.7777C19.4543 13.9382 19.8097 15.2292 19.8097 16.6506C19.8097 17.6671 19.6252 18.6612 19.2564 19.6328C18.8965 20.5954 18.2668 21.6705 17.3672 22.858C16.4766 24.0365 15.2396 25.4759 13.6562 27.1761L7.44886 33.8153V34.0312H20.2955V37H2.8608ZM34.1228 37.3778C32.0897 37.3778 30.3579 36.8246 28.9275 35.718C27.4971 34.6025 26.4041 32.9877 25.6484 30.8736C24.8927 28.7505 24.5149 26.1866 24.5149 23.1818C24.5149 20.1951 24.8927 17.6446 25.6484 15.5305C26.4131 13.4074 27.5106 11.7881 28.941 10.6726C30.3804 9.54806 32.1077 8.98579 34.1228 8.98579C36.138 8.98579 37.8607 9.54806 39.2911 10.6726C40.7305 11.7881 41.8281 13.4074 42.5837 15.5305C43.3484 17.6446 43.7308 20.1951 43.7308 23.1818C43.7308 26.1866 43.3529 28.7505 42.5972 30.8736C41.8416 32.9877 40.7485 34.6025 39.3181 35.718C37.8877 36.8246 36.156 37.3778 34.1228 37.3778ZM34.1228 34.4091C36.138 34.4091 37.7033 33.4375 38.8188 31.4943C39.9344 29.5511 40.4921 26.7803 40.4921 23.1818C40.4921 20.7888 40.2357 18.7512 39.723 17.0689C39.2192 15.3866 38.4905 14.1046 37.5369 13.223C36.5923 12.3414 35.4543 11.9006 34.1228 11.9006C32.1257 11.9006 30.5648 12.8857 29.4403 14.8558C28.3158 16.817 27.7535 19.5923 27.7535 23.1818C27.7535 25.5748 28.0054 27.608 28.5092 29.2812C29.013 30.9545 29.7372 32.2275 30.6818 33.1001C31.6354 33.9728 32.7824 34.4091 34.1228 34.4091ZM48.0986 37V34.571L57.2208 24.5852C58.2913 23.4157 59.1729 22.3991 59.8657 21.5355C60.5584 20.6629 61.0711 19.8442 61.404 19.0795C61.7459 18.3059 61.9168 17.4962 61.9168 16.6506C61.9168 15.679 61.6829 14.8378 61.2151 14.1271C60.7563 13.4164 60.1265 12.8677 59.3259 12.4808C58.5252 12.094 57.6256 11.9006 56.627 11.9006C55.5655 11.9006 54.6389 12.121 53.8472 12.5618C53.0645 12.9936 52.4573 13.6009 52.0255 14.3835C51.6026 15.1662 51.3912 16.0838 51.3912 17.1364H48.2066C48.2066 15.517 48.5799 14.0956 49.3266 12.8722C50.0733 11.6487 51.0898 10.6951 52.3763 10.0114C53.6718 9.32765 55.1246 8.98579 56.735 8.98579C58.3543 8.98579 59.7892 9.32765 61.0397 10.0114C62.2901 10.6951 63.2707 11.6172 63.9814 12.7777C64.6921 13.9382 65.0475 15.2292 65.0475 16.6506C65.0475 17.6671 64.863 18.6612 64.4942 19.6328C64.1344 20.5954 63.5046 21.6705 62.605 22.858C61.7144 24.0365 60.4774 25.4759 58.8941 27.1761L52.6867 33.8153V34.0312H65.5333V37H48.0986ZM78.9828 37.3778C77.3995 37.3778 75.9736 37.063 74.7051 36.4332C73.4366 35.8035 72.42 34.9399 71.6554 33.8423C70.8907 32.7448 70.4724 31.4943 70.4004 30.0909H73.639C73.765 31.3414 74.3317 32.3759 75.3393 33.1946C76.3559 34.0043 77.5704 34.4091 78.9828 34.4091C80.1163 34.4091 81.1239 34.1437 82.0055 33.6129C82.8961 33.0821 83.5933 32.3535 84.0971 31.4268C84.6099 30.4912 84.8663 29.4342 84.8663 28.2557C84.8663 27.0502 84.6009 25.9751 84.0701 25.0305C83.5484 24.0769 82.8287 23.3258 81.9111 22.777C80.9934 22.2282 79.9454 21.9493 78.7669 21.9403C77.9212 21.9313 77.0531 22.0618 76.1625 22.3317C75.2718 22.5926 74.5387 22.9299 73.9629 23.3438L70.8322 22.9659L72.5055 9.36364H86.8635V12.3324H75.3123L74.3407 20.483H74.5027C75.0694 20.0331 75.7801 19.6598 76.6348 19.3629C77.4894 19.0661 78.38 18.9176 79.3066 18.9176C80.9979 18.9176 82.5048 19.3224 83.8272 20.1321C85.1587 20.9328 86.2022 22.0303 86.9579 23.4247C87.7226 24.8191 88.1049 26.4115 88.1049 28.2017C88.1049 29.965 87.7091 31.5393 86.9174 32.9247C86.1348 34.3011 85.0552 35.3897 83.6788 36.1903C82.3024 36.982 80.737 37.3778 78.9828 37.3778Z" fill="#F26966"/>
<path d="M361.929 13.1818V35H359.287V15.9517H359.159L353.832 19.4886V16.804L359.287 13.1818H361.929ZM374.72 35.2983C373.115 35.2983 371.748 34.8615 370.619 33.9879C369.489 33.1072 368.627 31.8324 368.03 30.1634C367.433 28.4872 367.135 26.4631 367.135 24.0909C367.135 21.733 367.433 19.7195 368.03 18.0504C368.634 16.3743 369.5 15.0959 370.629 14.2152C371.766 13.3274 373.129 12.8835 374.72 12.8835C376.311 12.8835 377.671 13.3274 378.801 14.2152C379.937 15.0959 380.803 16.3743 381.4 18.0504C382.004 19.7195 382.306 21.733 382.306 24.0909C382.306 26.4631 382.007 28.4872 381.411 30.1634C380.814 31.8324 379.951 33.1072 378.822 33.9879C377.693 34.8615 376.325 35.2983 374.72 35.2983ZM374.72 32.9545C376.311 32.9545 377.547 32.1875 378.428 30.6534C379.308 29.1193 379.749 26.9318 379.749 24.0909C379.749 22.2017 379.546 20.593 379.141 19.2649C378.744 17.9368 378.168 16.9247 377.416 16.2287C376.67 15.5327 375.771 15.1847 374.72 15.1847C373.144 15.1847 371.911 15.9624 371.024 17.5178C370.136 19.0661 369.692 21.2571 369.692 24.0909C369.692 25.9801 369.891 27.5852 370.288 28.9062C370.686 30.2273 371.258 31.2322 372.004 31.9212C372.757 32.6101 373.662 32.9545 374.72 32.9545ZM386.867 35.1705C386.342 35.1705 385.891 34.9822 385.514 34.6058C385.138 34.2294 384.95 33.7784 384.95 33.2528C384.95 32.7273 385.138 32.2763 385.514 31.8999C385.891 31.5234 386.342 31.3352 386.867 31.3352C387.393 31.3352 387.844 31.5234 388.22 31.8999C388.597 32.2763 388.785 32.7273 388.785 33.2528C388.785 33.6009 388.696 33.9205 388.518 34.2116C388.348 34.5028 388.117 34.7372 387.826 34.9148C387.542 35.0852 387.222 35.1705 386.867 35.1705Z" fill="#8D8D8D"/>
<path d="M467.744 33.2539C463.669 33.2539 461.308 29.8262 461.32 23.8086C461.308 17.8418 463.694 14.3633 467.744 14.3633C471.781 14.3633 474.168 17.8418 474.168 23.8086C474.168 29.8262 471.819 33.2539 467.744 33.2539ZM463.529 23.8086C463.542 28.5693 465.078 31.2227 467.744 31.2227C470.397 31.2227 471.946 28.5693 471.934 23.8086C471.946 19.0479 470.385 16.3564 467.744 16.3438C465.104 16.3564 463.542 19.0479 463.529 23.8086ZM482.712 33.2539C478.637 33.2539 476.276 29.8262 476.289 23.8086C476.276 17.8418 478.663 14.3633 482.712 14.3633C486.75 14.3633 489.136 17.8418 489.136 23.8086C489.136 29.8262 486.788 33.2539 482.712 33.2539ZM478.498 23.8086C478.51 28.5693 480.046 31.2227 482.712 31.2227C485.366 31.2227 486.915 28.5693 486.902 23.8086C486.915 19.0479 485.353 16.3564 482.712 16.3438C480.072 16.3564 478.51 19.0479 478.498 23.8086ZM497.681 33.2539C493.606 33.2539 491.244 29.8262 491.257 23.8086C491.244 17.8418 493.631 14.3633 497.681 14.3633C501.718 14.3633 504.105 17.8418 504.105 23.8086C504.105 29.8262 501.756 33.2539 497.681 33.2539ZM493.466 23.8086C493.479 28.5693 495.015 31.2227 497.681 31.2227C500.334 31.2227 501.883 28.5693 501.87 23.8086C501.883 19.0479 500.321 16.3564 497.681 16.3438C495.04 16.3564 493.479 19.0479 493.466 23.8086ZM512.649 33.2539C508.574 33.2539 506.212 29.8262 506.225 23.8086C506.212 17.8418 508.599 14.3633 512.649 14.3633C516.686 14.3633 519.073 17.8418 519.073 23.8086C519.073 29.8262 516.724 33.2539 512.649 33.2539ZM508.434 23.8086C508.447 28.5693 509.983 31.2227 512.649 31.2227C515.302 31.2227 516.851 28.5693 516.838 23.8086C516.851 19.0479 515.29 16.3564 512.649 16.3438C510.008 16.3564 508.447 19.0479 508.434 23.8086ZM539.5 12.4844V24.1641H537.494V18.2988H532.467V16.6484H537.494V12.4844H539.5ZM520.762 22.6152C524.164 21.4854 526.5 18.6543 526.525 15.3535V13.2207H528.481V15.3535C528.455 18.3115 530.791 21.0283 534.092 22.1074L533.025 23.6562C530.524 22.7676 528.531 20.9902 527.528 18.7051C526.564 21.2822 524.52 23.25 521.854 24.2148L520.762 22.6152ZM524.875 26.9062V25.3066H539.5V30.6895H526.881V33.1523H540.338V34.752H524.926V29.166H537.52V26.9062H524.875ZM561.375 12.5098V24.9004H559.394V12.5098H561.375ZM543.88 15.252V13.6016H554.189V19.6953H545.861V22.7676C549.898 22.7422 552.907 22.6533 556.576 22.0566L556.804 23.707C553.008 24.3037 549.923 24.418 545.759 24.4434H543.931V18.1211H552.209V15.252H543.88ZM546.699 34.752V26.043H548.705V28.7344H559.394V26.043H561.375V34.752H546.699ZM548.705 33.127H559.394V30.334H548.705V33.127Z" fill="#8D8D8D"/>
<circle cx="130" cy="24" r="5" fill="#8D8D8D"/>
<circle cx="321" cy="24" r="5" fill="#F26966"/>
<path d="M361.929 75.1818V97H359.287V77.9517H359.159L353.832 81.4886V78.804L359.287 75.1818H361.929ZM374.592 97.2983C373.129 97.2983 371.837 97.0391 370.715 96.5206C369.6 95.995 368.73 95.2741 368.105 94.358C367.48 93.4347 367.171 92.3835 367.178 91.2045C367.171 90.2812 367.352 89.429 367.721 88.6477C368.09 87.8594 368.595 87.2024 369.234 86.6768C369.88 86.1442 370.601 85.8068 371.396 85.6648V85.5369C370.352 85.267 369.521 84.6811 368.904 83.7791C368.286 82.87 367.98 81.8366 367.987 80.679C367.98 79.571 368.261 78.5803 368.829 77.7067C369.397 76.8331 370.178 76.1442 371.173 75.6399C372.174 75.1357 373.314 74.8835 374.592 74.8835C375.857 74.8835 376.986 75.1357 377.98 75.6399C378.975 76.1442 379.756 76.8331 380.324 77.7067C380.899 78.5803 381.19 79.571 381.198 80.679C381.19 81.8366 380.874 82.87 380.249 83.7791C379.632 84.6811 378.811 85.267 377.788 85.5369V85.6648C378.577 85.8068 379.287 86.1442 379.919 86.6768C380.551 87.2024 381.056 87.8594 381.432 88.6477C381.808 89.429 382 90.2812 382.007 91.2045C382 92.3835 381.681 93.4347 381.048 94.358C380.423 95.2741 379.553 95.995 378.438 96.5206C377.33 97.0391 376.048 97.2983 374.592 97.2983ZM374.592 94.9545C375.58 94.9545 376.432 94.7947 377.149 94.4751C377.867 94.1555 378.421 93.7045 378.811 93.1222C379.202 92.5398 379.401 91.858 379.408 91.0767C379.401 90.2528 379.188 89.5249 378.769 88.8928C378.35 88.2607 377.778 87.7635 377.053 87.4013C376.336 87.0391 375.516 86.858 374.592 86.858C373.662 86.858 372.831 87.0391 372.1 87.4013C371.375 87.7635 370.803 88.2607 370.384 88.8928C369.972 89.5249 369.77 90.2528 369.777 91.0767C369.77 91.858 369.958 92.5398 370.342 93.1222C370.732 93.7045 371.29 94.1555 372.014 94.4751C372.739 94.7947 373.598 94.9545 374.592 94.9545ZM374.592 84.5994C375.374 84.5994 376.066 84.4432 376.67 84.1307C377.281 83.8182 377.76 83.3814 378.108 82.8203C378.456 82.2592 378.634 81.6023 378.641 80.8494C378.634 80.1108 378.46 79.468 378.119 78.9212C377.778 78.3672 377.306 77.9411 376.702 77.6428C376.098 77.3374 375.395 77.1847 374.592 77.1847C373.776 77.1847 373.062 77.3374 372.451 77.6428C371.84 77.9411 371.368 78.3672 371.034 78.9212C370.7 79.468 370.537 80.1108 370.544 80.8494C370.537 81.6023 370.704 82.2592 371.045 82.8203C371.393 83.3814 371.872 83.8182 372.483 84.1307C373.094 84.4432 373.797 84.5994 374.592 84.5994ZM386.691 97.1705C386.166 97.1705 385.715 96.9822 385.338 96.6058C384.962 96.2294 384.774 95.7784 384.774 95.2528C384.774 94.7273 384.962 94.2763 385.338 93.8999C385.715 93.5234 386.166 93.3352 386.691 93.3352C387.217 93.3352 387.668 93.5234 388.044 93.8999C388.421 94.2763 388.609 94.7273 388.609 95.2528C388.609 95.6009 388.52 95.9205 388.343 96.2116C388.172 96.5028 387.941 96.7372 387.65 96.9148C387.366 97.0852 387.046 97.1705 386.691 97.1705Z" fill="#8D8D8D"/>
<path d="M467.744 95.2539C463.669 95.2539 461.308 91.8262 461.32 85.8086C461.308 79.8418 463.694 76.3633 467.744 76.3633C471.781 76.3633 474.168 79.8418 474.168 85.8086C474.168 91.8262 471.819 95.2539 467.744 95.2539ZM463.529 85.8086C463.542 90.5693 465.078 93.2227 467.744 93.2227C470.397 93.2227 471.946 90.5693 471.934 85.8086C471.946 81.0479 470.385 78.3564 467.744 78.3438C465.104 78.3564 463.542 81.0479 463.529 85.8086ZM482.712 95.2539C478.637 95.2539 476.276 91.8262 476.289 85.8086C476.276 79.8418 478.663 76.3633 482.712 76.3633C486.75 76.3633 489.136 79.8418 489.136 85.8086C489.136 91.8262 486.788 95.2539 482.712 95.2539ZM478.498 85.8086C478.51 90.5693 480.046 93.2227 482.712 93.2227C485.366 93.2227 486.915 90.5693 486.902 85.8086C486.915 81.0479 485.353 78.3564 482.712 78.3438C480.072 78.3564 478.51 81.0479 478.498 85.8086ZM497.681 95.2539C493.606 95.2539 491.244 91.8262 491.257 85.8086C491.244 79.8418 493.631 76.3633 497.681 76.3633C501.718 76.3633 504.105 79.8418 504.105 85.8086C504.105 91.8262 501.756 95.2539 497.681 95.2539ZM493.466 85.8086C493.479 90.5693 495.015 93.2227 497.681 93.2227C500.334 93.2227 501.883 90.5693 501.87 85.8086C501.883 81.0479 500.321 78.3564 497.681 78.3438C495.04 78.3564 493.479 81.0479 493.466 85.8086ZM512.649 95.2539C508.574 95.2539 506.212 91.8262 506.225 85.8086C506.212 79.8418 508.599 76.3633 512.649 76.3633C516.686 76.3633 519.073 79.8418 519.073 85.8086C519.073 91.8262 516.724 95.2539 512.649 95.2539ZM508.434 85.8086C508.447 90.5693 509.983 93.2227 512.649 93.2227C515.302 93.2227 516.851 90.5693 516.838 85.8086C516.851 81.0479 515.29 78.3564 512.649 78.3438C510.008 78.3564 508.447 81.0479 508.434 85.8086ZM539.5 74.4844V86.1641H537.494V80.2988H532.467V78.6484H537.494V74.4844H539.5ZM520.762 84.6152C524.164 83.4854 526.5 80.6543 526.525 77.3535V75.2207H528.481V77.3535C528.455 80.3115 530.791 83.0283 534.092 84.1074L533.025 85.6562C530.524 84.7676 528.531 82.9902 527.528 80.7051C526.564 83.2822 524.52 85.25 521.854 86.2148L520.762 84.6152ZM524.875 88.9062V87.3066H539.5V92.6895H526.881V95.1523H540.338V96.752H524.926V91.166H537.52V88.9062H524.875ZM561.375 74.5098V86.9004H559.394V74.5098H561.375ZM543.88 77.252V75.6016H554.189V81.6953H545.861V84.7676C549.898 84.7422 552.907 84.6533 556.576 84.0566L556.804 85.707C553.008 86.3037 549.923 86.418 545.759 86.4434H543.931V80.1211H552.209V77.252H543.88ZM546.699 96.752V88.043H548.705V90.7344H559.394V88.043H561.375V96.752H546.699ZM548.705 95.127H559.394V92.334H548.705V95.127Z" fill="#8D8D8D"/>
<line x1="244.5" y1="86.1" x2="320.5" y2="86.1" stroke="#8D8D8D" stroke-width="0.8"/>
<circle cx="321" cy="86" r="5" fill="#F26966"/>
<path d="M361.929 138.182V160H359.287V140.952H359.159L353.832 144.489V141.804L359.287 138.182H361.929ZM374.592 160.298C373.129 160.298 371.837 160.039 370.715 159.521C369.6 158.995 368.73 158.274 368.105 157.358C367.48 156.435 367.171 155.384 367.178 154.205C367.171 153.281 367.352 152.429 367.721 151.648C368.09 150.859 368.595 150.202 369.234 149.677C369.88 149.144 370.601 148.807 371.396 148.665V148.537C370.352 148.267 369.521 147.681 368.904 146.779C368.286 145.87 367.98 144.837 367.987 143.679C367.98 142.571 368.261 141.58 368.829 140.707C369.397 139.833 370.178 139.144 371.173 138.64C372.174 138.136 373.314 137.884 374.592 137.884C375.857 137.884 376.986 138.136 377.98 138.64C378.975 139.144 379.756 139.833 380.324 140.707C380.899 141.58 381.19 142.571 381.198 143.679C381.19 144.837 380.874 145.87 380.249 146.779C379.632 147.681 378.811 148.267 377.788 148.537V148.665C378.577 148.807 379.287 149.144 379.919 149.677C380.551 150.202 381.056 150.859 381.432 151.648C381.808 152.429 382 153.281 382.007 154.205C382 155.384 381.681 156.435 381.048 157.358C380.423 158.274 379.553 158.995 378.438 159.521C377.33 160.039 376.048 160.298 374.592 160.298ZM374.592 157.955C375.58 157.955 376.432 157.795 377.149 157.475C377.867 157.156 378.421 156.705 378.811 156.122C379.202 155.54 379.401 154.858 379.408 154.077C379.401 153.253 379.188 152.525 378.769 151.893C378.35 151.261 377.778 150.763 377.053 150.401C376.336 150.039 375.516 149.858 374.592 149.858C373.662 149.858 372.831 150.039 372.1 150.401C371.375 150.763 370.803 151.261 370.384 151.893C369.972 152.525 369.77 153.253 369.777 154.077C369.77 154.858 369.958 155.54 370.342 156.122C370.732 156.705 371.29 157.156 372.014 157.475C372.739 157.795 373.598 157.955 374.592 157.955ZM374.592 147.599C375.374 147.599 376.066 147.443 376.67 147.131C377.281 146.818 377.76 146.381 378.108 145.82C378.456 145.259 378.634 144.602 378.641 143.849C378.634 143.111 378.46 142.468 378.119 141.921C377.778 141.367 377.306 140.941 376.702 140.643C376.098 140.337 375.395 140.185 374.592 140.185C373.776 140.185 373.062 140.337 372.451 140.643C371.84 140.941 371.368 141.367 371.034 141.921C370.7 142.468 370.537 143.111 370.544 143.849C370.537 144.602 370.704 145.259 371.045 145.82C371.393 146.381 371.872 146.818 372.483 147.131C373.094 147.443 373.797 147.599 374.592 147.599ZM386.691 160.17C386.166 160.17 385.715 159.982 385.338 159.606C384.962 159.229 384.774 158.778 384.774 158.253C384.774 157.727 384.962 157.276 385.338 156.9C385.715 156.523 386.166 156.335 386.691 156.335C387.217 156.335 387.668 156.523 388.044 156.9C388.421 157.276 388.609 157.727 388.609 158.253C388.609 158.601 388.52 158.92 388.343 159.212C388.172 159.503 387.941 159.737 387.65 159.915C387.366 160.085 387.046 160.17 386.691 160.17Z" fill="#8D8D8D"/>
<path d="M467.744 158.254C463.669 158.254 461.308 154.826 461.32 148.809C461.308 142.842 463.694 139.363 467.744 139.363C471.781 139.363 474.168 142.842 474.168 148.809C474.168 154.826 471.819 158.254 467.744 158.254ZM463.529 148.809C463.542 153.569 465.078 156.223 467.744 156.223C470.397 156.223 471.946 153.569 471.934 148.809C471.946 144.048 470.385 141.356 467.744 141.344C465.104 141.356 463.542 144.048 463.529 148.809ZM482.712 158.254C478.637 158.254 476.276 154.826 476.289 148.809C476.276 142.842 478.663 139.363 482.712 139.363C486.75 139.363 489.136 142.842 489.136 148.809C489.136 154.826 486.788 158.254 482.712 158.254ZM478.498 148.809C478.51 153.569 480.046 156.223 482.712 156.223C485.366 156.223 486.915 153.569 486.902 148.809C486.915 144.048 485.353 141.356 482.712 141.344C480.072 141.356 478.51 144.048 478.498 148.809ZM497.681 158.254C493.606 158.254 491.244 154.826 491.257 148.809C491.244 142.842 493.631 139.363 497.681 139.363C501.718 139.363 504.105 142.842 504.105 148.809C504.105 154.826 501.756 158.254 497.681 158.254ZM493.466 148.809C493.479 153.569 495.015 156.223 497.681 156.223C500.334 156.223 501.883 153.569 501.87 148.809C501.883 144.048 500.321 141.356 497.681 141.344C495.04 141.356 493.479 144.048 493.466 148.809ZM512.649 158.254C508.574 158.254 506.212 154.826 506.225 148.809C506.212 142.842 508.599 139.363 512.649 139.363C516.686 139.363 519.073 142.842 519.073 148.809C519.073 154.826 516.724 158.254 512.649 158.254ZM508.434 148.809C508.447 153.569 509.983 156.223 512.649 156.223C515.302 156.223 516.851 153.569 516.838 148.809C516.851 144.048 515.29 141.356 512.649 141.344C510.008 141.356 508.447 144.048 508.434 148.809ZM539.5 137.484V149.164H537.494V143.299H532.467V141.648H537.494V137.484H539.5ZM520.762 147.615C524.164 146.485 526.5 143.654 526.525 140.354V138.221H528.481V140.354C528.455 143.312 530.791 146.028 534.092 147.107L533.025 148.656C530.524 147.768 528.531 145.99 527.528 143.705C526.564 146.282 524.52 148.25 521.854 149.215L520.762 147.615ZM524.875 151.906V150.307H539.5V155.689H526.881V158.152H540.338V159.752H524.926V154.166H537.52V151.906H524.875ZM561.375 137.51V149.9H559.394V137.51H561.375ZM543.88 140.252V138.602H554.189V144.695H545.861V147.768C549.898 147.742 552.907 147.653 556.576 147.057L556.804 148.707C553.008 149.304 549.923 149.418 545.759 149.443H543.931V143.121H552.209V140.252H543.88ZM546.699 159.752V151.043H548.705V153.734H559.394V151.043H561.375V159.752H546.699ZM548.705 158.127H559.394V155.334H548.705V158.127Z" fill="#8D8D8D"/>
<line x1="244.5" y1="149.1" x2="320.5" y2="149.1" stroke="#8D8D8D" stroke-width="0.8"/>
<circle cx="321" cy="149" r="5" fill="#F26966"/>
<path d="M361.929 201.182V223H359.287V203.952H359.159L353.832 207.489V204.804L359.287 201.182H361.929ZM374.592 223.298C373.129 223.298 371.837 223.039 370.715 222.521C369.6 221.995 368.73 221.274 368.105 220.358C367.48 219.435 367.171 218.384 367.178 217.205C367.171 216.281 367.352 215.429 367.721 214.648C368.09 213.859 368.595 213.202 369.234 212.677C369.88 212.144 370.601 211.807 371.396 211.665V211.537C370.352 211.267 369.521 210.681 368.904 209.779C368.286 208.87 367.98 207.837 367.987 206.679C367.98 205.571 368.261 204.58 368.829 203.707C369.397 202.833 370.178 202.144 371.173 201.64C372.174 201.136 373.314 200.884 374.592 200.884C375.857 200.884 376.986 201.136 377.98 201.64C378.975 202.144 379.756 202.833 380.324 203.707C380.899 204.58 381.19 205.571 381.198 206.679C381.19 207.837 380.874 208.87 380.249 209.779C379.632 210.681 378.811 211.267 377.788 211.537V211.665C378.577 211.807 379.287 212.144 379.919 212.677C380.551 213.202 381.056 213.859 381.432 214.648C381.808 215.429 382 216.281 382.007 217.205C382 218.384 381.681 219.435 381.048 220.358C380.423 221.274 379.553 221.995 378.438 222.521C377.33 223.039 376.048 223.298 374.592 223.298ZM374.592 220.955C375.58 220.955 376.432 220.795 377.149 220.475C377.867 220.156 378.421 219.705 378.811 219.122C379.202 218.54 379.401 217.858 379.408 217.077C379.401 216.253 379.188 215.525 378.769 214.893C378.35 214.261 377.778 213.763 377.053 213.401C376.336 213.039 375.516 212.858 374.592 212.858C373.662 212.858 372.831 213.039 372.1 213.401C371.375 213.763 370.803 214.261 370.384 214.893C369.972 215.525 369.77 216.253 369.777 217.077C369.77 217.858 369.958 218.54 370.342 219.122C370.732 219.705 371.29 220.156 372.014 220.475C372.739 220.795 373.598 220.955 374.592 220.955ZM374.592 210.599C375.374 210.599 376.066 210.443 376.67 210.131C377.281 209.818 377.76 209.381 378.108 208.82C378.456 208.259 378.634 207.602 378.641 206.849C378.634 206.111 378.46 205.468 378.119 204.921C377.778 204.367 377.306 203.941 376.702 203.643C376.098 203.337 375.395 203.185 374.592 203.185C373.776 203.185 373.062 203.337 372.451 203.643C371.84 203.941 371.368 204.367 371.034 204.921C370.7 205.468 370.537 206.111 370.544 206.849C370.537 207.602 370.704 208.259 371.045 208.82C371.393 209.381 371.872 209.818 372.483 210.131C373.094 210.443 373.797 210.599 374.592 210.599ZM386.691 223.17C386.166 223.17 385.715 222.982 385.338 222.606C384.962 222.229 384.774 221.778 384.774 221.253C384.774 220.727 384.962 220.276 385.338 219.9C385.715 219.523 386.166 219.335 386.691 219.335C387.217 219.335 387.668 219.523 388.044 219.9C388.421 220.276 388.609 220.727 388.609 221.253C388.609 221.601 388.52 221.92 388.343 222.212C388.172 222.503 387.941 222.737 387.65 222.915C387.366 223.085 387.046 223.17 386.691 223.17Z" fill="#8D8D8D"/>
<path d="M467.744 221.254C463.669 221.254 461.308 217.826 461.32 211.809C461.308 205.842 463.694 202.363 467.744 202.363C471.781 202.363 474.168 205.842 474.168 211.809C474.168 217.826 471.819 221.254 467.744 221.254ZM463.529 211.809C463.542 216.569 465.078 219.223 467.744 219.223C470.397 219.223 471.946 216.569 471.934 211.809C471.946 207.048 470.385 204.356 467.744 204.344C465.104 204.356 463.542 207.048 463.529 211.809ZM482.712 221.254C478.637 221.254 476.276 217.826 476.289 211.809C476.276 205.842 478.663 202.363 482.712 202.363C486.75 202.363 489.136 205.842 489.136 211.809C489.136 217.826 486.788 221.254 482.712 221.254ZM478.498 211.809C478.51 216.569 480.046 219.223 482.712 219.223C485.366 219.223 486.915 216.569 486.902 211.809C486.915 207.048 485.353 204.356 482.712 204.344C480.072 204.356 478.51 207.048 478.498 211.809ZM497.681 221.254C493.606 221.254 491.244 217.826 491.257 211.809C491.244 205.842 493.631 202.363 497.681 202.363C501.718 202.363 504.105 205.842 504.105 211.809C504.105 217.826 501.756 221.254 497.681 221.254ZM493.466 211.809C493.479 216.569 495.015 219.223 497.681 219.223C500.334 219.223 501.883 216.569 501.87 211.809C501.883 207.048 500.321 204.356 497.681 204.344C495.04 204.356 493.479 207.048 493.466 211.809ZM512.649 221.254C508.574 221.254 506.212 217.826 506.225 211.809C506.212 205.842 508.599 202.363 512.649 202.363C516.686 202.363 519.073 205.842 519.073 211.809C519.073 217.826 516.724 221.254 512.649 221.254ZM508.434 211.809C508.447 216.569 509.983 219.223 512.649 219.223C515.302 219.223 516.851 216.569 516.838 211.809C516.851 207.048 515.29 204.356 512.649 204.344C510.008 204.356 508.447 207.048 508.434 211.809ZM539.5 200.484V212.164H537.494V206.299H532.467V204.648H537.494V200.484H539.5ZM520.762 210.615C524.164 209.485 526.5 206.654 526.525 203.354V201.221H528.481V203.354C528.455 206.312 530.791 209.028 534.092 210.107L533.025 211.656C530.524 210.768 528.531 208.99 527.528 206.705C526.564 209.282 524.52 211.25 521.854 212.215L520.762 210.615ZM524.875 214.906V213.307H539.5V218.689H526.881V221.152H540.338V222.752H524.926V217.166H537.52V214.906H524.875ZM561.375 200.51V212.9H559.394V200.51H561.375ZM543.88 203.252V201.602H554.189V207.695H545.861V210.768C549.898 210.742 552.907 210.653 556.576 210.057L556.804 211.707C553.008 212.304 549.923 212.418 545.759 212.443H543.931V206.121H552.209V203.252H543.88ZM546.699 222.752V214.043H548.705V216.734H559.394V214.043H561.375V222.752H546.699ZM548.705 221.127H559.394V218.334H548.705V221.127Z" fill="#8D8D8D"/>
<line x1="244.5" y1="212.1" x2="320.5" y2="212.1" stroke="#8D8D8D" stroke-width="0.8"/>
<circle cx="321" cy="212" r="5" fill="#F26966"/>
<path d="M2.8608 394V391.571L11.983 381.585C13.0535 380.416 13.9351 379.399 14.6278 378.536C15.3205 377.663 15.8333 376.844 16.1662 376.08C16.508 375.306 16.679 374.496 16.679 373.651C16.679 372.679 16.4451 371.838 15.9773 371.127C15.5185 370.416 14.8887 369.868 14.0881 369.481C13.2874 369.094 12.3878 368.901 11.3892 368.901C10.3277 368.901 9.40104 369.121 8.60938 369.562C7.8267 369.994 7.21946 370.601 6.78764 371.384C6.36482 372.166 6.15341 373.084 6.15341 374.136H2.96875C2.96875 372.517 3.34209 371.096 4.08878 369.872C4.83546 368.649 5.85204 367.695 7.13849 367.011C8.43395 366.328 9.88684 365.986 11.4972 365.986C13.1165 365.986 14.5514 366.328 15.8018 367.011C17.0523 367.695 18.0329 368.617 18.7436 369.778C19.4543 370.938 19.8097 372.229 19.8097 373.651C19.8097 374.667 19.6252 375.661 19.2564 376.633C18.8965 377.595 18.2668 378.67 17.3672 379.858C16.4766 381.036 15.2396 382.476 13.6562 384.176L7.44886 390.815V391.031H20.2955V394H2.8608ZM34.1228 394.378C32.0897 394.378 30.3579 393.825 28.9275 392.718C27.4971 391.603 26.4041 389.988 25.6484 387.874C24.8927 385.75 24.5149 383.187 24.5149 380.182C24.5149 377.195 24.8927 374.645 25.6484 372.531C26.4131 370.407 27.5106 368.788 28.941 367.673C30.3804 366.548 32.1077 365.986 34.1228 365.986C36.138 365.986 37.8607 366.548 39.2911 367.673C40.7305 368.788 41.8281 370.407 42.5837 372.531C43.3484 374.645 43.7308 377.195 43.7308 380.182C43.7308 383.187 43.3529 385.75 42.5972 387.874C41.8416 389.988 40.7485 391.603 39.3181 392.718C37.8877 393.825 36.156 394.378 34.1228 394.378ZM34.1228 391.409C36.138 391.409 37.7033 390.437 38.8188 388.494C39.9344 386.551 40.4921 383.78 40.4921 380.182C40.4921 377.789 40.2357 375.751 39.723 374.069C39.2192 372.387 38.4905 371.105 37.5369 370.223C36.5923 369.341 35.4543 368.901 34.1228 368.901C32.1257 368.901 30.5648 369.886 29.4403 371.856C28.3158 373.817 27.7535 376.592 27.7535 380.182C27.7535 382.575 28.0054 384.608 28.5092 386.281C29.013 387.955 29.7372 389.228 30.6818 390.1C31.6354 390.973 32.7824 391.409 34.1228 391.409ZM48.0986 394V391.571L57.2208 381.585C58.2913 380.416 59.1729 379.399 59.8657 378.536C60.5584 377.663 61.0711 376.844 61.404 376.08C61.7459 375.306 61.9168 374.496 61.9168 373.651C61.9168 372.679 61.6829 371.838 61.2151 371.127C60.7563 370.416 60.1265 369.868 59.3259 369.481C58.5252 369.094 57.6256 368.901 56.627 368.901C55.5655 368.901 54.6389 369.121 53.8472 369.562C53.0645 369.994 52.4573 370.601 52.0255 371.384C51.6026 372.166 51.3912 373.084 51.3912 374.136H48.2066C48.2066 372.517 48.5799 371.096 49.3266 369.872C50.0733 368.649 51.0898 367.695 52.3763 367.011C53.6718 366.328 55.1246 365.986 56.735 365.986C58.3543 365.986 59.7892 366.328 61.0397 367.011C62.2901 367.695 63.2707 368.617 63.9814 369.778C64.6921 370.938 65.0475 372.229 65.0475 373.651C65.0475 374.667 64.863 375.661 64.4942 376.633C64.1344 377.595 63.5046 378.67 62.605 379.858C61.7144 381.036 60.4774 382.476 58.8941 384.176L52.6867 390.815V391.031H65.5333V394H48.0986ZM69.1049 388.332V385.58L81.2498 366.364H83.247V370.628H81.8976L72.7214 385.148V385.364H89.0765V388.332H69.1049ZM82.1135 394V387.496V386.214V366.364H85.2981V394H82.1135Z" fill="#F26966"/>
<path d="M361.929 370.182V392H359.287V372.952H359.159L353.832 376.489V373.804L359.287 370.182H361.929ZM374.72 392.298C373.115 392.298 371.748 391.862 370.619 390.988C369.489 390.107 368.627 388.832 368.03 387.163C367.433 385.487 367.135 383.463 367.135 381.091C367.135 378.733 367.433 376.719 368.03 375.05C368.634 373.374 369.5 372.096 370.629 371.215C371.766 370.327 373.129 369.884 374.72 369.884C376.311 369.884 377.671 370.327 378.801 371.215C379.937 372.096 380.803 373.374 381.4 375.05C382.004 376.719 382.306 378.733 382.306 381.091C382.306 383.463 382.007 385.487 381.411 387.163C380.814 388.832 379.951 390.107 378.822 390.988C377.693 391.862 376.325 392.298 374.72 392.298ZM374.72 389.955C376.311 389.955 377.547 389.187 378.428 387.653C379.308 386.119 379.749 383.932 379.749 381.091C379.749 379.202 379.546 377.593 379.141 376.265C378.744 374.937 378.168 373.925 377.416 373.229C376.67 372.533 375.771 372.185 374.72 372.185C373.144 372.185 371.911 372.962 371.024 374.518C370.136 376.066 369.692 378.257 369.692 381.091C369.692 382.98 369.891 384.585 370.288 385.906C370.686 387.227 371.258 388.232 372.004 388.921C372.757 389.61 373.662 389.955 374.72 389.955ZM386.867 392.17C386.342 392.17 385.891 391.982 385.514 391.606C385.138 391.229 384.95 390.778 384.95 390.253C384.95 389.727 385.138 389.276 385.514 388.9C385.891 388.523 386.342 388.335 386.867 388.335C387.393 388.335 387.844 388.523 388.22 388.9C388.597 389.276 388.785 389.727 388.785 390.253C388.785 390.601 388.696 390.92 388.518 391.212C388.348 391.503 388.117 391.737 387.826 391.915C387.542 392.085 387.222 392.17 386.867 392.17Z" fill="#8D8D8D"/>
<path d="M467.744 390.254C463.669 390.254 461.308 386.826 461.32 380.809C461.308 374.842 463.694 371.363 467.744 371.363C471.781 371.363 474.168 374.842 474.168 380.809C474.168 386.826 471.819 390.254 467.744 390.254ZM463.529 380.809C463.542 385.569 465.078 388.223 467.744 388.223C470.397 388.223 471.946 385.569 471.934 380.809C471.946 376.048 470.385 373.356 467.744 373.344C465.104 373.356 463.542 376.048 463.529 380.809ZM482.712 390.254C478.637 390.254 476.276 386.826 476.289 380.809C476.276 374.842 478.663 371.363 482.712 371.363C486.75 371.363 489.136 374.842 489.136 380.809C489.136 386.826 486.788 390.254 482.712 390.254ZM478.498 380.809C478.51 385.569 480.046 388.223 482.712 388.223C485.366 388.223 486.915 385.569 486.902 380.809C486.915 376.048 485.353 373.356 482.712 373.344C480.072 373.356 478.51 376.048 478.498 380.809ZM497.681 390.254C493.606 390.254 491.244 386.826 491.257 380.809C491.244 374.842 493.631 371.363 497.681 371.363C501.718 371.363 504.105 374.842 504.105 380.809C504.105 386.826 501.756 390.254 497.681 390.254ZM493.466 380.809C493.479 385.569 495.015 388.223 497.681 388.223C500.334 388.223 501.883 385.569 501.87 380.809C501.883 376.048 500.321 373.356 497.681 373.344C495.04 373.356 493.479 376.048 493.466 380.809ZM512.649 390.254C508.574 390.254 506.212 386.826 506.225 380.809C506.212 374.842 508.599 371.363 512.649 371.363C516.686 371.363 519.073 374.842 519.073 380.809C519.073 386.826 516.724 390.254 512.649 390.254ZM508.434 380.809C508.447 385.569 509.983 388.223 512.649 388.223C515.302 388.223 516.851 385.569 516.838 380.809C516.851 376.048 515.29 373.356 512.649 373.344C510.008 373.356 508.447 376.048 508.434 380.809ZM539.5 369.484V381.164H537.494V375.299H532.467V373.648H537.494V369.484H539.5ZM520.762 379.615C524.164 378.485 526.5 375.654 526.525 372.354V370.221H528.481V372.354C528.455 375.312 530.791 378.028 534.092 379.107L533.025 380.656C530.524 379.768 528.531 377.99 527.528 375.705C526.564 378.282 524.52 380.25 521.854 381.215L520.762 379.615ZM524.875 383.906V382.307H539.5V387.689H526.881V390.152H540.338V391.752H524.926V386.166H537.52V383.906H524.875ZM561.375 369.51V381.9H559.394V369.51H561.375ZM543.88 372.252V370.602H554.189V376.695H545.861V379.768C549.898 379.742 552.907 379.653 556.576 379.057L556.804 380.707C553.008 381.304 549.923 381.418 545.759 381.443H543.931V375.121H552.209V372.252H543.88ZM546.699 391.752V383.043H548.705V385.734H559.394V383.043H561.375V391.752H546.699ZM548.705 390.127H559.394V387.334H548.705V390.127Z" fill="#8D8D8D"/>
<circle cx="130" cy="381" r="5" fill="#8D8D8D"/>
<line x1="130.487" y1="381.1" x2="320.5" y2="381.1" stroke="#8D8D8D" stroke-width="0.8"/>
<circle cx="321" cy="381" r="5" fill="#F26966"/>
<path d="M361.929 432.182V454H359.287V434.952H359.159L353.832 438.489V435.804L359.287 432.182H361.929ZM374.592 454.298C373.129 454.298 371.837 454.039 370.715 453.521C369.6 452.995 368.73 452.274 368.105 451.358C367.48 450.435 367.171 449.384 367.178 448.205C367.171 447.281 367.352 446.429 367.721 445.648C368.09 444.859 368.595 444.202 369.234 443.677C369.88 443.144 370.601 442.807 371.396 442.665V442.537C370.352 442.267 369.521 441.681 368.904 440.779C368.286 439.87 367.98 438.837 367.987 437.679C367.98 436.571 368.261 435.58 368.829 434.707C369.397 433.833 370.178 433.144 371.173 432.64C372.174 432.136 373.314 431.884 374.592 431.884C375.857 431.884 376.986 432.136 377.98 432.64C378.975 433.144 379.756 433.833 380.324 434.707C380.899 435.58 381.19 436.571 381.198 437.679C381.19 438.837 380.874 439.87 380.249 440.779C379.632 441.681 378.811 442.267 377.788 442.537V442.665C378.577 442.807 379.287 443.144 379.919 443.677C380.551 444.202 381.056 444.859 381.432 445.648C381.808 446.429 382 447.281 382.007 448.205C382 449.384 381.681 450.435 381.048 451.358C380.423 452.274 379.553 452.995 378.438 453.521C377.33 454.039 376.048 454.298 374.592 454.298ZM374.592 451.955C375.58 451.955 376.432 451.795 377.149 451.475C377.867 451.156 378.421 450.705 378.811 450.122C379.202 449.54 379.401 448.858 379.408 448.077C379.401 447.253 379.188 446.525 378.769 445.893C378.35 445.261 377.778 444.763 377.053 444.401C376.336 444.039 375.516 443.858 374.592 443.858C373.662 443.858 372.831 444.039 372.1 444.401C371.375 444.763 370.803 445.261 370.384 445.893C369.972 446.525 369.77 447.253 369.777 448.077C369.77 448.858 369.958 449.54 370.342 450.122C370.732 450.705 371.29 451.156 372.014 451.475C372.739 451.795 373.598 451.955 374.592 451.955ZM374.592 441.599C375.374 441.599 376.066 441.443 376.67 441.131C377.281 440.818 377.76 440.381 378.108 439.82C378.456 439.259 378.634 438.602 378.641 437.849C378.634 437.111 378.46 436.468 378.119 435.921C377.778 435.367 377.306 434.941 376.702 434.643C376.098 434.337 375.395 434.185 374.592 434.185C373.776 434.185 373.062 434.337 372.451 434.643C371.84 434.941 371.368 435.367 371.034 435.921C370.7 436.468 370.537 437.111 370.544 437.849C370.537 438.602 370.704 439.259 371.045 439.82C371.393 440.381 371.872 440.818 372.483 441.131C373.094 441.443 373.797 441.599 374.592 441.599ZM386.691 454.17C386.166 454.17 385.715 453.982 385.338 453.606C384.962 453.229 384.774 452.778 384.774 452.253C384.774 451.727 384.962 451.276 385.338 450.9C385.715 450.523 386.166 450.335 386.691 450.335C387.217 450.335 387.668 450.523 388.044 450.9C388.421 451.276 388.609 451.727 388.609 452.253C388.609 452.601 388.52 452.92 388.343 453.212C388.172 453.503 387.941 453.737 387.65 453.915C387.366 454.085 387.046 454.17 386.691 454.17Z" fill="#8D8D8D"/>
<path d="M467.744 452.254C463.669 452.254 461.308 448.826 461.32 442.809C461.308 436.842 463.694 433.363 467.744 433.363C471.781 433.363 474.168 436.842 474.168 442.809C474.168 448.826 471.819 452.254 467.744 452.254ZM463.529 442.809C463.542 447.569 465.078 450.223 467.744 450.223C470.397 450.223 471.946 447.569 471.934 442.809C471.946 438.048 470.385 435.356 467.744 435.344C465.104 435.356 463.542 438.048 463.529 442.809ZM482.712 452.254C478.637 452.254 476.276 448.826 476.289 442.809C476.276 436.842 478.663 433.363 482.712 433.363C486.75 433.363 489.136 436.842 489.136 442.809C489.136 448.826 486.788 452.254 482.712 452.254ZM478.498 442.809C478.51 447.569 480.046 450.223 482.712 450.223C485.366 450.223 486.915 447.569 486.902 442.809C486.915 438.048 485.353 435.356 482.712 435.344C480.072 435.356 478.51 438.048 478.498 442.809ZM497.681 452.254C493.606 452.254 491.244 448.826 491.257 442.809C491.244 436.842 493.631 433.363 497.681 433.363C501.718 433.363 504.105 436.842 504.105 442.809C504.105 448.826 501.756 452.254 497.681 452.254ZM493.466 442.809C493.479 447.569 495.015 450.223 497.681 450.223C500.334 450.223 501.883 447.569 501.87 442.809C501.883 438.048 500.321 435.356 497.681 435.344C495.04 435.356 493.479 438.048 493.466 442.809ZM512.649 452.254C508.574 452.254 506.212 448.826 506.225 442.809C506.212 436.842 508.599 433.363 512.649 433.363C516.686 433.363 519.073 436.842 519.073 442.809C519.073 448.826 516.724 452.254 512.649 452.254ZM508.434 442.809C508.447 447.569 509.983 450.223 512.649 450.223C515.302 450.223 516.851 447.569 516.838 442.809C516.851 438.048 515.29 435.356 512.649 435.344C510.008 435.356 508.447 438.048 508.434 442.809ZM539.5 431.484V443.164H537.494V437.299H532.467V435.648H537.494V431.484H539.5ZM520.762 441.615C524.164 440.485 526.5 437.654 526.525 434.354V432.221H528.481V434.354C528.455 437.312 530.791 440.028 534.092 441.107L533.025 442.656C530.524 441.768 528.531 439.99 527.528 437.705C526.564 440.282 524.52 442.25 521.854 443.215L520.762 441.615ZM524.875 445.906V444.307H539.5V449.689H526.881V452.152H540.338V453.752H524.926V448.166H537.52V445.906H524.875ZM561.375 431.51V443.9H559.394V431.51H561.375ZM543.88 434.252V432.602H554.189V438.695H545.861V441.768C549.898 441.742 552.907 441.653 556.576 441.057L556.804 442.707C553.008 443.304 549.923 443.418 545.759 443.443H543.931V437.121H552.209V434.252H543.88ZM546.699 453.752V445.043H548.705V447.734H559.394V445.043H561.375V453.752H546.699ZM548.705 452.127H559.394V449.334H548.705V452.127Z" fill="#8D8D8D"/>
<line x1="244.5" y1="443.1" x2="320.5" y2="443.1" stroke="#8D8D8D" stroke-width="0.8"/>
<circle cx="321" cy="443" r="5" fill="#F26966"/>
<path d="M361.929 495.182V517H359.287V497.952H359.159L353.832 501.489V498.804L359.287 495.182H361.929ZM374.592 517.298C373.129 517.298 371.837 517.039 370.715 516.521C369.6 515.995 368.73 515.274 368.105 514.358C367.48 513.435 367.171 512.384 367.178 511.205C367.171 510.281 367.352 509.429 367.721 508.648C368.09 507.859 368.595 507.202 369.234 506.677C369.88 506.144 370.601 505.807 371.396 505.665V505.537C370.352 505.267 369.521 504.681 368.904 503.779C368.286 502.87 367.98 501.837 367.987 500.679C367.98 499.571 368.261 498.58 368.829 497.707C369.397 496.833 370.178 496.144 371.173 495.64C372.174 495.136 373.314 494.884 374.592 494.884C375.857 494.884 376.986 495.136 377.98 495.64C378.975 496.144 379.756 496.833 380.324 497.707C380.899 498.58 381.19 499.571 381.198 500.679C381.19 501.837 380.874 502.87 380.249 503.779C379.632 504.681 378.811 505.267 377.788 505.537V505.665C378.577 505.807 379.287 506.144 379.919 506.677C380.551 507.202 381.056 507.859 381.432 508.648C381.808 509.429 382 510.281 382.007 511.205C382 512.384 381.681 513.435 381.048 514.358C380.423 515.274 379.553 515.995 378.438 516.521C377.33 517.039 376.048 517.298 374.592 517.298ZM374.592 514.955C375.58 514.955 376.432 514.795 377.149 514.475C377.867 514.156 378.421 513.705 378.811 513.122C379.202 512.54 379.401 511.858 379.408 511.077C379.401 510.253 379.188 509.525 378.769 508.893C378.35 508.261 377.778 507.763 377.053 507.401C376.336 507.039 375.516 506.858 374.592 506.858C373.662 506.858 372.831 507.039 372.1 507.401C371.375 507.763 370.803 508.261 370.384 508.893C369.972 509.525 369.77 510.253 369.777 511.077C369.77 511.858 369.958 512.54 370.342 513.122C370.732 513.705 371.29 514.156 372.014 514.475C372.739 514.795 373.598 514.955 374.592 514.955ZM374.592 504.599C375.374 504.599 376.066 504.443 376.67 504.131C377.281 503.818 377.76 503.381 378.108 502.82C378.456 502.259 378.634 501.602 378.641 500.849C378.634 500.111 378.46 499.468 378.119 498.921C377.778 498.367 377.306 497.941 376.702 497.643C376.098 497.337 375.395 497.185 374.592 497.185C373.776 497.185 373.062 497.337 372.451 497.643C371.84 497.941 371.368 498.367 371.034 498.921C370.7 499.468 370.537 500.111 370.544 500.849C370.537 501.602 370.704 502.259 371.045 502.82C371.393 503.381 371.872 503.818 372.483 504.131C373.094 504.443 373.797 504.599 374.592 504.599ZM386.691 517.17C386.166 517.17 385.715 516.982 385.338 516.606C384.962 516.229 384.774 515.778 384.774 515.253C384.774 514.727 384.962 514.276 385.338 513.9C385.715 513.523 386.166 513.335 386.691 513.335C387.217 513.335 387.668 513.523 388.044 513.9C388.421 514.276 388.609 514.727 388.609 515.253C388.609 515.601 388.52 515.92 388.343 516.212C388.172 516.503 387.941 516.737 387.65 516.915C387.366 517.085 387.046 517.17 386.691 517.17Z" fill="#8D8D8D"/>
<path d="M467.744 515.254C463.669 515.254 461.308 511.826 461.32 505.809C461.308 499.842 463.694 496.363 467.744 496.363C471.781 496.363 474.168 499.842 474.168 505.809C474.168 511.826 471.819 515.254 467.744 515.254ZM463.529 505.809C463.542 510.569 465.078 513.223 467.744 513.223C470.397 513.223 471.946 510.569 471.934 505.809C471.946 501.048 470.385 498.356 467.744 498.344C465.104 498.356 463.542 501.048 463.529 505.809ZM482.712 515.254C478.637 515.254 476.276 511.826 476.289 505.809C476.276 499.842 478.663 496.363 482.712 496.363C486.75 496.363 489.136 499.842 489.136 505.809C489.136 511.826 486.788 515.254 482.712 515.254ZM478.498 505.809C478.51 510.569 480.046 513.223 482.712 513.223C485.366 513.223 486.915 510.569 486.902 505.809C486.915 501.048 485.353 498.356 482.712 498.344C480.072 498.356 478.51 501.048 478.498 505.809ZM497.681 515.254C493.606 515.254 491.244 511.826 491.257 505.809C491.244 499.842 493.631 496.363 497.681 496.363C501.718 496.363 504.105 499.842 504.105 505.809C504.105 511.826 501.756 515.254 497.681 515.254ZM493.466 505.809C493.479 510.569 495.015 513.223 497.681 513.223C500.334 513.223 501.883 510.569 501.87 505.809C501.883 501.048 500.321 498.356 497.681 498.344C495.04 498.356 493.479 501.048 493.466 505.809ZM512.649 515.254C508.574 515.254 506.212 511.826 506.225 505.809C506.212 499.842 508.599 496.363 512.649 496.363C516.686 496.363 519.073 499.842 519.073 505.809C519.073 511.826 516.724 515.254 512.649 515.254ZM508.434 505.809C508.447 510.569 509.983 513.223 512.649 513.223C515.302 513.223 516.851 510.569 516.838 505.809C516.851 501.048 515.29 498.356 512.649 498.344C510.008 498.356 508.447 501.048 508.434 505.809ZM539.5 494.484V506.164H537.494V500.299H532.467V498.648H537.494V494.484H539.5ZM520.762 504.615C524.164 503.485 526.5 500.654 526.525 497.354V495.221H528.481V497.354C528.455 500.312 530.791 503.028 534.092 504.107L533.025 505.656C530.524 504.768 528.531 502.99 527.528 500.705C526.564 503.282 524.52 505.25 521.854 506.215L520.762 504.615ZM524.875 508.906V507.307H539.5V512.689H526.881V515.152H540.338V516.752H524.926V511.166H537.52V508.906H524.875ZM561.375 494.51V506.9H559.394V494.51H561.375ZM543.88 497.252V495.602H554.189V501.695H545.861V504.768C549.898 504.742 552.907 504.653 556.576 504.057L556.804 505.707C553.008 506.304 549.923 506.418 545.759 506.443H543.931V500.121H552.209V497.252H543.88ZM546.699 516.752V508.043H548.705V510.734H559.394V508.043H561.375V516.752H546.699ZM548.705 515.127H559.394V512.334H548.705V515.127Z" fill="#8D8D8D"/>
<line x1="244.5" y1="506.1" x2="320.5" y2="506.1" stroke="#8D8D8D" stroke-width="0.8"/>
<circle cx="321" cy="506" r="5" fill="#F26966"/>
<path d="M361.929 558.182V580H359.287V560.952H359.159L353.832 564.489V561.804L359.287 558.182H361.929ZM374.592 580.298C373.129 580.298 371.837 580.039 370.715 579.521C369.6 578.995 368.73 578.274 368.105 577.358C367.48 576.435 367.171 575.384 367.178 574.205C367.171 573.281 367.352 572.429 367.721 571.648C368.09 570.859 368.595 570.202 369.234 569.677C369.88 569.144 370.601 568.807 371.396 568.665V568.537C370.352 568.267 369.521 567.681 368.904 566.779C368.286 565.87 367.98 564.837 367.987 563.679C367.98 562.571 368.261 561.58 368.829 560.707C369.397 559.833 370.178 559.144 371.173 558.64C372.174 558.136 373.314 557.884 374.592 557.884C375.857 557.884 376.986 558.136 377.98 558.64C378.975 559.144 379.756 559.833 380.324 560.707C380.899 561.58 381.19 562.571 381.198 563.679C381.19 564.837 380.874 565.87 380.249 566.779C379.632 567.681 378.811 568.267 377.788 568.537V568.665C378.577 568.807 379.287 569.144 379.919 569.677C380.551 570.202 381.056 570.859 381.432 571.648C381.808 572.429 382 573.281 382.007 574.205C382 575.384 381.681 576.435 381.048 577.358C380.423 578.274 379.553 578.995 378.438 579.521C377.33 580.039 376.048 580.298 374.592 580.298ZM374.592 577.955C375.58 577.955 376.432 577.795 377.149 577.475C377.867 577.156 378.421 576.705 378.811 576.122C379.202 575.54 379.401 574.858 379.408 574.077C379.401 573.253 379.188 572.525 378.769 571.893C378.35 571.261 377.778 570.763 377.053 570.401C376.336 570.039 375.516 569.858 374.592 569.858C373.662 569.858 372.831 570.039 372.1 570.401C371.375 570.763 370.803 571.261 370.384 571.893C369.972 572.525 369.77 573.253 369.777 574.077C369.77 574.858 369.958 575.54 370.342 576.122C370.732 576.705 371.29 577.156 372.014 577.475C372.739 577.795 373.598 577.955 374.592 577.955ZM374.592 567.599C375.374 567.599 376.066 567.443 376.67 567.131C377.281 566.818 377.76 566.381 378.108 565.82C378.456 565.259 378.634 564.602 378.641 563.849C378.634 563.111 378.46 562.468 378.119 561.921C377.778 561.367 377.306 560.941 376.702 560.643C376.098 560.337 375.395 560.185 374.592 560.185C373.776 560.185 373.062 560.337 372.451 560.643C371.84 560.941 371.368 561.367 371.034 561.921C370.7 562.468 370.537 563.111 370.544 563.849C370.537 564.602 370.704 565.259 371.045 565.82C371.393 566.381 371.872 566.818 372.483 567.131C373.094 567.443 373.797 567.599 374.592 567.599ZM386.691 580.17C386.166 580.17 385.715 579.982 385.338 579.606C384.962 579.229 384.774 578.778 384.774 578.253C384.774 577.727 384.962 577.276 385.338 576.9C385.715 576.523 386.166 576.335 386.691 576.335C387.217 576.335 387.668 576.523 388.044 576.9C388.421 577.276 388.609 577.727 388.609 578.253C388.609 578.601 388.52 578.92 388.343 579.212C388.172 579.503 387.941 579.737 387.65 579.915C387.366 580.085 387.046 580.17 386.691 580.17Z" fill="#8D8D8D"/>
<path d="M467.744 578.254C463.669 578.254 461.308 574.826 461.32 568.809C461.308 562.842 463.694 559.363 467.744 559.363C471.781 559.363 474.168 562.842 474.168 568.809C474.168 574.826 471.819 578.254 467.744 578.254ZM463.529 568.809C463.542 573.569 465.078 576.223 467.744 576.223C470.397 576.223 471.946 573.569 471.934 568.809C471.946 564.048 470.385 561.356 467.744 561.344C465.104 561.356 463.542 564.048 463.529 568.809ZM482.712 578.254C478.637 578.254 476.276 574.826 476.289 568.809C476.276 562.842 478.663 559.363 482.712 559.363C486.75 559.363 489.136 562.842 489.136 568.809C489.136 574.826 486.788 578.254 482.712 578.254ZM478.498 568.809C478.51 573.569 480.046 576.223 482.712 576.223C485.366 576.223 486.915 573.569 486.902 568.809C486.915 564.048 485.353 561.356 482.712 561.344C480.072 561.356 478.51 564.048 478.498 568.809ZM497.681 578.254C493.606 578.254 491.244 574.826 491.257 568.809C491.244 562.842 493.631 559.363 497.681 559.363C501.718 559.363 504.105 562.842 504.105 568.809C504.105 574.826 501.756 578.254 497.681 578.254ZM493.466 568.809C493.479 573.569 495.015 576.223 497.681 576.223C500.334 576.223 501.883 573.569 501.87 568.809C501.883 564.048 500.321 561.356 497.681 561.344C495.04 561.356 493.479 564.048 493.466 568.809ZM512.649 578.254C508.574 578.254 506.212 574.826 506.225 568.809C506.212 562.842 508.599 559.363 512.649 559.363C516.686 559.363 519.073 562.842 519.073 568.809C519.073 574.826 516.724 578.254 512.649 578.254ZM508.434 568.809C508.447 573.569 509.983 576.223 512.649 576.223C515.302 576.223 516.851 573.569 516.838 568.809C516.851 564.048 515.29 561.356 512.649 561.344C510.008 561.356 508.447 564.048 508.434 568.809ZM539.5 557.484V569.164H537.494V563.299H532.467V561.648H537.494V557.484H539.5ZM520.762 567.615C524.164 566.485 526.5 563.654 526.525 560.354V558.221H528.481V560.354C528.455 563.312 530.791 566.028 534.092 567.107L533.025 568.656C530.524 567.768 528.531 565.99 527.528 563.705C526.564 566.282 524.52 568.25 521.854 569.215L520.762 567.615ZM524.875 571.906V570.307H539.5V575.689H526.881V578.152H540.338V579.752H524.926V574.166H537.52V571.906H524.875ZM561.375 557.51V569.9H559.394V557.51H561.375ZM543.88 560.252V558.602H554.189V564.695H545.861V567.768C549.898 567.742 552.907 567.653 556.576 567.057L556.804 568.707C553.008 569.304 549.923 569.418 545.759 569.443H543.931V563.121H552.209V560.252H543.88ZM546.699 579.752V571.043H548.705V573.734H559.394V571.043H561.375V579.752H546.699ZM548.705 578.127H559.394V575.334H548.705V578.127Z" fill="#8D8D8D"/>
<line x1="244.5" y1="569.1" x2="320.5" y2="569.1" stroke="#8D8D8D" stroke-width="0.8"/>
<circle cx="321" cy="569" r="5" fill="#F26966"/>
<path d="M2.8608 751V748.571L11.983 738.585C13.0535 737.416 13.9351 736.399 14.6278 735.536C15.3205 734.663 15.8333 733.844 16.1662 733.08C16.508 732.306 16.679 731.496 16.679 730.651C16.679 729.679 16.4451 728.838 15.9773 728.127C15.5185 727.416 14.8887 726.868 14.0881 726.481C13.2874 726.094 12.3878 725.901 11.3892 725.901C10.3277 725.901 9.40104 726.121 8.60938 726.562C7.8267 726.994 7.21946 727.601 6.78764 728.384C6.36482 729.166 6.15341 730.084 6.15341 731.136H2.96875C2.96875 729.517 3.34209 728.096 4.08878 726.872C4.83546 725.649 5.85204 724.695 7.13849 724.011C8.43395 723.328 9.88684 722.986 11.4972 722.986C13.1165 722.986 14.5514 723.328 15.8018 724.011C17.0523 724.695 18.0329 725.617 18.7436 726.778C19.4543 727.938 19.8097 729.229 19.8097 730.651C19.8097 731.667 19.6252 732.661 19.2564 733.633C18.8965 734.595 18.2668 735.67 17.3672 736.858C16.4766 738.036 15.2396 739.476 13.6562 741.176L7.44886 747.815V748.031H20.2955V751H2.8608ZM34.1228 751.378C32.0897 751.378 30.3579 750.825 28.9275 749.718C27.4971 748.603 26.4041 746.988 25.6484 744.874C24.8927 742.75 24.5149 740.187 24.5149 737.182C24.5149 734.195 24.8927 731.645 25.6484 729.531C26.4131 727.407 27.5106 725.788 28.941 724.673C30.3804 723.548 32.1077 722.986 34.1228 722.986C36.138 722.986 37.8607 723.548 39.2911 724.673C40.7305 725.788 41.8281 727.407 42.5837 729.531C43.3484 731.645 43.7308 734.195 43.7308 737.182C43.7308 740.187 43.3529 742.75 42.5972 744.874C41.8416 746.988 40.7485 748.603 39.3181 749.718C37.8877 750.825 36.156 751.378 34.1228 751.378ZM34.1228 748.409C36.138 748.409 37.7033 747.437 38.8188 745.494C39.9344 743.551 40.4921 740.78 40.4921 737.182C40.4921 734.789 40.2357 732.751 39.723 731.069C39.2192 729.387 38.4905 728.105 37.5369 727.223C36.5923 726.341 35.4543 725.901 34.1228 725.901C32.1257 725.901 30.5648 726.886 29.4403 728.856C28.3158 730.817 27.7535 733.592 27.7535 737.182C27.7535 739.575 28.0054 741.608 28.5092 743.281C29.013 744.955 29.7372 746.228 30.6818 747.1C31.6354 747.973 32.7824 748.409 34.1228 748.409ZM48.0986 751V748.571L57.2208 738.585C58.2913 737.416 59.1729 736.399 59.8657 735.536C60.5584 734.663 61.0711 733.844 61.404 733.08C61.7459 732.306 61.9168 731.496 61.9168 730.651C61.9168 729.679 61.6829 728.838 61.2151 728.127C60.7563 727.416 60.1265 726.868 59.3259 726.481C58.5252 726.094 57.6256 725.901 56.627 725.901C55.5655 725.901 54.6389 726.121 53.8472 726.562C53.0645 726.994 52.4573 727.601 52.0255 728.384C51.6026 729.166 51.3912 730.084 51.3912 731.136H48.2066C48.2066 729.517 48.5799 728.096 49.3266 726.872C50.0733 725.649 51.0898 724.695 52.3763 724.011C53.6718 723.328 55.1246 722.986 56.735 722.986C58.3543 722.986 59.7892 723.328 61.0397 724.011C62.2901 724.695 63.2707 725.617 63.9814 726.778C64.6921 727.938 65.0475 729.229 65.0475 730.651C65.0475 731.667 64.863 732.661 64.4942 733.633C64.1344 734.595 63.5046 735.67 62.605 736.858C61.7144 738.036 60.4774 739.476 58.8941 741.176L52.6867 747.815V748.031H65.5333V751H48.0986ZM79.6845 751.378C77.9032 751.378 76.3154 751.072 74.921 750.46C73.5356 749.848 72.4335 748.998 71.6149 747.91C70.8052 746.812 70.3644 745.539 70.2924 744.091H73.693C73.765 744.982 74.0709 745.751 74.6106 746.398C75.1504 747.037 75.8566 747.532 76.7292 747.883C77.6019 748.234 78.569 748.409 79.6305 748.409C80.818 748.409 81.8706 748.202 82.7882 747.788C83.7058 747.375 84.4255 746.799 84.9473 746.061C85.4691 745.323 85.7299 744.469 85.7299 743.497C85.7299 742.481 85.4781 741.585 84.9743 740.812C84.4705 740.029 83.7328 739.417 82.7612 738.977C81.7896 738.536 80.6021 738.315 79.1987 738.315H76.9856V735.347H79.1987C80.2962 735.347 81.2588 735.149 82.0865 734.753C82.9231 734.357 83.5754 733.799 84.0432 733.08C84.52 732.36 84.7584 731.514 84.7584 730.543C84.7584 729.607 84.5514 728.793 84.1376 728.1C83.7238 727.407 83.139 726.868 82.3834 726.481C81.6367 726.094 80.755 725.901 79.7385 725.901C78.7849 725.901 77.8852 726.076 77.0396 726.427C76.203 726.769 75.5192 727.268 74.9885 727.925C74.4577 728.572 74.1698 729.355 74.1248 730.273H70.8862C70.9402 728.824 71.3765 727.556 72.1951 726.467C73.0138 725.37 74.0843 724.515 75.4068 723.903C76.7382 723.292 78.2001 722.986 79.7924 722.986C81.5017 722.986 82.9681 723.332 84.1916 724.025C85.4151 724.709 86.3552 725.613 87.0119 726.737C87.6686 727.862 87.997 729.076 87.997 730.381C87.997 731.937 87.5877 733.264 86.769 734.362C85.9593 735.459 84.8573 736.219 83.4629 736.642V736.858C85.2082 737.146 86.5711 737.888 87.5517 739.085C88.5323 740.272 89.0226 741.743 89.0226 743.497C89.0226 745 88.6132 746.349 87.7946 747.545C86.9849 748.733 85.8784 749.669 84.475 750.352C83.0716 751.036 81.4747 751.378 79.6845 751.378Z" fill="#F26966"/>
<path d="M361.929 727.182V749H359.287V729.952H359.159L353.832 733.489V730.804L359.287 727.182H361.929ZM374.72 749.298C373.115 749.298 371.748 748.862 370.619 747.988C369.489 747.107 368.627 745.832 368.03 744.163C367.433 742.487 367.135 740.463 367.135 738.091C367.135 735.733 367.433 733.719 368.03 732.05C368.634 730.374 369.5 729.096 370.629 728.215C371.766 727.327 373.129 726.884 374.72 726.884C376.311 726.884 377.671 727.327 378.801 728.215C379.937 729.096 380.803 730.374 381.4 732.05C382.004 733.719 382.306 735.733 382.306 738.091C382.306 740.463 382.007 742.487 381.411 744.163C380.814 745.832 379.951 747.107 378.822 747.988C377.693 748.862 376.325 749.298 374.72 749.298ZM374.72 746.955C376.311 746.955 377.547 746.187 378.428 744.653C379.308 743.119 379.749 740.932 379.749 738.091C379.749 736.202 379.546 734.593 379.141 733.265C378.744 731.937 378.168 730.925 377.416 730.229C376.67 729.533 375.771 729.185 374.72 729.185C373.144 729.185 371.911 729.962 371.024 731.518C370.136 733.066 369.692 735.257 369.692 738.091C369.692 739.98 369.891 741.585 370.288 742.906C370.686 744.227 371.258 745.232 372.004 745.921C372.757 746.61 373.662 746.955 374.72 746.955ZM386.867 749.17C386.342 749.17 385.891 748.982 385.514 748.606C385.138 748.229 384.95 747.778 384.95 747.253C384.95 746.727 385.138 746.276 385.514 745.9C385.891 745.523 386.342 745.335 386.867 745.335C387.393 745.335 387.844 745.523 388.22 745.9C388.597 746.276 388.785 746.727 388.785 747.253C388.785 747.601 388.696 747.92 388.518 748.212C388.348 748.503 388.117 748.737 387.826 748.915C387.542 749.085 387.222 749.17 386.867 749.17Z" fill="#8D8D8D"/>
<path d="M467.744 747.254C463.669 747.254 461.308 743.826 461.32 737.809C461.308 731.842 463.694 728.363 467.744 728.363C471.781 728.363 474.168 731.842 474.168 737.809C474.168 743.826 471.819 747.254 467.744 747.254ZM463.529 737.809C463.542 742.569 465.078 745.223 467.744 745.223C470.397 745.223 471.946 742.569 471.934 737.809C471.946 733.048 470.385 730.356 467.744 730.344C465.104 730.356 463.542 733.048 463.529 737.809ZM482.712 747.254C478.637 747.254 476.276 743.826 476.289 737.809C476.276 731.842 478.663 728.363 482.712 728.363C486.75 728.363 489.136 731.842 489.136 737.809C489.136 743.826 486.788 747.254 482.712 747.254ZM478.498 737.809C478.51 742.569 480.046 745.223 482.712 745.223C485.366 745.223 486.915 742.569 486.902 737.809C486.915 733.048 485.353 730.356 482.712 730.344C480.072 730.356 478.51 733.048 478.498 737.809ZM497.681 747.254C493.606 747.254 491.244 743.826 491.257 737.809C491.244 731.842 493.631 728.363 497.681 728.363C501.718 728.363 504.105 731.842 504.105 737.809C504.105 743.826 501.756 747.254 497.681 747.254ZM493.466 737.809C493.479 742.569 495.015 745.223 497.681 745.223C500.334 745.223 501.883 742.569 501.87 737.809C501.883 733.048 500.321 730.356 497.681 730.344C495.04 730.356 493.479 733.048 493.466 737.809ZM512.649 747.254C508.574 747.254 506.212 743.826 506.225 737.809C506.212 731.842 508.599 728.363 512.649 728.363C516.686 728.363 519.073 731.842 519.073 737.809C519.073 743.826 516.724 747.254 512.649 747.254ZM508.434 737.809C508.447 742.569 509.983 745.223 512.649 745.223C515.302 745.223 516.851 742.569 516.838 737.809C516.851 733.048 515.29 730.356 512.649 730.344C510.008 730.356 508.447 733.048 508.434 737.809ZM539.5 726.484V738.164H537.494V732.299H532.467V730.648H537.494V726.484H539.5ZM520.762 736.615C524.164 735.485 526.5 732.654 526.525 729.354V727.221H528.481V729.354C528.455 732.312 530.791 735.028 534.092 736.107L533.025 737.656C530.524 736.768 528.531 734.99 527.528 732.705C526.564 735.282 524.52 737.25 521.854 738.215L520.762 736.615ZM524.875 740.906V739.307H539.5V744.689H526.881V747.152H540.338V748.752H524.926V743.166H537.52V740.906H524.875ZM561.375 726.51V738.9H559.394V726.51H561.375ZM543.88 729.252V727.602H554.189V733.695H545.861V736.768C549.898 736.742 552.907 736.653 556.576 736.057L556.804 737.707C553.008 738.304 549.923 738.418 545.759 738.443H543.931V732.121H552.209V729.252H543.88ZM546.699 748.752V740.043H548.705V742.734H559.394V740.043H561.375V748.752H546.699ZM548.705 747.127H559.394V744.334H548.705V747.127Z" fill="#8D8D8D"/>
<circle cx="130" cy="738" r="5" fill="#8D8D8D"/>
<line x1="130.487" y1="738.1" x2="320.5" y2="738.1" stroke="#8D8D8D" stroke-width="0.8"/>
<circle cx="321" cy="738" r="5" fill="#F26966"/>
<path d="M361.929 789.182V811H359.287V791.952H359.159L353.832 795.489V792.804L359.287 789.182H361.929ZM374.592 811.298C373.129 811.298 371.837 811.039 370.715 810.521C369.6 809.995 368.73 809.274 368.105 808.358C367.48 807.435 367.171 806.384 367.178 805.205C367.171 804.281 367.352 803.429 367.721 802.648C368.09 801.859 368.595 801.202 369.234 800.677C369.88 800.144 370.601 799.807 371.396 799.665V799.537C370.352 799.267 369.521 798.681 368.904 797.779C368.286 796.87 367.98 795.837 367.987 794.679C367.98 793.571 368.261 792.58 368.829 791.707C369.397 790.833 370.178 790.144 371.173 789.64C372.174 789.136 373.314 788.884 374.592 788.884C375.857 788.884 376.986 789.136 377.98 789.64C378.975 790.144 379.756 790.833 380.324 791.707C380.899 792.58 381.19 793.571 381.198 794.679C381.19 795.837 380.874 796.87 380.249 797.779C379.632 798.681 378.811 799.267 377.788 799.537V799.665C378.577 799.807 379.287 800.144 379.919 800.677C380.551 801.202 381.056 801.859 381.432 802.648C381.808 803.429 382 804.281 382.007 805.205C382 806.384 381.681 807.435 381.048 808.358C380.423 809.274 379.553 809.995 378.438 810.521C377.33 811.039 376.048 811.298 374.592 811.298ZM374.592 808.955C375.58 808.955 376.432 808.795 377.149 808.475C377.867 808.156 378.421 807.705 378.811 807.122C379.202 806.54 379.401 805.858 379.408 805.077C379.401 804.253 379.188 803.525 378.769 802.893C378.35 802.261 377.778 801.763 377.053 801.401C376.336 801.039 375.516 800.858 374.592 800.858C373.662 800.858 372.831 801.039 372.1 801.401C371.375 801.763 370.803 802.261 370.384 802.893C369.972 803.525 369.77 804.253 369.777 805.077C369.77 805.858 369.958 806.54 370.342 807.122C370.732 807.705 371.29 808.156 372.014 808.475C372.739 808.795 373.598 808.955 374.592 808.955ZM374.592 798.599C375.374 798.599 376.066 798.443 376.67 798.131C377.281 797.818 377.76 797.381 378.108 796.82C378.456 796.259 378.634 795.602 378.641 794.849C378.634 794.111 378.46 793.468 378.119 792.921C377.778 792.367 377.306 791.941 376.702 791.643C376.098 791.337 375.395 791.185 374.592 791.185C373.776 791.185 373.062 791.337 372.451 791.643C371.84 791.941 371.368 792.367 371.034 792.921C370.7 793.468 370.537 794.111 370.544 794.849C370.537 795.602 370.704 796.259 371.045 796.82C371.393 797.381 371.872 797.818 372.483 798.131C373.094 798.443 373.797 798.599 374.592 798.599ZM386.691 811.17C386.166 811.17 385.715 810.982 385.338 810.606C384.962 810.229 384.774 809.778 384.774 809.253C384.774 808.727 384.962 808.276 385.338 807.9C385.715 807.523 386.166 807.335 386.691 807.335C387.217 807.335 387.668 807.523 388.044 807.9C388.421 808.276 388.609 808.727 388.609 809.253C388.609 809.601 388.52 809.92 388.343 810.212C388.172 810.503 387.941 810.737 387.65 810.915C387.366 811.085 387.046 811.17 386.691 811.17Z" fill="#8D8D8D"/>
<path d="M467.744 809.254C463.669 809.254 461.308 805.826 461.32 799.809C461.308 793.842 463.694 790.363 467.744 790.363C471.781 790.363 474.168 793.842 474.168 799.809C474.168 805.826 471.819 809.254 467.744 809.254ZM463.529 799.809C463.542 804.569 465.078 807.223 467.744 807.223C470.397 807.223 471.946 804.569 471.934 799.809C471.946 795.048 470.385 792.356 467.744 792.344C465.104 792.356 463.542 795.048 463.529 799.809ZM482.712 809.254C478.637 809.254 476.276 805.826 476.289 799.809C476.276 793.842 478.663 790.363 482.712 790.363C486.75 790.363 489.136 793.842 489.136 799.809C489.136 805.826 486.788 809.254 482.712 809.254ZM478.498 799.809C478.51 804.569 480.046 807.223 482.712 807.223C485.366 807.223 486.915 804.569 486.902 799.809C486.915 795.048 485.353 792.356 482.712 792.344C480.072 792.356 478.51 795.048 478.498 799.809ZM497.681 809.254C493.606 809.254 491.244 805.826 491.257 799.809C491.244 793.842 493.631 790.363 497.681 790.363C501.718 790.363 504.105 793.842 504.105 799.809C504.105 805.826 501.756 809.254 497.681 809.254ZM493.466 799.809C493.479 804.569 495.015 807.223 497.681 807.223C500.334 807.223 501.883 804.569 501.87 799.809C501.883 795.048 500.321 792.356 497.681 792.344C495.04 792.356 493.479 795.048 493.466 799.809ZM512.649 809.254C508.574 809.254 506.212 805.826 506.225 799.809C506.212 793.842 508.599 790.363 512.649 790.363C516.686 790.363 519.073 793.842 519.073 799.809C519.073 805.826 516.724 809.254 512.649 809.254ZM508.434 799.809C508.447 804.569 509.983 807.223 512.649 807.223C515.302 807.223 516.851 804.569 516.838 799.809C516.851 795.048 515.29 792.356 512.649 792.344C510.008 792.356 508.447 795.048 508.434 799.809ZM539.5 788.484V800.164H537.494V794.299H532.467V792.648H537.494V788.484H539.5ZM520.762 798.615C524.164 797.485 526.5 794.654 526.525 791.354V789.221H528.481V791.354C528.455 794.312 530.791 797.028 534.092 798.107L533.025 799.656C530.524 798.768 528.531 796.99 527.528 794.705C526.564 797.282 524.52 799.25 521.854 800.215L520.762 798.615ZM524.875 802.906V801.307H539.5V806.689H526.881V809.152H540.338V810.752H524.926V805.166H537.52V802.906H524.875ZM561.375 788.51V800.9H559.394V788.51H561.375ZM543.88 791.252V789.602H554.189V795.695H545.861V798.768C549.898 798.742 552.907 798.653 556.576 798.057L556.804 799.707C553.008 800.304 549.923 800.418 545.759 800.443H543.931V794.121H552.209V791.252H543.88ZM546.699 810.752V802.043H548.705V804.734H559.394V802.043H561.375V810.752H546.699ZM548.705 809.127H559.394V806.334H548.705V809.127Z" fill="#8D8D8D"/>
<line x1="244.5" y1="800.1" x2="320.5" y2="800.1" stroke="#8D8D8D" stroke-width="0.8"/>
<circle cx="321" cy="800" r="5" fill="#F26966"/>
<path d="M361.929 852.182V874H359.287V854.952H359.159L353.832 858.489V855.804L359.287 852.182H361.929ZM374.592 874.298C373.129 874.298 371.837 874.039 370.715 873.521C369.6 872.995 368.73 872.274 368.105 871.358C367.48 870.435 367.171 869.384 367.178 868.205C367.171 867.281 367.352 866.429 367.721 865.648C368.09 864.859 368.595 864.202 369.234 863.677C369.88 863.144 370.601 862.807 371.396 862.665V862.537C370.352 862.267 369.521 861.681 368.904 860.779C368.286 859.87 367.98 858.837 367.987 857.679C367.98 856.571 368.261 855.58 368.829 854.707C369.397 853.833 370.178 853.144 371.173 852.64C372.174 852.136 373.314 851.884 374.592 851.884C375.857 851.884 376.986 852.136 377.98 852.64C378.975 853.144 379.756 853.833 380.324 854.707C380.899 855.58 381.19 856.571 381.198 857.679C381.19 858.837 380.874 859.87 380.249 860.779C379.632 861.681 378.811 862.267 377.788 862.537V862.665C378.577 862.807 379.287 863.144 379.919 863.677C380.551 864.202 381.056 864.859 381.432 865.648C381.808 866.429 382 867.281 382.007 868.205C382 869.384 381.681 870.435 381.048 871.358C380.423 872.274 379.553 872.995 378.438 873.521C377.33 874.039 376.048 874.298 374.592 874.298ZM374.592 871.955C375.58 871.955 376.432 871.795 377.149 871.475C377.867 871.156 378.421 870.705 378.811 870.122C379.202 869.54 379.401 868.858 379.408 868.077C379.401 867.253 379.188 866.525 378.769 865.893C378.35 865.261 377.778 864.763 377.053 864.401C376.336 864.039 375.516 863.858 374.592 863.858C373.662 863.858 372.831 864.039 372.1 864.401C371.375 864.763 370.803 865.261 370.384 865.893C369.972 866.525 369.77 867.253 369.777 868.077C369.77 868.858 369.958 869.54 370.342 870.122C370.732 870.705 371.29 871.156 372.014 871.475C372.739 871.795 373.598 871.955 374.592 871.955ZM374.592 861.599C375.374 861.599 376.066 861.443 376.67 861.131C377.281 860.818 377.76 860.381 378.108 859.82C378.456 859.259 378.634 858.602 378.641 857.849C378.634 857.111 378.46 856.468 378.119 855.921C377.778 855.367 377.306 854.941 376.702 854.643C376.098 854.337 375.395 854.185 374.592 854.185C373.776 854.185 373.062 854.337 372.451 854.643C371.84 854.941 371.368 855.367 371.034 855.921C370.7 856.468 370.537 857.111 370.544 857.849C370.537 858.602 370.704 859.259 371.045 859.82C371.393 860.381 371.872 860.818 372.483 861.131C373.094 861.443 373.797 861.599 374.592 861.599ZM386.691 874.17C386.166 874.17 385.715 873.982 385.338 873.606C384.962 873.229 384.774 872.778 384.774 872.253C384.774 871.727 384.962 871.276 385.338 870.9C385.715 870.523 386.166 870.335 386.691 870.335C387.217 870.335 387.668 870.523 388.044 870.9C388.421 871.276 388.609 871.727 388.609 872.253C388.609 872.601 388.52 872.92 388.343 873.212C388.172 873.503 387.941 873.737 387.65 873.915C387.366 874.085 387.046 874.17 386.691 874.17Z" fill="#8D8D8D"/>
<path d="M467.744 872.254C463.669 872.254 461.308 868.826 461.32 862.809C461.308 856.842 463.694 853.363 467.744 853.363C471.781 853.363 474.168 856.842 474.168 862.809C474.168 868.826 471.819 872.254 467.744 872.254ZM463.529 862.809C463.542 867.569 465.078 870.223 467.744 870.223C470.397 870.223 471.946 867.569 471.934 862.809C471.946 858.048 470.385 855.356 467.744 855.344C465.104 855.356 463.542 858.048 463.529 862.809ZM482.712 872.254C478.637 872.254 476.276 868.826 476.289 862.809C476.276 856.842 478.663 853.363 482.712 853.363C486.75 853.363 489.136 856.842 489.136 862.809C489.136 868.826 486.788 872.254 482.712 872.254ZM478.498 862.809C478.51 867.569 480.046 870.223 482.712 870.223C485.366 870.223 486.915 867.569 486.902 862.809C486.915 858.048 485.353 855.356 482.712 855.344C480.072 855.356 478.51 858.048 478.498 862.809ZM497.681 872.254C493.606 872.254 491.244 868.826 491.257 862.809C491.244 856.842 493.631 853.363 497.681 853.363C501.718 853.363 504.105 856.842 504.105 862.809C504.105 868.826 501.756 872.254 497.681 872.254ZM493.466 862.809C493.479 867.569 495.015 870.223 497.681 870.223C500.334 870.223 501.883 867.569 501.87 862.809C501.883 858.048 500.321 855.356 497.681 855.344C495.04 855.356 493.479 858.048 493.466 862.809ZM512.649 872.254C508.574 872.254 506.212 868.826 506.225 862.809C506.212 856.842 508.599 853.363 512.649 853.363C516.686 853.363 519.073 856.842 519.073 862.809C519.073 868.826 516.724 872.254 512.649 872.254ZM508.434 862.809C508.447 867.569 509.983 870.223 512.649 870.223C515.302 870.223 516.851 867.569 516.838 862.809C516.851 858.048 515.29 855.356 512.649 855.344C510.008 855.356 508.447 858.048 508.434 862.809ZM539.5 851.484V863.164H537.494V857.299H532.467V855.648H537.494V851.484H539.5ZM520.762 861.615C524.164 860.485 526.5 857.654 526.525 854.354V852.221H528.481V854.354C528.455 857.312 530.791 860.028 534.092 861.107L533.025 862.656C530.524 861.768 528.531 859.99 527.528 857.705C526.564 860.282 524.52 862.25 521.854 863.215L520.762 861.615ZM524.875 865.906V864.307H539.5V869.689H526.881V872.152H540.338V873.752H524.926V868.166H537.52V865.906H524.875ZM561.375 851.51V863.9H559.394V851.51H561.375ZM543.88 854.252V852.602H554.189V858.695H545.861V861.768C549.898 861.742 552.907 861.653 556.576 861.057L556.804 862.707C553.008 863.304 549.923 863.418 545.759 863.443H543.931V857.121H552.209V854.252H543.88ZM546.699 873.752V865.043H548.705V867.734H559.394V865.043H561.375V873.752H546.699ZM548.705 872.127H559.394V869.334H548.705V872.127Z" fill="#8D8D8D"/>
<line x1="244.5" y1="863.1" x2="320.5" y2="863.1" stroke="#8D8D8D" stroke-width="0.8"/>
<circle cx="321" cy="863" r="5" fill="#F26966"/>
<path d="M361.929 915.182V937H359.287V917.952H359.159L353.832 921.489V918.804L359.287 915.182H361.929ZM374.592 937.298C373.129 937.298 371.837 937.039 370.715 936.521C369.6 935.995 368.73 935.274 368.105 934.358C367.48 933.435 367.171 932.384 367.178 931.205C367.171 930.281 367.352 929.429 367.721 928.648C368.09 927.859 368.595 927.202 369.234 926.677C369.88 926.144 370.601 925.807 371.396 925.665V925.537C370.352 925.267 369.521 924.681 368.904 923.779C368.286 922.87 367.98 921.837 367.987 920.679C367.98 919.571 368.261 918.58 368.829 917.707C369.397 916.833 370.178 916.144 371.173 915.64C372.174 915.136 373.314 914.884 374.592 914.884C375.857 914.884 376.986 915.136 377.98 915.64C378.975 916.144 379.756 916.833 380.324 917.707C380.899 918.58 381.19 919.571 381.198 920.679C381.19 921.837 380.874 922.87 380.249 923.779C379.632 924.681 378.811 925.267 377.788 925.537V925.665C378.577 925.807 379.287 926.144 379.919 926.677C380.551 927.202 381.056 927.859 381.432 928.648C381.808 929.429 382 930.281 382.007 931.205C382 932.384 381.681 933.435 381.048 934.358C380.423 935.274 379.553 935.995 378.438 936.521C377.33 937.039 376.048 937.298 374.592 937.298ZM374.592 934.955C375.58 934.955 376.432 934.795 377.149 934.475C377.867 934.156 378.421 933.705 378.811 933.122C379.202 932.54 379.401 931.858 379.408 931.077C379.401 930.253 379.188 929.525 378.769 928.893C378.35 928.261 377.778 927.763 377.053 927.401C376.336 927.039 375.516 926.858 374.592 926.858C373.662 926.858 372.831 927.039 372.1 927.401C371.375 927.763 370.803 928.261 370.384 928.893C369.972 929.525 369.77 930.253 369.777 931.077C369.77 931.858 369.958 932.54 370.342 933.122C370.732 933.705 371.29 934.156 372.014 934.475C372.739 934.795 373.598 934.955 374.592 934.955ZM374.592 924.599C375.374 924.599 376.066 924.443 376.67 924.131C377.281 923.818 377.76 923.381 378.108 922.82C378.456 922.259 378.634 921.602 378.641 920.849C378.634 920.111 378.46 919.468 378.119 918.921C377.778 918.367 377.306 917.941 376.702 917.643C376.098 917.337 375.395 917.185 374.592 917.185C373.776 917.185 373.062 917.337 372.451 917.643C371.84 917.941 371.368 918.367 371.034 918.921C370.7 919.468 370.537 920.111 370.544 920.849C370.537 921.602 370.704 922.259 371.045 922.82C371.393 923.381 371.872 923.818 372.483 924.131C373.094 924.443 373.797 924.599 374.592 924.599ZM386.691 937.17C386.166 937.17 385.715 936.982 385.338 936.606C384.962 936.229 384.774 935.778 384.774 935.253C384.774 934.727 384.962 934.276 385.338 933.9C385.715 933.523 386.166 933.335 386.691 933.335C387.217 933.335 387.668 933.523 388.044 933.9C388.421 934.276 388.609 934.727 388.609 935.253C388.609 935.601 388.52 935.92 388.343 936.212C388.172 936.503 387.941 936.737 387.65 936.915C387.366 937.085 387.046 937.17 386.691 937.17Z" fill="#8D8D8D"/>
<path d="M467.744 935.254C463.669 935.254 461.308 931.826 461.32 925.809C461.308 919.842 463.694 916.363 467.744 916.363C471.781 916.363 474.168 919.842 474.168 925.809C474.168 931.826 471.819 935.254 467.744 935.254ZM463.529 925.809C463.542 930.569 465.078 933.223 467.744 933.223C470.397 933.223 471.946 930.569 471.934 925.809C471.946 921.048 470.385 918.356 467.744 918.344C465.104 918.356 463.542 921.048 463.529 925.809ZM482.712 935.254C478.637 935.254 476.276 931.826 476.289 925.809C476.276 919.842 478.663 916.363 482.712 916.363C486.75 916.363 489.136 919.842 489.136 925.809C489.136 931.826 486.788 935.254 482.712 935.254ZM478.498 925.809C478.51 930.569 480.046 933.223 482.712 933.223C485.366 933.223 486.915 930.569 486.902 925.809C486.915 921.048 485.353 918.356 482.712 918.344C480.072 918.356 478.51 921.048 478.498 925.809ZM497.681 935.254C493.606 935.254 491.244 931.826 491.257 925.809C491.244 919.842 493.631 916.363 497.681 916.363C501.718 916.363 504.105 919.842 504.105 925.809C504.105 931.826 501.756 935.254 497.681 935.254ZM493.466 925.809C493.479 930.569 495.015 933.223 497.681 933.223C500.334 933.223 501.883 930.569 501.87 925.809C501.883 921.048 500.321 918.356 497.681 918.344C495.04 918.356 493.479 921.048 493.466 925.809ZM512.649 935.254C508.574 935.254 506.212 931.826 506.225 925.809C506.212 919.842 508.599 916.363 512.649 916.363C516.686 916.363 519.073 919.842 519.073 925.809C519.073 931.826 516.724 935.254 512.649 935.254ZM508.434 925.809C508.447 930.569 509.983 933.223 512.649 933.223C515.302 933.223 516.851 930.569 516.838 925.809C516.851 921.048 515.29 918.356 512.649 918.344C510.008 918.356 508.447 921.048 508.434 925.809ZM539.5 914.484V926.164H537.494V920.299H532.467V918.648H537.494V914.484H539.5ZM520.762 924.615C524.164 923.485 526.5 920.654 526.525 917.354V915.221H528.481V917.354C528.455 920.312 530.791 923.028 534.092 924.107L533.025 925.656C530.524 924.768 528.531 922.99 527.528 920.705C526.564 923.282 524.52 925.25 521.854 926.215L520.762 924.615ZM524.875 928.906V927.307H539.5V932.689H526.881V935.152H540.338V936.752H524.926V931.166H537.52V928.906H524.875ZM561.375 914.51V926.9H559.394V914.51H561.375ZM543.88 917.252V915.602H554.189V921.695H545.861V924.768C549.898 924.742 552.907 924.653 556.576 924.057L556.804 925.707C553.008 926.304 549.923 926.418 545.759 926.443H543.931V920.121H552.209V917.252H543.88ZM546.699 936.752V928.043H548.705V930.734H559.394V928.043H561.375V936.752H546.699ZM548.705 935.127H559.394V932.334H548.705V935.127Z" fill="#8D8D8D"/>
<line x1="244.5" y1="926.1" x2="320.5" y2="926.1" stroke="#8D8D8D" stroke-width="0.8"/>
<circle cx="321" cy="926" r="5" fill="#F26966"/>
<path d="M2.8608 1108V1105.57L11.983 1095.59C13.0535 1094.42 13.9351 1093.4 14.6278 1092.54C15.3205 1091.66 15.8333 1090.84 16.1662 1090.08C16.508 1089.31 16.679 1088.5 16.679 1087.65C16.679 1086.68 16.4451 1085.84 15.9773 1085.13C15.5185 1084.42 14.8887 1083.87 14.0881 1083.48C13.2874 1083.09 12.3878 1082.9 11.3892 1082.9C10.3277 1082.9 9.40104 1083.12 8.60938 1083.56C7.8267 1083.99 7.21946 1084.6 6.78764 1085.38C6.36482 1086.17 6.15341 1087.08 6.15341 1088.14H2.96875C2.96875 1086.52 3.34209 1085.1 4.08878 1083.87C4.83546 1082.65 5.85204 1081.7 7.13849 1081.01C8.43395 1080.33 9.88684 1079.99 11.4972 1079.99C13.1165 1079.99 14.5514 1080.33 15.8018 1081.01C17.0523 1081.7 18.0329 1082.62 18.7436 1083.78C19.4543 1084.94 19.8097 1086.23 19.8097 1087.65C19.8097 1088.67 19.6252 1089.66 19.2564 1090.63C18.8965 1091.6 18.2668 1092.67 17.3672 1093.86C16.4766 1095.04 15.2396 1096.48 13.6562 1098.18L7.44886 1104.82V1105.03H20.2955V1108H2.8608ZM34.1228 1108.38C32.0897 1108.38 30.3579 1107.82 28.9275 1106.72C27.4971 1105.6 26.4041 1103.99 25.6484 1101.87C24.8927 1099.75 24.5149 1097.19 24.5149 1094.18C24.5149 1091.2 24.8927 1088.64 25.6484 1086.53C26.4131 1084.41 27.5106 1082.79 28.941 1081.67C30.3804 1080.55 32.1077 1079.99 34.1228 1079.99C36.138 1079.99 37.8607 1080.55 39.2911 1081.67C40.7305 1082.79 41.8281 1084.41 42.5837 1086.53C43.3484 1088.64 43.7308 1091.2 43.7308 1094.18C43.7308 1097.19 43.3529 1099.75 42.5972 1101.87C41.8416 1103.99 40.7485 1105.6 39.3181 1106.72C37.8877 1107.82 36.156 1108.38 34.1228 1108.38ZM34.1228 1105.41C36.138 1105.41 37.7033 1104.44 38.8188 1102.49C39.9344 1100.55 40.4921 1097.78 40.4921 1094.18C40.4921 1091.79 40.2357 1089.75 39.723 1088.07C39.2192 1086.39 38.4905 1085.1 37.5369 1084.22C36.5923 1083.34 35.4543 1082.9 34.1228 1082.9C32.1257 1082.9 30.5648 1083.89 29.4403 1085.86C28.3158 1087.82 27.7535 1090.59 27.7535 1094.18C27.7535 1096.57 28.0054 1098.61 28.5092 1100.28C29.013 1101.95 29.7372 1103.23 30.6818 1104.1C31.6354 1104.97 32.7824 1105.41 34.1228 1105.41ZM48.0986 1108V1105.57L57.2208 1095.59C58.2913 1094.42 59.1729 1093.4 59.8657 1092.54C60.5584 1091.66 61.0711 1090.84 61.404 1090.08C61.7459 1089.31 61.9168 1088.5 61.9168 1087.65C61.9168 1086.68 61.6829 1085.84 61.2151 1085.13C60.7563 1084.42 60.1265 1083.87 59.3259 1083.48C58.5252 1083.09 57.6256 1082.9 56.627 1082.9C55.5655 1082.9 54.6389 1083.12 53.8472 1083.56C53.0645 1083.99 52.4573 1084.6 52.0255 1085.38C51.6026 1086.17 51.3912 1087.08 51.3912 1088.14H48.2066C48.2066 1086.52 48.5799 1085.1 49.3266 1083.87C50.0733 1082.65 51.0898 1081.7 52.3763 1081.01C53.6718 1080.33 55.1246 1079.99 56.735 1079.99C58.3543 1079.99 59.7892 1080.33 61.0397 1081.01C62.2901 1081.7 63.2707 1082.62 63.9814 1083.78C64.6921 1084.94 65.0475 1086.23 65.0475 1087.65C65.0475 1088.67 64.863 1089.66 64.4942 1090.63C64.1344 1091.6 63.5046 1092.67 62.605 1093.86C61.7144 1095.04 60.4774 1096.48 58.8941 1098.18L52.6867 1104.82V1105.03H65.5333V1108H48.0986ZM70.3464 1108V1105.57L79.4686 1095.59C80.5391 1094.42 81.4208 1093.4 82.1135 1092.54C82.8062 1091.66 83.319 1090.84 83.6518 1090.08C83.9937 1089.31 84.1646 1088.5 84.1646 1087.65C84.1646 1086.68 83.9307 1085.84 83.4629 1085.13C83.0041 1084.42 82.3744 1083.87 81.5737 1083.48C80.773 1083.09 79.8734 1082.9 78.8748 1082.9C77.8133 1082.9 76.8867 1083.12 76.095 1083.56C75.3123 1083.99 74.7051 1084.6 74.2733 1085.38C73.8504 1086.17 73.639 1087.08 73.639 1088.14H70.4544C70.4544 1086.52 70.8277 1085.1 71.5744 1083.87C72.3211 1082.65 73.3377 1081.7 74.6241 1081.01C75.9196 1080.33 77.3725 1079.99 78.9828 1079.99C80.6021 1079.99 82.037 1080.33 83.2875 1081.01C84.5379 1081.7 85.5185 1082.62 86.2292 1083.78C86.9399 1084.94 87.2953 1086.23 87.2953 1087.65C87.2953 1088.67 87.1109 1089.66 86.742 1090.63C86.3822 1091.6 85.7524 1092.67 84.8528 1093.86C83.9622 1095.04 82.7252 1096.48 81.1419 1098.18L74.9345 1104.82V1105.03H87.7811V1108H70.3464Z" fill="#F26966"/>
<path d="M361.929 1084.18V1106H359.287V1086.95H359.159L353.832 1090.49V1087.8L359.287 1084.18H361.929ZM374.72 1106.3C373.115 1106.3 371.748 1105.86 370.619 1104.99C369.489 1104.11 368.627 1102.83 368.03 1101.16C367.433 1099.49 367.135 1097.46 367.135 1095.09C367.135 1092.73 367.433 1090.72 368.03 1089.05C368.634 1087.37 369.5 1086.1 370.629 1085.22C371.766 1084.33 373.129 1083.88 374.72 1083.88C376.311 1083.88 377.671 1084.33 378.801 1085.22C379.937 1086.1 380.803 1087.37 381.4 1089.05C382.004 1090.72 382.306 1092.73 382.306 1095.09C382.306 1097.46 382.007 1099.49 381.411 1101.16C380.814 1102.83 379.951 1104.11 378.822 1104.99C377.693 1105.86 376.325 1106.3 374.72 1106.3ZM374.72 1103.95C376.311 1103.95 377.547 1103.19 378.428 1101.65C379.308 1100.12 379.749 1097.93 379.749 1095.09C379.749 1093.2 379.546 1091.59 379.141 1090.26C378.744 1088.94 378.168 1087.92 377.416 1087.23C376.67 1086.53 375.771 1086.18 374.72 1086.18C373.144 1086.18 371.911 1086.96 371.024 1088.52C370.136 1090.07 369.692 1092.26 369.692 1095.09C369.692 1096.98 369.891 1098.59 370.288 1099.91C370.686 1101.23 371.258 1102.23 372.004 1102.92C372.757 1103.61 373.662 1103.95 374.72 1103.95ZM386.867 1106.17C386.342 1106.17 385.891 1105.98 385.514 1105.61C385.138 1105.23 384.95 1104.78 384.95 1104.25C384.95 1103.73 385.138 1103.28 385.514 1102.9C385.891 1102.52 386.342 1102.34 386.867 1102.34C387.393 1102.34 387.844 1102.52 388.22 1102.9C388.597 1103.28 388.785 1103.73 388.785 1104.25C388.785 1104.6 388.696 1104.92 388.518 1105.21C388.348 1105.5 388.117 1105.74 387.826 1105.91C387.542 1106.09 387.222 1106.17 386.867 1106.17Z" fill="#8D8D8D"/>
<path d="M467.744 1104.25C463.669 1104.25 461.308 1100.83 461.32 1094.81C461.308 1088.84 463.694 1085.36 467.744 1085.36C471.781 1085.36 474.168 1088.84 474.168 1094.81C474.168 1100.83 471.819 1104.25 467.744 1104.25ZM463.529 1094.81C463.542 1099.57 465.078 1102.22 467.744 1102.22C470.397 1102.22 471.946 1099.57 471.934 1094.81C471.946 1090.05 470.385 1087.36 467.744 1087.34C465.104 1087.36 463.542 1090.05 463.529 1094.81ZM482.712 1104.25C478.637 1104.25 476.276 1100.83 476.289 1094.81C476.276 1088.84 478.663 1085.36 482.712 1085.36C486.75 1085.36 489.136 1088.84 489.136 1094.81C489.136 1100.83 486.788 1104.25 482.712 1104.25ZM478.498 1094.81C478.51 1099.57 480.046 1102.22 482.712 1102.22C485.366 1102.22 486.915 1099.57 486.902 1094.81C486.915 1090.05 485.353 1087.36 482.712 1087.34C480.072 1087.36 478.51 1090.05 478.498 1094.81ZM497.681 1104.25C493.606 1104.25 491.244 1100.83 491.257 1094.81C491.244 1088.84 493.631 1085.36 497.681 1085.36C501.718 1085.36 504.105 1088.84 504.105 1094.81C504.105 1100.83 501.756 1104.25 497.681 1104.25ZM493.466 1094.81C493.479 1099.57 495.015 1102.22 497.681 1102.22C500.334 1102.22 501.883 1099.57 501.87 1094.81C501.883 1090.05 500.321 1087.36 497.681 1087.34C495.04 1087.36 493.479 1090.05 493.466 1094.81ZM512.649 1104.25C508.574 1104.25 506.212 1100.83 506.225 1094.81C506.212 1088.84 508.599 1085.36 512.649 1085.36C516.686 1085.36 519.073 1088.84 519.073 1094.81C519.073 1100.83 516.724 1104.25 512.649 1104.25ZM508.434 1094.81C508.447 1099.57 509.983 1102.22 512.649 1102.22C515.302 1102.22 516.851 1099.57 516.838 1094.81C516.851 1090.05 515.29 1087.36 512.649 1087.34C510.008 1087.36 508.447 1090.05 508.434 1094.81ZM539.5 1083.48V1095.16H537.494V1089.3H532.467V1087.65H537.494V1083.48H539.5ZM520.762 1093.62C524.164 1092.49 526.5 1089.65 526.525 1086.35V1084.22H528.481V1086.35C528.455 1089.31 530.791 1092.03 534.092 1093.11L533.025 1094.66C530.524 1093.77 528.531 1091.99 527.528 1089.71C526.564 1092.28 524.52 1094.25 521.854 1095.21L520.762 1093.62ZM524.875 1097.91V1096.31H539.5V1101.69H526.881V1104.15H540.338V1105.75H524.926V1100.17H537.52V1097.91H524.875ZM561.375 1083.51V1095.9H559.394V1083.51H561.375ZM543.88 1086.25V1084.6H554.189V1090.7H545.861V1093.77C549.898 1093.74 552.907 1093.65 556.576 1093.06L556.804 1094.71C553.008 1095.3 549.923 1095.42 545.759 1095.44H543.931V1089.12H552.209V1086.25H543.88ZM546.699 1105.75V1097.04H548.705V1099.73H559.394V1097.04H561.375V1105.75H546.699ZM548.705 1104.13H559.394V1101.33H548.705V1104.13Z" fill="#8D8D8D"/>
<circle cx="130" cy="1095" r="5" fill="#8D8D8D"/>
<line x1="130.487" y1="1095.1" x2="320.5" y2="1095.1" stroke="#8D8D8D" stroke-width="0.8"/>
<circle cx="321" cy="1095" r="5" fill="#F26966"/>
<path d="M361.929 1146.18V1168H359.287V1148.95H359.159L353.832 1152.49V1149.8L359.287 1146.18H361.929ZM374.592 1168.3C373.129 1168.3 371.837 1168.04 370.715 1167.52C369.6 1167 368.73 1166.27 368.105 1165.36C367.48 1164.43 367.171 1163.38 367.178 1162.2C367.171 1161.28 367.352 1160.43 367.721 1159.65C368.09 1158.86 368.595 1158.2 369.234 1157.68C369.88 1157.14 370.601 1156.81 371.396 1156.66V1156.54C370.352 1156.27 369.521 1155.68 368.904 1154.78C368.286 1153.87 367.98 1152.84 367.987 1151.68C367.98 1150.57 368.261 1149.58 368.829 1148.71C369.397 1147.83 370.178 1147.14 371.173 1146.64C372.174 1146.14 373.314 1145.88 374.592 1145.88C375.857 1145.88 376.986 1146.14 377.98 1146.64C378.975 1147.14 379.756 1147.83 380.324 1148.71C380.899 1149.58 381.19 1150.57 381.198 1151.68C381.19 1152.84 380.874 1153.87 380.249 1154.78C379.632 1155.68 378.811 1156.27 377.788 1156.54V1156.66C378.577 1156.81 379.287 1157.14 379.919 1157.68C380.551 1158.2 381.056 1158.86 381.432 1159.65C381.808 1160.43 382 1161.28 382.007 1162.2C382 1163.38 381.681 1164.43 381.048 1165.36C380.423 1166.27 379.553 1167 378.438 1167.52C377.33 1168.04 376.048 1168.3 374.592 1168.3ZM374.592 1165.95C375.58 1165.95 376.432 1165.79 377.149 1165.48C377.867 1165.16 378.421 1164.7 378.811 1164.12C379.202 1163.54 379.401 1162.86 379.408 1162.08C379.401 1161.25 379.188 1160.52 378.769 1159.89C378.35 1159.26 377.778 1158.76 377.053 1158.4C376.336 1158.04 375.516 1157.86 374.592 1157.86C373.662 1157.86 372.831 1158.04 372.1 1158.4C371.375 1158.76 370.803 1159.26 370.384 1159.89C369.972 1160.52 369.77 1161.25 369.777 1162.08C369.77 1162.86 369.958 1163.54 370.342 1164.12C370.732 1164.7 371.29 1165.16 372.014 1165.48C372.739 1165.79 373.598 1165.95 374.592 1165.95ZM374.592 1155.6C375.374 1155.6 376.066 1155.44 376.67 1155.13C377.281 1154.82 377.76 1154.38 378.108 1153.82C378.456 1153.26 378.634 1152.6 378.641 1151.85C378.634 1151.11 378.46 1150.47 378.119 1149.92C377.778 1149.37 377.306 1148.94 376.702 1148.64C376.098 1148.34 375.395 1148.18 374.592 1148.18C373.776 1148.18 373.062 1148.34 372.451 1148.64C371.84 1148.94 371.368 1149.37 371.034 1149.92C370.7 1150.47 370.537 1151.11 370.544 1151.85C370.537 1152.6 370.704 1153.26 371.045 1153.82C371.393 1154.38 371.872 1154.82 372.483 1155.13C373.094 1155.44 373.797 1155.6 374.592 1155.6ZM386.691 1168.17C386.166 1168.17 385.715 1167.98 385.338 1167.61C384.962 1167.23 384.774 1166.78 384.774 1166.25C384.774 1165.73 384.962 1165.28 385.338 1164.9C385.715 1164.52 386.166 1164.34 386.691 1164.34C387.217 1164.34 387.668 1164.52 388.044 1164.9C388.421 1165.28 388.609 1165.73 388.609 1166.25C388.609 1166.6 388.52 1166.92 388.343 1167.21C388.172 1167.5 387.941 1167.74 387.65 1167.91C387.366 1168.09 387.046 1168.17 386.691 1168.17Z" fill="#8D8D8D"/>
<path d="M467.744 1166.25C463.669 1166.25 461.308 1162.83 461.32 1156.81C461.308 1150.84 463.694 1147.36 467.744 1147.36C471.781 1147.36 474.168 1150.84 474.168 1156.81C474.168 1162.83 471.819 1166.25 467.744 1166.25ZM463.529 1156.81C463.542 1161.57 465.078 1164.22 467.744 1164.22C470.397 1164.22 471.946 1161.57 471.934 1156.81C471.946 1152.05 470.385 1149.36 467.744 1149.34C465.104 1149.36 463.542 1152.05 463.529 1156.81ZM482.712 1166.25C478.637 1166.25 476.276 1162.83 476.289 1156.81C476.276 1150.84 478.663 1147.36 482.712 1147.36C486.75 1147.36 489.136 1150.84 489.136 1156.81C489.136 1162.83 486.788 1166.25 482.712 1166.25ZM478.498 1156.81C478.51 1161.57 480.046 1164.22 482.712 1164.22C485.366 1164.22 486.915 1161.57 486.902 1156.81C486.915 1152.05 485.353 1149.36 482.712 1149.34C480.072 1149.36 478.51 1152.05 478.498 1156.81ZM497.681 1166.25C493.606 1166.25 491.244 1162.83 491.257 1156.81C491.244 1150.84 493.631 1147.36 497.681 1147.36C501.718 1147.36 504.105 1150.84 504.105 1156.81C504.105 1162.83 501.756 1166.25 497.681 1166.25ZM493.466 1156.81C493.479 1161.57 495.015 1164.22 497.681 1164.22C500.334 1164.22 501.883 1161.57 501.87 1156.81C501.883 1152.05 500.321 1149.36 497.681 1149.34C495.04 1149.36 493.479 1152.05 493.466 1156.81ZM512.649 1166.25C508.574 1166.25 506.212 1162.83 506.225 1156.81C506.212 1150.84 508.599 1147.36 512.649 1147.36C516.686 1147.36 519.073 1150.84 519.073 1156.81C519.073 1162.83 516.724 1166.25 512.649 1166.25ZM508.434 1156.81C508.447 1161.57 509.983 1164.22 512.649 1164.22C515.302 1164.22 516.851 1161.57 516.838 1156.81C516.851 1152.05 515.29 1149.36 512.649 1149.34C510.008 1149.36 508.447 1152.05 508.434 1156.81ZM539.5 1145.48V1157.16H537.494V1151.3H532.467V1149.65H537.494V1145.48H539.5ZM520.762 1155.62C524.164 1154.49 526.5 1151.65 526.525 1148.35V1146.22H528.481V1148.35C528.455 1151.31 530.791 1154.03 534.092 1155.11L533.025 1156.66C530.524 1155.77 528.531 1153.99 527.528 1151.71C526.564 1154.28 524.52 1156.25 521.854 1157.21L520.762 1155.62ZM524.875 1159.91V1158.31H539.5V1163.69H526.881V1166.15H540.338V1167.75H524.926V1162.17H537.52V1159.91H524.875ZM561.375 1145.51V1157.9H559.394V1145.51H561.375ZM543.88 1148.25V1146.6H554.189V1152.7H545.861V1155.77C549.898 1155.74 552.907 1155.65 556.576 1155.06L556.804 1156.71C553.008 1157.3 549.923 1157.42 545.759 1157.44H543.931V1151.12H552.209V1148.25H543.88ZM546.699 1167.75V1159.04H548.705V1161.73H559.394V1159.04H561.375V1167.75H546.699ZM548.705 1166.13H559.394V1163.33H548.705V1166.13Z" fill="#8D8D8D"/>
<line x1="244.5" y1="1157.1" x2="320.5" y2="1157.1" stroke="#8D8D8D" stroke-width="0.8"/>
<circle cx="321" cy="1157" r="5" fill="#F26966"/>
<path d="M361.929 1209.18V1231H359.287V1211.95H359.159L353.832 1215.49V1212.8L359.287 1209.18H361.929ZM374.592 1231.3C373.129 1231.3 371.837 1231.04 370.715 1230.52C369.6 1230 368.73 1229.27 368.105 1228.36C367.48 1227.43 367.171 1226.38 367.178 1225.2C367.171 1224.28 367.352 1223.43 367.721 1222.65C368.09 1221.86 368.595 1221.2 369.234 1220.68C369.88 1220.14 370.601 1219.81 371.396 1219.66V1219.54C370.352 1219.27 369.521 1218.68 368.904 1217.78C368.286 1216.87 367.98 1215.84 367.987 1214.68C367.98 1213.57 368.261 1212.58 368.829 1211.71C369.397 1210.83 370.178 1210.14 371.173 1209.64C372.174 1209.14 373.314 1208.88 374.592 1208.88C375.857 1208.88 376.986 1209.14 377.98 1209.64C378.975 1210.14 379.756 1210.83 380.324 1211.71C380.899 1212.58 381.19 1213.57 381.198 1214.68C381.19 1215.84 380.874 1216.87 380.249 1217.78C379.632 1218.68 378.811 1219.27 377.788 1219.54V1219.66C378.577 1219.81 379.287 1220.14 379.919 1220.68C380.551 1221.2 381.056 1221.86 381.432 1222.65C381.808 1223.43 382 1224.28 382.007 1225.2C382 1226.38 381.681 1227.43 381.048 1228.36C380.423 1229.27 379.553 1230 378.438 1230.52C377.33 1231.04 376.048 1231.3 374.592 1231.3ZM374.592 1228.95C375.58 1228.95 376.432 1228.79 377.149 1228.48C377.867 1228.16 378.421 1227.7 378.811 1227.12C379.202 1226.54 379.401 1225.86 379.408 1225.08C379.401 1224.25 379.188 1223.52 378.769 1222.89C378.35 1222.26 377.778 1221.76 377.053 1221.4C376.336 1221.04 375.516 1220.86 374.592 1220.86C373.662 1220.86 372.831 1221.04 372.1 1221.4C371.375 1221.76 370.803 1222.26 370.384 1222.89C369.972 1223.52 369.77 1224.25 369.777 1225.08C369.77 1225.86 369.958 1226.54 370.342 1227.12C370.732 1227.7 371.29 1228.16 372.014 1228.48C372.739 1228.79 373.598 1228.95 374.592 1228.95ZM374.592 1218.6C375.374 1218.6 376.066 1218.44 376.67 1218.13C377.281 1217.82 377.76 1217.38 378.108 1216.82C378.456 1216.26 378.634 1215.6 378.641 1214.85C378.634 1214.11 378.46 1213.47 378.119 1212.92C377.778 1212.37 377.306 1211.94 376.702 1211.64C376.098 1211.34 375.395 1211.18 374.592 1211.18C373.776 1211.18 373.062 1211.34 372.451 1211.64C371.84 1211.94 371.368 1212.37 371.034 1212.92C370.7 1213.47 370.537 1214.11 370.544 1214.85C370.537 1215.6 370.704 1216.26 371.045 1216.82C371.393 1217.38 371.872 1217.82 372.483 1218.13C373.094 1218.44 373.797 1218.6 374.592 1218.6ZM386.691 1231.17C386.166 1231.17 385.715 1230.98 385.338 1230.61C384.962 1230.23 384.774 1229.78 384.774 1229.25C384.774 1228.73 384.962 1228.28 385.338 1227.9C385.715 1227.52 386.166 1227.34 386.691 1227.34C387.217 1227.34 387.668 1227.52 388.044 1227.9C388.421 1228.28 388.609 1228.73 388.609 1229.25C388.609 1229.6 388.52 1229.92 388.343 1230.21C388.172 1230.5 387.941 1230.74 387.65 1230.91C387.366 1231.09 387.046 1231.17 386.691 1231.17Z" fill="#8D8D8D"/>
<path d="M467.744 1229.25C463.669 1229.25 461.308 1225.83 461.32 1219.81C461.308 1213.84 463.694 1210.36 467.744 1210.36C471.781 1210.36 474.168 1213.84 474.168 1219.81C474.168 1225.83 471.819 1229.25 467.744 1229.25ZM463.529 1219.81C463.542 1224.57 465.078 1227.22 467.744 1227.22C470.397 1227.22 471.946 1224.57 471.934 1219.81C471.946 1215.05 470.385 1212.36 467.744 1212.34C465.104 1212.36 463.542 1215.05 463.529 1219.81ZM482.712 1229.25C478.637 1229.25 476.276 1225.83 476.289 1219.81C476.276 1213.84 478.663 1210.36 482.712 1210.36C486.75 1210.36 489.136 1213.84 489.136 1219.81C489.136 1225.83 486.788 1229.25 482.712 1229.25ZM478.498 1219.81C478.51 1224.57 480.046 1227.22 482.712 1227.22C485.366 1227.22 486.915 1224.57 486.902 1219.81C486.915 1215.05 485.353 1212.36 482.712 1212.34C480.072 1212.36 478.51 1215.05 478.498 1219.81ZM497.681 1229.25C493.606 1229.25 491.244 1225.83 491.257 1219.81C491.244 1213.84 493.631 1210.36 497.681 1210.36C501.718 1210.36 504.105 1213.84 504.105 1219.81C504.105 1225.83 501.756 1229.25 497.681 1229.25ZM493.466 1219.81C493.479 1224.57 495.015 1227.22 497.681 1227.22C500.334 1227.22 501.883 1224.57 501.87 1219.81C501.883 1215.05 500.321 1212.36 497.681 1212.34C495.04 1212.36 493.479 1215.05 493.466 1219.81ZM512.649 1229.25C508.574 1229.25 506.212 1225.83 506.225 1219.81C506.212 1213.84 508.599 1210.36 512.649 1210.36C516.686 1210.36 519.073 1213.84 519.073 1219.81C519.073 1225.83 516.724 1229.25 512.649 1229.25ZM508.434 1219.81C508.447 1224.57 509.983 1227.22 512.649 1227.22C515.302 1227.22 516.851 1224.57 516.838 1219.81C516.851 1215.05 515.29 1212.36 512.649 1212.34C510.008 1212.36 508.447 1215.05 508.434 1219.81ZM539.5 1208.48V1220.16H537.494V1214.3H532.467V1212.65H537.494V1208.48H539.5ZM520.762 1218.62C524.164 1217.49 526.5 1214.65 526.525 1211.35V1209.22H528.481V1211.35C528.455 1214.31 530.791 1217.03 534.092 1218.11L533.025 1219.66C530.524 1218.77 528.531 1216.99 527.528 1214.71C526.564 1217.28 524.52 1219.25 521.854 1220.21L520.762 1218.62ZM524.875 1222.91V1221.31H539.5V1226.69H526.881V1229.15H540.338V1230.75H524.926V1225.17H537.52V1222.91H524.875ZM561.375 1208.51V1220.9H559.394V1208.51H561.375ZM543.88 1211.25V1209.6H554.189V1215.7H545.861V1218.77C549.898 1218.74 552.907 1218.65 556.576 1218.06L556.804 1219.71C553.008 1220.3 549.923 1220.42 545.759 1220.44H543.931V1214.12H552.209V1211.25H543.88ZM546.699 1230.75V1222.04H548.705V1224.73H559.394V1222.04H561.375V1230.75H546.699ZM548.705 1229.13H559.394V1226.33H548.705V1229.13Z" fill="#8D8D8D"/>
<line x1="244.5" y1="1220.1" x2="320.5" y2="1220.1" stroke="#8D8D8D" stroke-width="0.8"/>
<circle cx="321" cy="1220" r="5" fill="#F26966"/>
<path d="M361.929 1272.18V1294H359.287V1274.95H359.159L353.832 1278.49V1275.8L359.287 1272.18H361.929ZM374.592 1294.3C373.129 1294.3 371.837 1294.04 370.715 1293.52C369.6 1293 368.73 1292.27 368.105 1291.36C367.48 1290.43 367.171 1289.38 367.178 1288.2C367.171 1287.28 367.352 1286.43 367.721 1285.65C368.09 1284.86 368.595 1284.2 369.234 1283.68C369.88 1283.14 370.601 1282.81 371.396 1282.66V1282.54C370.352 1282.27 369.521 1281.68 368.904 1280.78C368.286 1279.87 367.98 1278.84 367.987 1277.68C367.98 1276.57 368.261 1275.58 368.829 1274.71C369.397 1273.83 370.178 1273.14 371.173 1272.64C372.174 1272.14 373.314 1271.88 374.592 1271.88C375.857 1271.88 376.986 1272.14 377.98 1272.64C378.975 1273.14 379.756 1273.83 380.324 1274.71C380.899 1275.58 381.19 1276.57 381.198 1277.68C381.19 1278.84 380.874 1279.87 380.249 1280.78C379.632 1281.68 378.811 1282.27 377.788 1282.54V1282.66C378.577 1282.81 379.287 1283.14 379.919 1283.68C380.551 1284.2 381.056 1284.86 381.432 1285.65C381.808 1286.43 382 1287.28 382.007 1288.2C382 1289.38 381.681 1290.43 381.048 1291.36C380.423 1292.27 379.553 1293 378.438 1293.52C377.33 1294.04 376.048 1294.3 374.592 1294.3ZM374.592 1291.95C375.58 1291.95 376.432 1291.79 377.149 1291.48C377.867 1291.16 378.421 1290.7 378.811 1290.12C379.202 1289.54 379.401 1288.86 379.408 1288.08C379.401 1287.25 379.188 1286.52 378.769 1285.89C378.35 1285.26 377.778 1284.76 377.053 1284.4C376.336 1284.04 375.516 1283.86 374.592 1283.86C373.662 1283.86 372.831 1284.04 372.1 1284.4C371.375 1284.76 370.803 1285.26 370.384 1285.89C369.972 1286.52 369.77 1287.25 369.777 1288.08C369.77 1288.86 369.958 1289.54 370.342 1290.12C370.732 1290.7 371.29 1291.16 372.014 1291.48C372.739 1291.79 373.598 1291.95 374.592 1291.95ZM374.592 1281.6C375.374 1281.6 376.066 1281.44 376.67 1281.13C377.281 1280.82 377.76 1280.38 378.108 1279.82C378.456 1279.26 378.634 1278.6 378.641 1277.85C378.634 1277.11 378.46 1276.47 378.119 1275.92C377.778 1275.37 377.306 1274.94 376.702 1274.64C376.098 1274.34 375.395 1274.18 374.592 1274.18C373.776 1274.18 373.062 1274.34 372.451 1274.64C371.84 1274.94 371.368 1275.37 371.034 1275.92C370.7 1276.47 370.537 1277.11 370.544 1277.85C370.537 1278.6 370.704 1279.26 371.045 1279.82C371.393 1280.38 371.872 1280.82 372.483 1281.13C373.094 1281.44 373.797 1281.6 374.592 1281.6ZM386.691 1294.17C386.166 1294.17 385.715 1293.98 385.338 1293.61C384.962 1293.23 384.774 1292.78 384.774 1292.25C384.774 1291.73 384.962 1291.28 385.338 1290.9C385.715 1290.52 386.166 1290.34 386.691 1290.34C387.217 1290.34 387.668 1290.52 388.044 1290.9C388.421 1291.28 388.609 1291.73 388.609 1292.25C388.609 1292.6 388.52 1292.92 388.343 1293.21C388.172 1293.5 387.941 1293.74 387.65 1293.91C387.366 1294.09 387.046 1294.17 386.691 1294.17Z" fill="#8D8D8D"/>
<path d="M467.744 1292.25C463.669 1292.25 461.308 1288.83 461.32 1282.81C461.308 1276.84 463.694 1273.36 467.744 1273.36C471.781 1273.36 474.168 1276.84 474.168 1282.81C474.168 1288.83 471.819 1292.25 467.744 1292.25ZM463.529 1282.81C463.542 1287.57 465.078 1290.22 467.744 1290.22C470.397 1290.22 471.946 1287.57 471.934 1282.81C471.946 1278.05 470.385 1275.36 467.744 1275.34C465.104 1275.36 463.542 1278.05 463.529 1282.81ZM482.712 1292.25C478.637 1292.25 476.276 1288.83 476.289 1282.81C476.276 1276.84 478.663 1273.36 482.712 1273.36C486.75 1273.36 489.136 1276.84 489.136 1282.81C489.136 1288.83 486.788 1292.25 482.712 1292.25ZM478.498 1282.81C478.51 1287.57 480.046 1290.22 482.712 1290.22C485.366 1290.22 486.915 1287.57 486.902 1282.81C486.915 1278.05 485.353 1275.36 482.712 1275.34C480.072 1275.36 478.51 1278.05 478.498 1282.81ZM497.681 1292.25C493.606 1292.25 491.244 1288.83 491.257 1282.81C491.244 1276.84 493.631 1273.36 497.681 1273.36C501.718 1273.36 504.105 1276.84 504.105 1282.81C504.105 1288.83 501.756 1292.25 497.681 1292.25ZM493.466 1282.81C493.479 1287.57 495.015 1290.22 497.681 1290.22C500.334 1290.22 501.883 1287.57 501.87 1282.81C501.883 1278.05 500.321 1275.36 497.681 1275.34C495.04 1275.36 493.479 1278.05 493.466 1282.81ZM512.649 1292.25C508.574 1292.25 506.212 1288.83 506.225 1282.81C506.212 1276.84 508.599 1273.36 512.649 1273.36C516.686 1273.36 519.073 1276.84 519.073 1282.81C519.073 1288.83 516.724 1292.25 512.649 1292.25ZM508.434 1282.81C508.447 1287.57 509.983 1290.22 512.649 1290.22C515.302 1290.22 516.851 1287.57 516.838 1282.81C516.851 1278.05 515.29 1275.36 512.649 1275.34C510.008 1275.36 508.447 1278.05 508.434 1282.81ZM539.5 1271.48V1283.16H537.494V1277.3H532.467V1275.65H537.494V1271.48H539.5ZM520.762 1281.62C524.164 1280.49 526.5 1277.65 526.525 1274.35V1272.22H528.481V1274.35C528.455 1277.31 530.791 1280.03 534.092 1281.11L533.025 1282.66C530.524 1281.77 528.531 1279.99 527.528 1277.71C526.564 1280.28 524.52 1282.25 521.854 1283.21L520.762 1281.62ZM524.875 1285.91V1284.31H539.5V1289.69H526.881V1292.15H540.338V1293.75H524.926V1288.17H537.52V1285.91H524.875ZM561.375 1271.51V1283.9H559.394V1271.51H561.375ZM543.88 1274.25V1272.6H554.189V1278.7H545.861V1281.77C549.898 1281.74 552.907 1281.65 556.576 1281.06L556.804 1282.71C553.008 1283.3 549.923 1283.42 545.759 1283.44H543.931V1277.12H552.209V1274.25H543.88ZM546.699 1293.75V1285.04H548.705V1287.73H559.394V1285.04H561.375V1293.75H546.699ZM548.705 1292.13H559.394V1289.33H548.705V1292.13Z" fill="#8D8D8D"/>
<line x1="244.5" y1="1283.1" x2="320.5" y2="1283.1" stroke="#8D8D8D" stroke-width="0.8"/>
<circle cx="321" cy="1283" r="5" fill="#F26966"/>
<path d="M643 1.5H1013C1021.01 1.5 1027.5 7.99187 1027.5 16V296C1027.5 304.008 1021.01 310.5 1013 310.5H643C634.992 310.5 628.5 304.008 628.5 296V16C628.5 7.99187 634.992 1.5 643 1.5Z" fill="white" stroke="#707070"/>
<path d="M643 715.5H1013C1021.01 715.5 1027.5 721.992 1027.5 730V1010C1027.5 1018.01 1021.01 1024.5 1013 1024.5H643C634.992 1024.5 628.5 1018.01 628.5 1010V730C628.5 721.992 634.992 715.5 643 715.5Z" fill="white" stroke="#707070"/>
</svg>
